Ronzino-Bold.ufo
<glyph name="exclam" format="2">
  <advance width="274"/>
  <unicode hex="0021"/>
  <outline>
    <contour>
      <point x="96" y="220" type="line"/>
      <point x="178" y="220" type="line"/>
      <point x="209" y="532" type="line"/>
      <point x="209" y="692" type="line"/>
      <point x="64" y="692" type="line"/>
      <point x="64" y="532" type="line"/>
    </contour>
    <component base="period" xOffset="19"/>
  </outline>
</glyph>
<glyph name="numbersign" format="2">
  <advance width="660"/>
  <unicode hex="0023"/>
  <outline>
    <contour>
      <point x="86" y="0" type="line"/>
      <point x="199" y="0" type="line"/>
      <point x="346" y="690" type="line"/>
      <point x="234" y="690" type="line"/>
    </contour>
    <contour>
      <point x="10" y="159" type="line"/>
      <point x="591" y="159" type="line"/>
      <point x="608" y="254" type="line"/>
      <point x="28" y="254" type="line"/>
    </contour>
    <contour>
      <point x="324" y="0" type="line"/>
      <point x="436" y="0" type="line"/>
      <point x="580" y="690" type="line"/>
      <point x="468" y="690" type="line"/>
    </contour>
    <contour>
      <point x="51" y="430" type="line"/>
      <point x="633" y="430" type="line"/>
      <point x="650" y="525" type="line"/>
      <point x="69" y="525" type="line"/>
    </contour>
  </outline>
</glyph>
<glyph name="dollar" format="2">
  <advance width="660"/>
  <unicode hex="0024"/>
  <anchor x="331" y="0" name="bottom"/>
  <anchor x="331" y="692" name="top"/>
  <outline>
    <contour>
      <point x="337" y="-14" type="curve" smooth="yes"/>
      <point x="507" y="-14"/>
      <point x="610" y="66"/>
      <point x="610" y="191" type="curve" smooth="yes"/>
      <point x="610" y="484"/>
      <point x="211" y="346"/>
      <point x="211" y="515" type="curve" smooth="yes"/>
      <point x="211" y="570"/>
      <point x="254" y="605"/>
      <point x="328" y="605" type="curve" smooth="yes"/>
      <point x="400" y="605"/>
      <point x="452" y="569"/>
      <point x="458" y="506" type="curve"/>
      <point x="598" y="556" type="line"/>
      <point x="563" y="652"/>
      <point x="462" y="706"/>
      <point x="339" y="706" type="curve" smooth="yes"/>
      <point x="174" y="706"/>
      <point x="69" y="629"/>
      <point x="69" y="508" type="curve" smooth="yes"/>
      <point x="69" y="224"/>
      <point x="467" y="367"/>
      <point x="467" y="186" type="curve" smooth="yes"/>
      <point x="467" y="124"/>
      <point x="421" y="87"/>
      <point x="342" y="87" type="curve" smooth="yes"/>
      <point x="261" y="87"/>
      <point x="205" y="132"/>
      <point x="189" y="214" type="curve"/>
      <point x="53" y="164" type="line"/>
      <point x="85" y="52"/>
      <point x="193" y="-14"/>
    </contour>
    <contour>
      <point x="277" y="-105" type="line"/>
      <point x="389" y="-105" type="line"/>
      <point x="389" y="780" type="line"/>
      <point x="277" y="780" type="line"/>
    </contour>
  </outline>
</glyph>
<glyph name="ampersand" format="2">
  <advance width="740"/>
  <unicode hex="0026"/>
  <outline>
    <contour>
      <point x="607" y="-78" type="curve"/>
      <point x="718" y="-24" type="line"/>
      <point x="640" y="135"/>
      <point x="543" y="231"/>
      <point x="445" y="309" type="curve" smooth="yes"/>
      <point x="324" y="405"/>
      <point x="223" y="448"/>
      <point x="223" y="526" type="curve" smooth="yes"/>
      <point x="223" y="568"/>
      <point x="255" y="601"/>
      <point x="307" y="601" type="curve" smooth="yes"/>
      <point x="360" y="601"/>
      <point x="402" y="569"/>
      <point x="412" y="515" type="curve"/>
      <point x="519" y="548" type="line"/>
      <point x="498" y="642"/>
      <point x="416" y="702"/>
      <point x="315" y="702" type="curve" smooth="yes"/>
      <point x="185" y="702"/>
      <point x="104" y="615"/>
      <point x="104" y="518" type="curve" smooth="yes"/>
      <point x="104" y="401"/>
      <point x="219" y="349"/>
      <point x="347" y="247" type="curve" smooth="yes"/>
      <point x="457" y="160"/>
      <point x="570" y="52"/>
    </contour>
    <contour>
      <point x="542" y="-17"/>
      <point x="616" y="170"/>
      <point x="614" y="388" type="curve"/>
      <point x="497" y="388" type="line"/>
      <point x="498" y="205"/>
      <point x="446" y="90"/>
      <point x="322" y="90" type="curve" smooth="yes"/>
      <point x="239" y="90"/>
      <point x="182" y="137"/>
      <point x="182" y="210" type="curve" smooth="yes"/>
      <point x="182" y="265"/>
      <point x="213" y="307"/>
      <point x="274" y="341" type="curve"/>
      <point x="195" y="390" type="line"/>
      <point x="97" y="344"/>
      <point x="55" y="261"/>
      <point x="55" y="186" type="curve" smooth="yes"/>
      <point x="55" y="64"/>
      <point x="166" y="-17"/>
      <point x="316" y="-17" type="curve" smooth="yes"/>
    </contour>
  </outline>
</glyph>
<glyph name="quotesingle" format="2">
  <advance width="211"/>
  <unicode hex="0027"/>
  <outline>
    <contour>
      <point x="60" y="395" type="line"/>
      <point x="150" y="395" type="line"/>
      <point x="171" y="692" type="line"/>
      <point x="40" y="692" type="line"/>
    </contour>
  </outline>
</glyph>
<glyph name="parenleft" format="2">
  <advance width="298"/>
  <unicode hex="0028"/>
  <outline>
    <contour>
      <point x="200" y="-232" type="curve"/>
      <point x="290" y="-180" type="line"/>
      <point x="223" y="-70"/>
      <point x="186" y="78"/>
      <point x="186" y="237" type="curve" smooth="yes"/>
      <point x="186" y="397"/>
      <point x="222" y="545"/>
      <point x="289" y="654" type="curve"/>
      <point x="198" y="706" type="line"/>
      <point x="102" y="580"/>
      <point x="46" y="403"/>
      <point x="46" y="237" type="curve" smooth="yes"/>
      <point x="46" y="71"/>
      <point x="104" y="-106"/>
    </contour>
  </outline>
</glyph>
<glyph name="asterisk" format="2">
  <advance width="402"/>
  <unicode hex="002A"/>
  <outline>
    <contour>
      <point x="32" y="562" type="line"/>
      <point x="103" y="540" type="line"/>
      <point x="175" y="529" type="line"/>
      <point x="175" y="568" type="line"/>
      <point x="110" y="507" type="line"/>
      <point x="67" y="444" type="line"/>
      <point x="139" y="391" type="line"/>
      <point x="184" y="452" type="line"/>
      <point x="219" y="519" type="line"/>
      <point x="183" y="519" type="line"/>
      <point x="218" y="452" type="line"/>
      <point x="263" y="391" type="line"/>
      <point x="335" y="444" type="line"/>
      <point x="292" y="507" type="line"/>
      <point x="227" y="568" type="line"/>
      <point x="227" y="529" type="line"/>
      <point x="299" y="540" type="line"/>
      <point x="370" y="562" type="line"/>
      <point x="345" y="650" type="line"/>
      <point x="271" y="628" type="line"/>
      <point x="208" y="593" type="line"/>
      <point x="235" y="566" type="line"/>
      <point x="247" y="646" type="line"/>
      <point x="247" y="722" type="line"/>
      <point x="155" y="722" type="line"/>
      <point x="155" y="646" type="line"/>
      <point x="167" y="566" type="line"/>
      <point x="195" y="593" type="line"/>
      <point x="130" y="628" type="line"/>
      <point x="56" y="651" type="line"/>
    </contour>
  </outline>
</glyph>
<glyph name="plus" format="2">
  <advance width="543"/>
  <unicode hex="002B"/>
  <outline>
    <contour>
      <point x="215" y="61" type="line"/>
      <point x="328" y="61" type="line"/>
      <point x="328" y="512" type="line"/>
      <point x="215" y="512" type="line"/>
    </contour>
    <contour>
      <point x="31" y="232" type="line"/>
      <point x="512" y="232" type="line"/>
      <point x="512" y="337" type="line"/>
      <point x="31" y="337" type="line"/>
    </contour>
  </outline>
</glyph>
<glyph name="comma" format="2">
  <advance width="236"/>
  <unicode hex="002C"/>
  <outline>
    <contour>
      <point x="58" y="-156" type="line"/>
      <point x="140" y="-138"/>
      <point x="195" y="-71"/>
      <point x="195" y="11" type="curve" smooth="yes"/>
      <point x="195" y="153" type="line"/>
      <point x="45" y="153" type="line"/>
      <point x="45" y="0" type="line"/>
      <point x="119" y="0" type="line"/>
      <point x="119" y="-4" type="line" smooth="yes"/>
      <point x="119" y="-49"/>
      <point x="88" y="-81"/>
      <point x="35" y="-89" type="curve"/>
    </contour>
  </outline>
</glyph>
<glyph name="period" format="2">
  <advance width="236"/>
  <unicode hex="002E"/>
  <outline>
    <contour>
      <point x="41" y="0" type="line"/>
      <point x="195" y="0" type="line"/>
      <point x="195" y="153" type="line"/>
      <point x="41" y="153" type="line"/>
    </contour>
  </outline>
</glyph>
<glyph name="slash" format="2">
  <advance width="470"/>
  <unicode hex="002F"/>
  <outline>
    <contour>
      <point x="10" y="-112" type="line"/>
      <point x="144" y="-112" type="line"/>
      <point x="460" y="694" type="line"/>
      <point x="327" y="694" type="line"/>
    </contour>
  </outline>
</glyph>
<glyph name="zero" format="2">
  <advance width="650"/>
  <unicode hex="0030"/>
  <outline>
    <contour>
      <point x="325" y="-14" type="curve" smooth="yes"/>
      <point x="497" y="-14"/>
      <point x="612" y="130"/>
      <point x="612" y="346" type="curve" smooth="yes"/>
      <point x="612" y="562"/>
      <point x="497" y="706"/>
      <point x="325" y="706" type="curve" smooth="yes"/>
      <point x="153" y="706"/>
      <point x="38" y="562"/>
      <point x="38" y="346" type="curve" smooth="yes"/>
      <point x="38" y="130"/>
      <point x="153" y="-14"/>
    </contour>
    <contour>
      <point x="325" y="94" type="curve" smooth="yes"/>
      <point x="235" y="94"/>
      <point x="178" y="191"/>
      <point x="178" y="347" type="curve" smooth="yes"/>
      <point x="178" y="503"/>
      <point x="235" y="600"/>
      <point x="325" y="600" type="curve" smooth="yes"/>
      <point x="415" y="600"/>
      <point x="472" y="503"/>
      <point x="472" y="347" type="curve" smooth="yes"/>
      <point x="472" y="191"/>
      <point x="415" y="94"/>
    </contour>
  </outline>
</glyph>
<glyph name="one" format="2">
  <advance width="406"/>
  <unicode hex="0031"/>
  <outline>
    <contour>
      <point x="198" y="0" type="line"/>
      <point x="334" y="0" type="line"/>
      <point x="334" y="693" type="line"/>
      <point x="213" y="693" type="line"/>
      <point x="172" y="622"/>
      <point x="110" y="575"/>
      <point x="24" y="556" type="curve"/>
      <point x="24" y="420" type="line"/>
      <point x="106" y="435"/>
      <point x="177" y="488"/>
      <point x="207" y="552" type="curve"/>
      <point x="198" y="552" type="line"/>
    </contour>
  </outline>
</glyph>
<glyph name="two" format="2">
  <advance width="558"/>
  <unicode hex="0032"/>
  <outline>
    <contour>
      <point x="24" y="0" type="line"/>
      <point x="523" y="0" type="line"/>
      <point x="523" y="113" type="line"/>
      <point x="188" y="113" type="line"/>
      <point x="192" y="106" type="line"/>
      <point x="214" y="155"/>
      <point x="263" y="192"/>
      <point x="312" y="227" type="curve" smooth="yes"/>
      <point x="404" y="294"/>
      <point x="511" y="359"/>
      <point x="511" y="499" type="curve" smooth="yes"/>
      <point x="511" y="622"/>
      <point x="416" y="707"/>
      <point x="276" y="707" type="curve" smooth="yes"/>
      <point x="143" y="707"/>
      <point x="39" y="638"/>
      <point x="12" y="526" type="curve"/>
      <point x="138" y="483" type="line"/>
      <point x="146" y="557"/>
      <point x="203" y="601"/>
      <point x="273" y="601" type="curve" smooth="yes"/>
      <point x="334" y="601"/>
      <point x="373" y="560"/>
      <point x="373" y="500" type="curve" smooth="yes"/>
      <point x="373" y="417"/>
      <point x="305" y="365"/>
      <point x="230" y="307" type="curve" smooth="yes"/>
      <point x="142" y="240"/>
      <point x="39" y="165"/>
      <point x="26" y="22" type="curve" smooth="yes"/>
    </contour>
  </outline>
</glyph>
<glyph name="three" format="2">
  <advance width="575"/>
  <unicode hex="0033"/>
  <outline>
    <contour>
      <point x="279" y="-15" type="curve" smooth="yes"/>
      <point x="434" y="-15"/>
      <point x="540" y="69"/>
      <point x="540" y="195" type="curve" smooth="yes"/>
      <point x="540" y="288"/>
      <point x="481" y="357"/>
      <point x="389" y="370" type="curve"/>
      <point x="389" y="363" type="line"/>
      <point x="467" y="381"/>
      <point x="514" y="443"/>
      <point x="514" y="519" type="curve" smooth="yes"/>
      <point x="514" y="631"/>
      <point x="419" y="707"/>
      <point x="281" y="707" type="curve" smooth="yes"/>
      <point x="147" y="707"/>
      <point x="49" y="636"/>
      <point x="37" y="543" type="curve"/>
      <point x="162" y="502" type="line"/>
      <point x="171" y="567"/>
      <point x="216" y="608"/>
      <point x="277" y="608" type="curve" smooth="yes"/>
      <point x="338" y="608"/>
      <point x="376" y="570"/>
      <point x="376" y="510" type="curve" smooth="yes"/>
      <point x="376" y="447"/>
      <point x="336" y="407"/>
      <point x="274" y="407" type="curve" smooth="yes"/>
      <point x="204" y="407" type="line"/>
      <point x="204" y="322" type="line"/>
      <point x="281" y="322" type="line" smooth="yes"/>
      <point x="354" y="322"/>
      <point x="400" y="275"/>
      <point x="400" y="203" type="curve" smooth="yes"/>
      <point x="400" y="131"/>
      <point x="354" y="86"/>
      <point x="281" y="86" type="curve" smooth="yes"/>
      <point x="210" y="86"/>
      <point x="161" y="133"/>
      <point x="155" y="208" type="curve"/>
      <point x="17" y="179" type="line"/>
      <point x="28" y="63"/>
      <point x="132" y="-15"/>
    </contour>
  </outline>
</glyph>
<glyph name="four" format="2">
  <advance width="581"/>
  <unicode hex="0034"/>
  <outline>
    <contour>
      <point x="344" y="0" type="line"/>
      <point x="480" y="0" type="line"/>
      <point x="480" y="692" type="line"/>
      <point x="359" y="692" type="line"/>
      <point x="13" y="246" type="line"/>
      <point x="13" y="149" type="line"/>
      <point x="569" y="149" type="line"/>
      <point x="569" y="257" type="line"/>
      <point x="127" y="257" type="line"/>
      <point x="133" y="246" type="line"/>
      <point x="355" y="537" type="line"/>
      <point x="344" y="540" type="line"/>
    </contour>
  </outline>
</glyph>
<glyph name="five" format="2">
  <advance width="585"/>
  <unicode hex="0035"/>
  <outline>
    <contour>
      <point x="301" y="-15" type="curve" smooth="yes"/>
      <point x="453" y="-15"/>
      <point x="559" y="76"/>
      <point x="559" y="227" type="curve" smooth="yes"/>
      <point x="559" y="366"/>
      <point x="461" y="458"/>
      <point x="324" y="458" type="curve" smooth="yes"/>
      <point x="231" y="458"/>
      <point x="159" y="420"/>
      <point x="136" y="361" type="curve"/>
      <point x="177" y="361" type="line"/>
      <point x="210" y="586" type="line"/>
      <point x="519" y="586" type="line"/>
      <point x="519" y="693" type="line"/>
      <point x="104" y="693" type="line"/>
      <point x="56" y="313" type="line"/>
      <point x="170" y="287" type="line"/>
      <point x="191" y="325"/>
      <point x="235" y="350"/>
      <point x="296" y="350" type="curve" smooth="yes"/>
      <point x="370" y="350"/>
      <point x="419" y="300"/>
      <point x="419" y="223" type="curve" smooth="yes"/>
      <point x="419" y="150"/>
      <point x="379" y="97"/>
      <point x="296" y="97" type="curve" smooth="yes"/>
      <point x="231" y="97"/>
      <point x="184" y="136"/>
      <point x="177" y="195" type="curve"/>
      <point x="43" y="177" type="line"/>
      <point x="58" y="63"/>
      <point x="159" y="-15"/>
    </contour>
  </outline>
</glyph>
<glyph name="six" format="2">
  <advance width="610"/>
  <unicode hex="0036"/>
  <outline>
    <contour>
      <point x="327" y="-15" type="curve" smooth="yes"/>
      <point x="477" y="-9"/>
      <point x="579" y="87"/>
      <point x="579" y="222" type="curve" smooth="yes"/>
      <point x="579" y="362"/>
      <point x="480" y="451"/>
      <point x="336" y="451" type="curve" smooth="yes"/>
      <point x="233" y="451"/>
      <point x="151" y="405"/>
      <point x="132" y="333" type="curve"/>
      <point x="158" y="334" type="line"/>
      <point x="154" y="489"/>
      <point x="213" y="601"/>
      <point x="326" y="601" type="curve" smooth="yes"/>
      <point x="385" y="601"/>
      <point x="428" y="569"/>
      <point x="443" y="511" type="curve"/>
      <point x="556" y="555" type="line"/>
      <point x="528" y="645"/>
      <point x="436" y="704"/>
      <point x="328" y="704" type="curve" smooth="yes"/>
      <point x="153" y="704"/>
      <point x="38" y="562"/>
      <point x="38" y="343" type="curve" smooth="yes"/>
      <point x="35" y="139"/>
      <point x="123" y="-20"/>
    </contour>
    <contour>
      <point x="314" y="80" type="curve" smooth="yes"/>
      <point x="237" y="80"/>
      <point x="186" y="137"/>
      <point x="186" y="223" type="curve" smooth="yes"/>
      <point x="186" y="306"/>
      <point x="237" y="358"/>
      <point x="315" y="358" type="curve" smooth="yes"/>
      <point x="390" y="358"/>
      <point x="442" y="303"/>
      <point x="442" y="219" type="curve" smooth="yes"/>
      <point x="442" y="137"/>
      <point x="391" y="80"/>
    </contour>
  </outline>
</glyph>
<glyph name="seven" format="2">
  <advance width="527"/>
  <unicode hex="0037"/>
  <outline>
    <contour>
      <point x="128" y="0" type="curve"/>
      <point x="269" y="0" type="line"/>
      <point x="288" y="257"/>
      <point x="373" y="469"/>
      <point x="518" y="607" type="curve"/>
      <point x="518" y="693" type="line"/>
      <point x="7" y="693" type="line"/>
      <point x="7" y="585" type="line"/>
      <point x="362" y="585" type="line"/>
      <point x="358" y="593" type="line"/>
      <point x="232" y="447"/>
      <point x="142" y="220"/>
    </contour>
  </outline>
</glyph>
<glyph name="eight" format="2">
  <advance width="628"/>
  <unicode hex="0038"/>
  <outline>
    <contour>
      <point x="314" y="-13" type="curve" smooth="yes"/>
      <point x="479" y="-13"/>
      <point x="593" y="71"/>
      <point x="593" y="193" type="curve" smooth="yes"/>
      <point x="593" y="275"/>
      <point x="545" y="344"/>
      <point x="464" y="378" type="curve"/>
      <point x="464" y="370" type="line"/>
      <point x="531" y="396"/>
      <point x="567" y="450"/>
      <point x="567" y="517" type="curve" smooth="yes"/>
      <point x="567" y="630"/>
      <point x="465" y="707"/>
      <point x="314" y="707" type="curve" smooth="yes"/>
      <point x="163" y="707"/>
      <point x="61" y="630"/>
      <point x="61" y="517" type="curve" smooth="yes"/>
      <point x="61" y="450"/>
      <point x="99" y="396"/>
      <point x="166" y="370" type="curve"/>
      <point x="166" y="378" type="line"/>
      <point x="84" y="344"/>
      <point x="35" y="275"/>
      <point x="35" y="193" type="curve" smooth="yes"/>
      <point x="35" y="71"/>
      <point x="148" y="-13"/>
    </contour>
    <contour>
      <point x="314" y="91" type="curve" smooth="yes"/>
      <point x="230" y="91"/>
      <point x="176" y="138"/>
      <point x="176" y="211" type="curve" smooth="yes"/>
      <point x="176" y="285"/>
      <point x="230" y="331"/>
      <point x="314" y="331" type="curve" smooth="yes"/>
      <point x="398" y="331"/>
      <point x="452" y="285"/>
      <point x="452" y="211" type="curve" smooth="yes"/>
      <point x="452" y="138"/>
      <point x="398" y="91"/>
    </contour>
    <contour>
      <point x="314" y="413" type="curve" smooth="yes"/>
      <point x="240" y="413"/>
      <point x="193" y="450"/>
      <point x="193" y="509" type="curve" smooth="yes"/>
      <point x="193" y="567"/>
      <point x="240" y="605"/>
      <point x="314" y="605" type="curve" smooth="yes"/>
      <point x="387" y="605"/>
      <point x="435" y="567"/>
      <point x="435" y="509" type="curve" smooth="yes"/>
      <point x="435" y="450"/>
      <point x="387" y="413"/>
    </contour>
  </outline>
</glyph>
<glyph name="nine" format="2">
  <advance width="606"/>
  <unicode hex="0039"/>
  <outline>
    <contour>
      <point x="280" y="-16" type="curve" smooth="yes"/>
      <point x="461" y="-16"/>
      <point x="568" y="131"/>
      <point x="568" y="344" type="curve" smooth="yes"/>
      <point x="568" y="541"/>
      <point x="484" y="703"/>
      <point x="287" y="703" type="curve" smooth="yes"/>
      <point x="130" y="703"/>
      <point x="28" y="605"/>
      <point x="28" y="472" type="curve" smooth="yes"/>
      <point x="28" y="335"/>
      <point x="126" y="251"/>
      <point x="259" y="251" type="curve" smooth="yes"/>
      <point x="356" y="251"/>
      <point x="419" y="284"/>
      <point x="452" y="341" type="curve"/>
      <point x="444" y="341" type="line"/>
      <point x="444" y="195"/>
      <point x="394" y="87"/>
      <point x="283" y="87" type="curve" smooth="yes"/>
      <point x="218" y="87"/>
      <point x="168" y="118"/>
      <point x="150" y="176" type="curve"/>
      <point x="37" y="131" type="line"/>
      <point x="68" y="42"/>
      <point x="166" y="-16"/>
    </contour>
    <contour>
      <point x="285" y="345" type="curve" smooth="yes"/>
      <point x="210" y="345"/>
      <point x="160" y="395"/>
      <point x="160" y="479" type="curve" smooth="yes"/>
      <point x="160" y="553"/>
      <point x="211" y="608"/>
      <point x="291" y="608" type="curve" smooth="yes"/>
      <point x="365" y="608"/>
      <point x="416" y="551"/>
      <point x="416" y="474" type="curve" smooth="yes"/>
      <point x="416" y="392"/>
      <point x="364" y="345"/>
    </contour>
  </outline>
</glyph>
<glyph name="equal" format="2">
  <advance width="566"/>
  <unicode hex="003D"/>
  <outline>
    <contour>
      <point x="50" y="142" type="line"/>
      <point x="516" y="142" type="line"/>
      <point x="516" y="252" type="line"/>
      <point x="50" y="252" type="line"/>
    </contour>
    <contour>
      <point x="50" y="319" type="line"/>
      <point x="516" y="319" type="line"/>
      <point x="516" y="429" type="line"/>
      <point x="50" y="429" type="line"/>
    </contour>
  </outline>
</glyph>
<glyph name="greater" format="2">
  <advance width="574"/>
  <unicode hex="003E"/>
  <outline>
    <contour>
      <point x="52" y="-6" type="line"/>
      <point x="516" y="220" type="line"/>
      <point x="516" y="346" type="line"/>
      <point x="52" y="574" type="line"/>
      <point x="52" y="444" type="line"/>
      <point x="434" y="264" type="line"/>
      <point x="434" y="304" type="line"/>
      <point x="52" y="128" type="line"/>
    </contour>
  </outline>
</glyph>
<glyph name="question" format="2">
  <advance width="487"/>
  <unicode hex="003F"/>
  <outline>
    <contour>
      <point x="179" y="220" type="line"/>
      <point x="307" y="220" type="line"/>
      <point x="307" y="223" type="line" smooth="yes"/>
      <point x="307" y="361"/>
      <point x="476" y="365"/>
      <point x="477" y="514" type="curve" smooth="yes"/>
      <point x="480" y="628"/>
      <point x="388" y="707"/>
      <point x="249" y="707" type="curve" smooth="yes"/>
      <point x="127" y="707"/>
      <point x="29" y="640"/>
      <point x="5" y="532" type="curve"/>
      <point x="127" y="490" type="line"/>
      <point x="136" y="559"/>
      <point x="181" y="603"/>
      <point x="243" y="603" type="curve" smooth="yes"/>
      <point x="304" y="603"/>
      <point x="342" y="565"/>
      <point x="340" y="507" type="curve" smooth="yes"/>
      <point x="340" y="399"/>
      <point x="194" y="409"/>
      <point x="180" y="242" type="curve" smooth="yes"/>
    </contour>
    <component base="period" xOffset="132"/>
  </outline>
</glyph>
<glyph name="at" format="2">
  <advance width="1047"/>
  <unicode hex="0040"/>
  <outline>
    <contour>
      <point x="524" y="-215" type="curve" smooth="yes"/>
      <point x="654" y="-215"/>
      <point x="767" y="-180"/>
      <point x="828" y="-130" type="curve"/>
      <point x="766" y="-31" type="line"/>
      <point x="714" y="-70"/>
      <point x="623" y="-96"/>
      <point x="521" y="-96" type="curve" smooth="yes"/>
      <point x="316" y="-96"/>
      <point x="185" y="37"/>
      <point x="185" y="250" type="curve" smooth="yes"/>
      <point x="185" y="468"/>
      <point x="315" y="601"/>
      <point x="541" y="601" type="curve" smooth="yes"/>
      <point x="732" y="601"/>
      <point x="865" y="510"/>
      <point x="865" y="308" type="curve" smooth="yes"/>
      <point x="865" y="190"/>
      <point x="838" y="120"/>
      <point x="756" y="120" type="curve" smooth="yes"/>
      <point x="713" y="120"/>
      <point x="697" y="143"/>
      <point x="707" y="191" type="curve" smooth="yes"/>
      <point x="770" y="484" type="line"/>
      <point x="641" y="484" type="line"/>
      <point x="608" y="328" type="line"/>
      <point x="644" y="328" type="line"/>
      <point x="661" y="421"/>
      <point x="593" y="490"/>
      <point x="525" y="492" type="curve" smooth="yes"/>
      <point x="401" y="495"/>
      <point x="280" y="357"/>
      <point x="280" y="198" type="curve" smooth="yes"/>
      <point x="280" y="86"/>
      <point x="346" y="19"/>
      <point x="442" y="19" type="curve" smooth="yes"/>
      <point x="527" y="19"/>
      <point x="604" y="76"/>
      <point x="624" y="160" type="curve"/>
      <point x="593" y="169" type="line"/>
      <point x="578" y="79"/>
      <point x="635" y="6"/>
      <point x="735" y="6" type="curve" smooth="yes"/>
      <point x="898" y="6"/>
      <point x="992" y="134"/>
      <point x="992" y="312" type="curve" smooth="yes"/>
      <point x="992" y="556"/>
      <point x="806" y="718"/>
      <point x="539" y="718" type="curve" smooth="yes"/>
      <point x="250" y="718"/>
      <point x="55" y="527"/>
      <point x="55" y="247" type="curve" smooth="yes"/>
      <point x="55" y="-27"/>
      <point x="245" y="-215"/>
    </contour>
    <contour>
      <point x="473" y="131" type="curve" smooth="yes"/>
      <point x="431" y="131"/>
      <point x="414" y="151"/>
      <point x="414" y="206" type="curve" smooth="yes"/>
      <point x="414" y="304"/>
      <point x="470" y="381"/>
      <point x="539" y="381" type="curve" smooth="yes"/>
      <point x="581" y="381"/>
      <point x="601" y="360"/>
      <point x="601" y="306" type="curve" smooth="yes"/>
      <point x="601" y="207"/>
      <point x="544" y="131"/>
    </contour>
  </outline>
</glyph>
<glyph name="A" format="2">
  <advance width="660"/>
  <unicode hex="0041"/>
  <anchor x="646" y="8" name="ogonek"/>
  <anchor x="328" y="692" name="top"/>
  <outline>
    <contour>
      <point x="4" y="0" type="line"/>
      <point x="144" y="0" type="line"/>
      <point x="328" y="552" type="line"/>
      <point x="320" y="552" type="line"/>
      <point x="500" y="0" type="line"/>
      <point x="654" y="0" type="line"/>
      <point x="406" y="692" type="line"/>
      <point x="252" y="692" type="line"/>
    </contour>
    <contour>
      <point x="188" y="166" type="line"/>
      <point x="454" y="166" type="line"/>
      <point x="454" y="268" type="line"/>
      <point x="188" y="268" type="line"/>
    </contour>
  </outline>
</glyph>
<glyph name="B" format="2">
  <advance width="642"/>
  <unicode hex="0042"/>
  <outline>
    <contour>
      <point x="72" y="0" type="line"/>
      <point x="394" y="0" type="line" smooth="yes"/>
      <point x="522" y="0"/>
      <point x="610" y="76"/>
      <point x="610" y="190" type="curve" smooth="yes"/>
      <point x="610" y="298"/>
      <point x="533" y="368"/>
      <point x="417" y="368" type="curve"/>
      <point x="417" y="361" type="line"/>
      <point x="517" y="367"/>
      <point x="582" y="430"/>
      <point x="582" y="522" type="curve" smooth="yes"/>
      <point x="582" y="626"/>
      <point x="500" y="692"/>
      <point x="382" y="692" type="curve" smooth="yes"/>
      <point x="72" y="692" type="line"/>
    </contour>
    <contour>
      <point x="214" y="100" type="line"/>
      <point x="214" y="594" type="line"/>
      <point x="206" y="586" type="line"/>
      <point x="350" y="586" type="line" smooth="yes"/>
      <point x="403" y="586"/>
      <point x="436" y="552"/>
      <point x="436" y="498" type="curve" smooth="yes"/>
      <point x="436" y="443"/>
      <point x="403" y="408"/>
      <point x="350" y="408" type="curve" smooth="yes"/>
      <point x="206" y="408" type="line"/>
      <point x="206" y="304" type="line"/>
      <point x="364" y="304" type="line" smooth="yes"/>
      <point x="421" y="304"/>
      <point x="458" y="266"/>
      <point x="458" y="206" type="curve" smooth="yes"/>
      <point x="458" y="146"/>
      <point x="421" y="108"/>
      <point x="362" y="108" type="curve" smooth="yes"/>
      <point x="206" y="108" type="line"/>
    </contour>
  </outline>
</glyph>
<glyph name="C" format="2">
  <advance width="676"/>
  <unicode hex="0043"/>
  <anchor x="364" y="0" name="bottom"/>
  <anchor x="352" y="692" name="top"/>
  <outline>
    <contour>
      <point x="352" y="-14" type="curve" smooth="yes"/>
      <point x="510" y="-14"/>
      <point x="631" y="84"/>
      <point x="654" y="238" type="curve"/>
      <point x="508" y="276" type="line"/>
      <point x="498" y="166"/>
      <point x="438" y="96"/>
      <point x="352" y="96" type="curve" smooth="yes"/>
      <point x="249" y="96"/>
      <point x="184" y="194"/>
      <point x="184" y="348" type="curve" smooth="yes"/>
      <point x="184" y="501"/>
      <point x="249" y="598"/>
      <point x="352" y="598" type="curve" smooth="yes"/>
      <point x="431" y="598"/>
      <point x="488" y="540"/>
      <point x="500" y="448" type="curve"/>
      <point x="642" y="488" type="line"/>
      <point x="612" y="621"/>
      <point x="499" y="706"/>
      <point x="352" y="706" type="curve" smooth="yes"/>
      <point x="162" y="706"/>
      <point x="32" y="562"/>
      <point x="32" y="350" type="curve" smooth="yes"/>
      <point x="32" y="134"/>
      <point x="162" y="-14"/>
    </contour>
  </outline>
</glyph>
<glyph name="D" format="2">
  <advance width="692"/>
  <unicode hex="0044"/>
  <anchor x="346" y="0" name="bottom"/>
  <anchor x="173" y="346" name="center"/>
  <anchor x="326" y="692" name="top"/>
  <outline>
    <contour>
      <point x="72" y="0" type="line"/>
      <point x="332" y="0" type="line" smooth="yes"/>
      <point x="527" y="0"/>
      <point x="660" y="141"/>
      <point x="660" y="348" type="curve" smooth="yes"/>
      <point x="660" y="552"/>
      <point x="529" y="692"/>
      <point x="336" y="692" type="curve" smooth="yes"/>
      <point x="72" y="692" type="line"/>
    </contour>
    <contour>
      <point x="214" y="102" type="line"/>
      <point x="214" y="592" type="line"/>
      <point x="206" y="584" type="line"/>
      <point x="326" y="584" type="line" smooth="yes"/>
      <point x="437" y="584"/>
      <point x="508" y="492"/>
      <point x="508" y="348" type="curve" smooth="yes"/>
      <point x="508" y="202"/>
      <point x="437" y="110"/>
      <point x="324" y="110" type="curve" smooth="yes"/>
      <point x="206" y="110" type="line"/>
    </contour>
  </outline>
</glyph>
<glyph name="E" format="2">
  <advance width="592"/>
  <unicode hex="0045"/>
  <anchor x="546" y="8" name="ogonek"/>
  <anchor x="312" y="692" name="top"/>
  <outline>
    <contour>
      <point x="72" y="0" type="line"/>
      <point x="554" y="0" type="line"/>
      <point x="554" y="108" type="line"/>
      <point x="208" y="108" type="line"/>
      <point x="216" y="100" type="line"/>
      <point x="216" y="593" type="line"/>
      <point x="208" y="585" type="line"/>
      <point x="548" y="585" type="line"/>
      <point x="548" y="692" type="line"/>
      <point x="72" y="692" type="line"/>
    </contour>
    <contour>
      <point x="208" y="303" type="line"/>
      <point x="518" y="303" type="line"/>
      <point x="518" y="409" type="line"/>
      <point x="208" y="409" type="line"/>
    </contour>
  </outline>
</glyph>
<glyph name="F" format="2">
  <advance width="556"/>
  <unicode hex="0046"/>
  <outline>
    <contour>
      <point x="72" y="0" type="line"/>
      <point x="216" y="0" type="line"/>
      <point x="216" y="592" type="line"/>
      <point x="208" y="584" type="line"/>
      <point x="542" y="584" type="line"/>
      <point x="542" y="692" type="line"/>
      <point x="72" y="692" type="line"/>
    </contour>
    <contour>
      <point x="208" y="296" type="line"/>
      <point x="490" y="296" type="line"/>
      <point x="490" y="404" type="line"/>
      <point x="208" y="404" type="line"/>
    </contour>
  </outline>
</glyph>
<glyph name="H" format="2">
  <advance width="708"/>
  <unicode hex="0048"/>
  <anchor x="354" y="0" name="bottom"/>
  <anchor x="354" y="519" name="center"/>
  <anchor x="354" y="692" name="top"/>
  <anchor x="20" y="692" name="topleft"/>
  <outline>
    <contour>
      <point x="492" y="0" type="line"/>
      <point x="636" y="0" type="line"/>
      <point x="636" y="692" type="line"/>
      <point x="492" y="692" type="line"/>
    </contour>
    <contour>
      <point x="72" y="0" type="line"/>
      <point x="216" y="0" type="line"/>
      <point x="216" y="692" type="line"/>
      <point x="72" y="692" type="line"/>
    </contour>
    <contour>
      <point x="208" y="306" type="line"/>
      <point x="500" y="306" type="line"/>
      <point x="500" y="414" type="line"/>
      <point x="208" y="414" type="line"/>
    </contour>
  </outline>
</glyph>
<glyph name="I" format="2">
  <advance width="286"/>
  <unicode hex="0049"/>
  <anchor x="206" y="8" name="ogonek"/>
  <anchor x="143" y="692" name="top"/>
  <outline>
    <contour>
      <point x="72" y="0" type="line"/>
      <point x="214" y="0" type="line"/>
      <point x="214" y="692" type="line"/>
      <point x="72" y="692" type="line"/>
    </contour>
  </outline>
</glyph>
<glyph name="J" format="2">
  <advance width="548"/>
  <unicode hex="004A"/>
  <anchor x="274" y="0" name="bottom"/>
  <anchor x="414" y="692" name="top"/>
  <outline>
    <contour>
      <point x="252" y="-14" type="curve" smooth="yes"/>
      <point x="396" y="-14"/>
      <point x="486" y="72"/>
      <point x="486" y="208" type="curve" smooth="yes"/>
      <point x="486" y="692" type="line"/>
      <point x="342" y="692" type="line"/>
      <point x="342" y="212" type="line" smooth="yes"/>
      <point x="342" y="142"/>
      <point x="308" y="102"/>
      <point x="250" y="102" type="curve" smooth="yes"/>
      <point x="180" y="102"/>
      <point x="144" y="160"/>
      <point x="152" y="260" type="curve"/>
      <point x="16" y="228" type="line"/>
      <point x="12" y="76"/>
      <point x="104" y="-14"/>
    </contour>
  </outline>
</glyph>
<glyph name="K" format="2">
  <advance width="672"/>
  <unicode hex="004B"/>
  <anchor x="363" y="0" name="bottom"/>
  <anchor x="348" y="692" name="top"/>
  <outline>
    <contour>
      <point x="72" y="0" type="line"/>
      <point x="216" y="0" type="line"/>
      <point x="216" y="232" type="line"/>
      <point x="208" y="208" type="line"/>
      <point x="648" y="692" type="line"/>
      <point x="486" y="692" type="line"/>
      <point x="208" y="372" type="line"/>
      <point x="216" y="372" type="line"/>
      <point x="216" y="692" type="line"/>
      <point x="72" y="692" type="line"/>
    </contour>
    <contour>
      <point x="496" y="0" type="line"/>
      <point x="672" y="0" type="line"/>
      <point x="381" y="413" type="line"/>
      <point x="286" y="309" type="line"/>
    </contour>
  </outline>
</glyph>
<glyph name="L" format="2">
  <advance width="539"/>
  <unicode hex="004C"/>
  <anchor x="312" y="0" name="bottom"/>
  <anchor x="164" y="692" name="top"/>
  <anchor x="244" y="544" name="topright"/>
  <outline>
    <contour>
      <point x="72" y="0" type="line"/>
      <point x="216" y="0" type="line"/>
      <point x="216" y="692" type="line"/>
      <point x="72" y="692" type="line"/>
    </contour>
    <contour>
      <point x="208" y="0" type="line"/>
      <point x="524" y="0" type="line"/>
      <point x="524" y="114" type="line"/>
      <point x="208" y="114" type="line"/>
    </contour>
  </outline>
</glyph>
<glyph name="M" format="2">
  <advance width="864"/>
  <unicode hex="004D"/>
  <outline>
    <contour>
      <point x="72" y="0" type="line"/>
      <point x="194" y="0" type="line"/>
      <point x="194" y="532" type="line"/>
      <point x="186" y="532" type="line"/>
      <point x="380" y="0" type="line"/>
      <point x="476" y="0" type="line"/>
      <point x="664" y="532" type="line"/>
      <point x="656" y="532" type="line"/>
      <point x="656" y="0" type="line"/>
      <point x="792" y="0" type="line"/>
      <point x="792" y="692" type="line"/>
      <point x="610" y="692" type="line"/>
      <point x="436" y="200" type="line"/>
      <point x="444" y="200" type="line"/>
      <point x="266" y="692" type="line"/>
      <point x="72" y="692" type="line"/>
    </contour>
  </outline>
</glyph>
<glyph name="N" format="2">
  <advance width="716"/>
  <unicode hex="004E"/>
  <anchor x="366" y="0" name="bottom"/>
  <anchor x="358" y="692" name="top"/>
  <outline>
    <contour>
      <point x="72" y="0" type="line"/>
      <point x="202" y="0" type="line"/>
      <point x="202" y="508" type="line"/>
      <point x="194" y="508" type="line"/>
      <point x="492" y="0" type="line"/>
      <point x="644" y="0" type="line"/>
      <point x="644" y="692" type="line"/>
      <point x="514" y="692" type="line"/>
      <point x="514" y="204" type="line"/>
      <point x="522" y="204" type="line"/>
      <point x="236" y="692" type="line"/>
      <point x="72" y="692" type="line"/>
    </contour>
  </outline>
</glyph>
<glyph name="O" format="2">
  <advance width="718"/>
  <unicode hex="004F"/>
  <anchor x="359" y="346" name="center"/>
  <anchor x="359" y="692" name="top"/>
  <outline>
    <contour>
      <point x="359" y="-14" type="curve" smooth="yes"/>
      <point x="555" y="-14"/>
      <point x="686" y="130"/>
      <point x="686" y="346" type="curve" smooth="yes"/>
      <point x="686" y="562"/>
      <point x="555" y="706"/>
      <point x="359" y="706" type="curve" smooth="yes"/>
      <point x="163" y="706"/>
      <point x="32" y="562"/>
      <point x="32" y="346" type="curve" smooth="yes"/>
      <point x="32" y="130"/>
      <point x="163" y="-14"/>
    </contour>
    <contour>
      <point x="359" y="96" type="curve" smooth="yes"/>
      <point x="252" y="96"/>
      <point x="184" y="194"/>
      <point x="184" y="347" type="curve" smooth="yes"/>
      <point x="184" y="500"/>
      <point x="252" y="598"/>
      <point x="359" y="598" type="curve" smooth="yes"/>
      <point x="466" y="598"/>
      <point x="534" y="500"/>
      <point x="534" y="347" type="curve" smooth="yes"/>
      <point x="534" y="194"/>
      <point x="466" y="96"/>
    </contour>
  </outline>
</glyph>
<glyph name="P" format="2">
  <advance width="612"/>
  <unicode hex="0050"/>
  <outline>
    <contour>
      <point x="72" y="0" type="line"/>
      <point x="216" y="0" type="line"/>
      <point x="216" y="592" type="line"/>
      <point x="208" y="584" type="line"/>
      <point x="336" y="584" type="line" smooth="yes"/>
      <point x="403" y="584"/>
      <point x="442" y="546"/>
      <point x="442" y="482" type="curve" smooth="yes"/>
      <point x="442" y="417"/>
      <point x="402" y="378"/>
      <point x="334" y="378" type="curve" smooth="yes"/>
      <point x="208" y="378" type="line"/>
      <point x="208" y="270" type="line"/>
      <point x="340" y="270" type="line" smooth="yes"/>
      <point x="494" y="270"/>
      <point x="592" y="353"/>
      <point x="592" y="484" type="curve" smooth="yes"/>
      <point x="592" y="611"/>
      <point x="496" y="692"/>
      <point x="344" y="692" type="curve" smooth="yes"/>
      <point x="72" y="692" type="line"/>
    </contour>
  </outline>
</glyph>
<glyph name="R" format="2">
  <advance width="672"/>
  <unicode hex="0052"/>
  <anchor x="366" y="0" name="bottom"/>
  <anchor x="334" y="692" name="top"/>
  <outline>
    <contour>
      <point x="72" y="0" type="line"/>
      <point x="216" y="0" type="line"/>
      <point x="216" y="593" type="line"/>
      <point x="208" y="585" type="line"/>
      <point x="351" y="585" type="line" smooth="yes"/>
      <point x="414" y="585"/>
      <point x="452" y="551"/>
      <point x="452" y="494" type="curve" smooth="yes"/>
      <point x="452" y="435"/>
      <point x="414" y="400"/>
      <point x="350" y="400" type="curve" smooth="yes"/>
      <point x="208" y="400" type="line"/>
      <point x="208" y="294" type="line"/>
      <point x="324" y="294" type="line" smooth="yes"/>
      <point x="365" y="294"/>
      <point x="398" y="271"/>
      <point x="410" y="236" type="curve" smooth="yes"/>
      <point x="488" y="0" type="line"/>
      <point x="660" y="0" type="line"/>
      <point x="540" y="272" type="line" smooth="yes"/>
      <point x="525" y="306"/>
      <point x="494" y="328"/>
      <point x="460" y="328" type="curve"/>
      <point x="460" y="321" type="line"/>
      <point x="548" y="339"/>
      <point x="602" y="409"/>
      <point x="602" y="500" type="curve" smooth="yes"/>
      <point x="602" y="617"/>
      <point x="514" y="692"/>
      <point x="376" y="692" type="curve" smooth="yes"/>
      <point x="72" y="692" type="line"/>
    </contour>
  </outline>
</glyph>
<glyph name="S" format="2">
  <advance width="634"/>
  <unicode hex="0053"/>
  <note>
Falls to the right
</note>
  <anchor x="320" y="0" name="bottom"/>
  <anchor x="320" y="692" name="top"/>
  <outline>
    <contour>
      <point x="329" y="-14" type="curve" smooth="yes"/>
      <point x="494" y="-14"/>
      <point x="599" y="59"/>
      <point x="599" y="193" type="curve" smooth="yes"/>
      <point x="599" y="486"/>
      <point x="200" y="346"/>
      <point x="200" y="515" type="curve" smooth="yes"/>
      <point x="200" y="570"/>
      <point x="243" y="605"/>
      <point x="317" y="605" type="curve" smooth="yes"/>
      <point x="389" y="605"/>
      <point x="441" y="569"/>
      <point x="447" y="506" type="curve"/>
      <point x="587" y="556" type="line"/>
      <point x="552" y="652"/>
      <point x="451" y="706"/>
      <point x="323" y="706" type="curve" smooth="yes"/>
      <point x="163" y="706"/>
      <point x="58" y="635"/>
      <point x="58" y="505" type="curve" smooth="yes"/>
      <point x="58" y="228"/>
      <point x="456" y="367"/>
      <point x="456" y="186" type="curve" smooth="yes"/>
      <point x="456" y="124"/>
      <point x="410" y="87"/>
      <point x="331" y="87" type="curve" smooth="yes"/>
      <point x="250" y="87"/>
      <point x="194" y="132"/>
      <point x="178" y="214" type="curve"/>
      <point x="42" y="164" type="line"/>
      <point x="74" y="52"/>
      <point x="180" y="-14"/>
    </contour>
  </outline>
</glyph>
<glyph name="T" format="2">
  <advance width="566"/>
  <unicode hex="0054"/>
  <anchor x="283" y="0" name="bottom"/>
  <anchor x="283" y="364" name="center"/>
  <anchor x="283" y="692" name="top"/>
  <outline>
    <contour>
      <point x="211" y="0" type="line"/>
      <point x="355" y="0" type="line"/>
      <point x="355" y="592" type="line"/>
      <point x="211" y="592" type="line"/>
    </contour>
    <contour>
      <point x="6" y="584" type="line"/>
      <point x="560" y="584" type="line"/>
      <point x="560" y="692" type="line"/>
      <point x="6" y="692" type="line"/>
    </contour>
  </outline>
</glyph>
<glyph name="U" format="2">
  <advance width="684"/>
  <unicode hex="0055"/>
  <anchor x="448" y="8" name="ogonek"/>
  <anchor x="343" y="692" name="top"/>
  <outline>
    <contour>
      <point x="342" y="-14" type="curve" smooth="yes"/>
      <point x="514" y="-14"/>
      <point x="624" y="91"/>
      <point x="624" y="256" type="curve" smooth="yes"/>
      <point x="624" y="692" type="line"/>
      <point x="490" y="692" type="line"/>
      <point x="490" y="252" type="line" smooth="yes"/>
      <point x="490" y="159"/>
      <point x="437" y="104"/>
      <point x="347" y="104" type="curve" smooth="yes"/>
      <point x="257" y="104"/>
      <point x="204" y="159"/>
      <point x="204" y="252" type="curve" smooth="yes"/>
      <point x="204" y="692" type="line"/>
      <point x="60" y="692" type="line"/>
      <point x="60" y="256" type="line" smooth="yes"/>
      <point x="60" y="91"/>
      <point x="170" y="-14"/>
    </contour>
  </outline>
</glyph>
<glyph name="V" format="2">
  <advance width="640"/>
  <unicode hex="0056"/>
  <outline>
    <contour>
      <point x="244" y="0" type="line"/>
      <point x="400" y="0" type="line"/>
      <point x="634" y="692" type="line"/>
      <point x="493" y="692" type="line"/>
      <point x="321" y="160" type="line"/>
      <point x="334" y="160" type="line"/>
      <point x="156" y="692" type="line"/>
      <point x="6" y="692" type="line"/>
    </contour>
  </outline>
</glyph>
<glyph name="W" format="2">
  <advance width="909"/>
  <unicode hex="0057"/>
  <anchor x="455" y="0" name="bottom"/>
  <anchor x="455" y="692" name="top"/>
  <outline>
    <contour>
      <point x="188" y="0" type="line"/>
      <point x="344" y="0" type="line"/>
      <point x="462" y="524" type="line"/>
      <point x="454" y="524" type="line"/>
      <point x="574" y="0" type="line"/>
      <point x="730" y="0" type="line"/>
      <point x="905" y="692" type="line"/>
      <point x="776" y="692" type="line"/>
      <point x="656" y="170" type="line"/>
      <point x="664" y="170" type="line"/>
      <point x="540" y="692" type="line"/>
      <point x="388" y="692" type="line"/>
      <point x="274" y="172" type="line"/>
      <point x="282" y="172" type="line"/>
      <point x="154" y="692" type="line"/>
      <point x="6" y="692" type="line"/>
    </contour>
  </outline>
</glyph>
<glyph name="X" format="2">
  <advance width="646"/>
  <unicode hex="0058"/>
  <outline>
    <contour>
      <point x="474" y="0" type="line"/>
      <point x="642" y="0" type="line"/>
      <point x="182" y="692" type="line"/>
      <point x="19" y="692" type="line"/>
    </contour>
    <contour>
      <point x="4" y="0" type="line"/>
      <point x="145" y="0" type="line"/>
      <point x="318" y="257" type="line"/>
      <point x="249" y="361" type="line"/>
    </contour>
    <contour>
      <point x="393" y="355" type="line"/>
      <point x="620" y="692" type="line"/>
      <point x="479" y="692" type="line"/>
      <point x="324" y="461" type="line"/>
    </contour>
  </outline>
</glyph>
<glyph name="Y" format="2">
  <advance width="610"/>
  <unicode hex="0059"/>
  <anchor x="311" y="692" name="top"/>
  <outline>
    <contour>
      <point x="238" y="0" type="line"/>
      <point x="380" y="0" type="line"/>
      <point x="380" y="272" type="line"/>
      <point x="610" y="692" type="line"/>
      <point x="474" y="692" type="line"/>
      <point x="316" y="386" type="line"/>
      <point x="324" y="386" type="line"/>
      <point x="162" y="692" type="line"/>
      <point x="0" y="692" type="line"/>
      <point x="238" y="273" type="line"/>
    </contour>
  </outline>
</glyph>
<glyph name="Z" format="2">
  <advance width="569"/>
  <unicode hex="005A"/>
  <anchor x="285" y="0" name="bottom"/>
  <anchor x="285" y="346" name="center"/>
  <anchor x="283" y="692" name="top"/>
  <outline>
    <contour>
      <point x="24" y="0" type="line"/>
      <point x="545" y="0" type="line"/>
      <point x="545" y="108" type="line"/>
      <point x="188" y="108" type="line"/>
      <point x="192" y="100" type="line"/>
      <point x="543" y="608" type="line"/>
      <point x="543" y="692" type="line"/>
      <point x="36" y="692" type="line"/>
      <point x="36" y="585" type="line"/>
      <point x="381" y="585" type="line"/>
      <point x="377" y="593" type="line"/>
      <point x="24" y="86" type="line"/>
    </contour>
  </outline>
</glyph>
<glyph name="bracketleft" format="2">
  <advance width="302"/>
  <unicode hex="005B"/>
  <outline>
    <contour>
      <point x="60" y="-218" type="line"/>
      <point x="298" y="-218" type="line"/>
      <point x="298" y="-128" type="line"/>
      <point x="184" y="-128" type="line"/>
      <point x="192" y="-136" type="line"/>
      <point x="192" y="610" type="line"/>
      <point x="184" y="603" type="line"/>
      <point x="297" y="603" type="line"/>
      <point x="297" y="692" type="line"/>
      <point x="60" y="692" type="line"/>
    </contour>
  </outline>
</glyph>
<glyph name="asciicircum" format="2">
  <advance width="550"/>
  <unicode hex="005E"/>
  <outline>
    <contour>
      <point x="30" y="260" type="line"/>
      <point x="154" y="260" type="line"/>
      <point x="308" y="644" type="line"/>
      <point x="240" y="644" type="line"/>
      <point x="394" y="260" type="line"/>
      <point x="520" y="260" type="line"/>
      <point x="324" y="724" type="line"/>
      <point x="230" y="724" type="line"/>
    </contour>
  </outline>
</glyph>
<glyph name="underscore" format="2">
  <advance width="462"/>
  <unicode hex="005F"/>
  <outline>
    <contour>
      <point x="0" y="-154" type="line"/>
      <point x="462" y="-154" type="line"/>
      <point x="462" y="-48" type="line"/>
      <point x="0" y="-48" type="line"/>
    </contour>
  </outline>
</glyph>
<glyph name="a" format="2">
  <advance width="574"/>
  <unicode hex="0061"/>
  <anchor x="512" y="8" name="ogonek"/>
  <anchor x="285" y="533" name="top"/>
  <outline>
    <contour>
      <point x="202" y="-15" type="curve" smooth="yes"/>
      <point x="301" y="-15"/>
      <point x="380" y="51"/>
      <point x="388" y="149" type="curve"/>
      <point x="380" y="149" type="line"/>
      <point x="380" y="74"/>
      <point x="384" y="33"/>
      <point x="395" y="0" type="curve"/>
      <point x="520" y="0" type="line"/>
      <point x="511" y="37"/>
      <point x="507" y="76"/>
      <point x="507" y="125" type="curve" smooth="yes"/>
      <point x="507" y="350" type="line" smooth="yes"/>
      <point x="507" y="494"/>
      <point x="400" y="556"/>
      <point x="288" y="556" type="curve" smooth="yes"/>
      <point x="162" y="556"/>
      <point x="79" y="507"/>
      <point x="42" y="413" type="curve"/>
      <point x="157" y="372" type="line"/>
      <point x="177" y="435"/>
      <point x="220" y="471"/>
      <point x="280" y="471" type="curve" smooth="yes"/>
      <point x="338" y="471"/>
      <point x="377" y="433"/>
      <point x="377" y="372" type="curve" smooth="yes"/>
      <point x="377" y="288" type="line" smooth="yes"/>
      <point x="377" y="169"/>
      <point x="325" y="80"/>
      <point x="245" y="80" type="curve" smooth="yes"/>
      <point x="198" y="80"/>
      <point x="168" y="109"/>
      <point x="168" y="154" type="curve" smooth="yes"/>
      <point x="168" y="207"/>
      <point x="209" y="245"/>
      <point x="299" y="259" type="curve" smooth="yes"/>
      <point x="384" y="272" type="line"/>
      <point x="384" y="348" type="line"/>
      <point x="265" y="331" type="line" smooth="yes"/>
      <point x="105" y="309"/>
      <point x="34" y="236"/>
      <point x="34" y="141" type="curve" smooth="yes"/>
      <point x="34" y="48"/>
      <point x="103" y="-15"/>
    </contour>
  </outline>
</glyph>
<glyph name="b" format="2">
  <advance width="606"/>
  <unicode hex="0062"/>
  <outline>
    <contour>
      <point x="357" y="-14" type="curve" smooth="yes"/>
      <point x="491" y="-14"/>
      <point x="580" y="102"/>
      <point x="580" y="273" type="curve" smooth="yes"/>
      <point x="580" y="444"/>
      <point x="490" y="556"/>
      <point x="359" y="556" type="curve" smooth="yes"/>
      <point x="271" y="556"/>
      <point x="199" y="507"/>
      <point x="182" y="430" type="curve"/>
      <point x="190" y="430" type="line"/>
      <point x="190" y="713" type="line"/>
      <point x="60" y="713" type="line"/>
      <point x="60" y="0" type="line"/>
      <point x="188" y="0" type="line"/>
      <point x="188" y="104" type="line"/>
      <point x="180" y="104" type="line"/>
      <point x="199" y="33"/>
      <point x="272" y="-14"/>
    </contour>
    <contour>
      <point x="315" y="78" type="curve" smooth="yes"/>
      <point x="238" y="78"/>
      <point x="190" y="153"/>
      <point x="190" y="272" type="curve" smooth="yes"/>
      <point x="190" y="390"/>
      <point x="239" y="465"/>
      <point x="317" y="465" type="curve" smooth="yes"/>
      <point x="394" y="465"/>
      <point x="443" y="390"/>
      <point x="443" y="272" type="curve" smooth="yes"/>
      <point x="443" y="153"/>
      <point x="393" y="78"/>
    </contour>
  </outline>
</glyph>
<glyph name="c" format="2">
  <advance width="536"/>
  <unicode hex="0063"/>
  <anchor x="279" y="0" name="bottom"/>
  <anchor x="281" y="545" name="top"/>
  <outline>
    <contour>
      <point x="283" y="-15" type="curve" smooth="yes"/>
      <point x="409" y="-15"/>
      <point x="506" y="63"/>
      <point x="521" y="175" type="curve"/>
      <point x="391" y="208" type="line"/>
      <point x="384" y="128"/>
      <point x="343" y="78"/>
      <point x="285" y="78" type="curve" smooth="yes"/>
      <point x="211" y="78"/>
      <point x="165" y="154"/>
      <point x="165" y="275" type="curve" smooth="yes"/>
      <point x="165" y="393"/>
      <point x="210" y="469"/>
      <point x="283" y="469" type="curve" smooth="yes"/>
      <point x="338" y="469"/>
      <point x="378" y="423"/>
      <point x="385" y="352" type="curve"/>
      <point x="513" y="383" type="line"/>
      <point x="492" y="488"/>
      <point x="397" y="560"/>
      <point x="281" y="560" type="curve" smooth="yes"/>
      <point x="129" y="560"/>
      <point x="26" y="444"/>
      <point x="26" y="273" type="curve" smooth="yes"/>
      <point x="26" y="101"/>
      <point x="130" y="-15"/>
    </contour>
  </outline>
</glyph>
<glyph name="d" format="2">
  <advance width="607"/>
  <unicode hex="0064"/>
  <anchor x="304" y="0" name="bottom"/>
  <anchor x="455" y="570" name="center"/>
  <anchor x="304" y="544" name="top"/>
  <anchor x="547" y="545" name="topright"/>
  <outline>
    <contour>
      <point x="249" y="-14" type="curve" smooth="yes"/>
      <point x="338" y="-14"/>
      <point x="409" y="38"/>
      <point x="426" y="115" type="curve"/>
      <point x="419" y="115" type="line"/>
      <point x="419" y="0" type="line"/>
      <point x="547" y="0" type="line"/>
      <point x="547" y="713" type="line"/>
      <point x="417" y="713" type="line"/>
      <point x="417" y="443" type="line"/>
      <point x="424" y="443" type="line"/>
      <point x="406" y="513"/>
      <point x="336" y="556"/>
      <point x="251" y="556" type="curve" smooth="yes"/>
      <point x="117" y="556"/>
      <point x="26" y="444"/>
      <point x="26" y="273" type="curve" smooth="yes"/>
      <point x="26" y="102"/>
      <point x="116" y="-14"/>
    </contour>
    <contour>
      <point x="289" y="82" type="curve" smooth="yes"/>
      <point x="212" y="82"/>
      <point x="164" y="156"/>
      <point x="164" y="274" type="curve" smooth="yes"/>
      <point x="164" y="393"/>
      <point x="213" y="467"/>
      <point x="291" y="467" type="curve" smooth="yes"/>
      <point x="368" y="467"/>
      <point x="417" y="393"/>
      <point x="417" y="274" type="curve" smooth="yes"/>
      <point x="417" y="156"/>
      <point x="367" y="82"/>
    </contour>
  </outline>
</glyph>
<glyph name="e" format="2">
  <advance width="558"/>
  <unicode hex="0065"/>
  <anchor x="378" y="11" name="ogonek"/>
  <anchor x="283" y="545" name="top"/>
  <outline>
    <contour>
      <point x="290" y="-15" type="curve" smooth="yes"/>
      <point x="407" y="-15"/>
      <point x="504" y="51"/>
      <point x="528" y="149" type="curve"/>
      <point x="411" y="190" type="line"/>
      <point x="398" y="122"/>
      <point x="353" y="78"/>
      <point x="294" y="78" type="curve" smooth="yes"/>
      <point x="214" y="78"/>
      <point x="164" y="155"/>
      <point x="164" y="277" type="curve" smooth="yes"/>
      <point x="164" y="395"/>
      <point x="211" y="471"/>
      <point x="285" y="471" type="curve" smooth="yes"/>
      <point x="349" y="471"/>
      <point x="393" y="413"/>
      <point x="393" y="322" type="curve"/>
      <point x="400" y="329" type="line"/>
      <point x="156" y="329" type="line"/>
      <point x="156" y="247" type="line"/>
      <point x="528" y="247" type="line"/>
      <point x="543" y="445"/>
      <point x="446" y="560"/>
      <point x="283" y="560" type="curve" smooth="yes"/>
      <point x="128" y="560"/>
      <point x="26" y="447"/>
      <point x="26" y="275" type="curve" smooth="yes"/>
      <point x="26" y="101"/>
      <point x="132" y="-15"/>
    </contour>
  </outline>
</glyph>
<glyph name="f" format="2">
  <advance width="345"/>
  <unicode hex="0066"/>
  <note>
Controlla curva
</note>
  <outline>
    <contour>
      <point x="84" y="0" type="line"/>
      <point x="215" y="0" type="line"/>
      <point x="215" y="577" type="line" smooth="yes"/>
      <point x="215" y="633"/>
      <point x="251" y="653"/>
      <point x="330" y="636" type="curve"/>
      <point x="345" y="726" type="line"/>
      <point x="181" y="763"/>
      <point x="84" y="707"/>
      <point x="84" y="573" type="curve" smooth="yes"/>
    </contour>
    <contour>
      <point x="10" y="461" type="line"/>
      <point x="324" y="461" type="line"/>
      <point x="324" y="545" type="line"/>
      <point x="10" y="545" type="line"/>
    </contour>
  </outline>
</glyph>
<glyph name="g" format="2">
  <advance width="595"/>
  <unicode hex="0067"/>
  <anchor x="296" y="545" name="top"/>
  <outline>
    <contour>
      <point x="292" y="-233" type="curve" smooth="yes"/>
      <point x="441" y="-233"/>
      <point x="541" y="-153"/>
      <point x="541" y="7" type="curve" smooth="yes"/>
      <point x="541" y="545" type="line"/>
      <point x="413" y="545" type="line"/>
      <point x="413" y="443" type="line"/>
      <point x="420" y="443" type="line"/>
      <point x="404" y="513"/>
      <point x="333" y="560"/>
      <point x="249" y="560" type="curve" smooth="yes"/>
      <point x="119" y="560"/>
      <point x="28" y="446"/>
      <point x="28" y="279" type="curve" smooth="yes"/>
      <point x="28" y="113"/>
      <point x="120" y="0"/>
      <point x="247" y="0" type="curve" smooth="yes"/>
      <point x="333" y="0"/>
      <point x="403" y="51"/>
      <point x="419" y="127" type="curve"/>
      <point x="411" y="127" type="line"/>
      <point x="411" y="-7" type="line" smooth="yes"/>
      <point x="411" y="-93"/>
      <point x="368" y="-141"/>
      <point x="296" y="-141" type="curve" smooth="yes"/>
      <point x="232" y="-141"/>
      <point x="184" y="-105"/>
      <point x="169" y="-45" type="curve"/>
      <point x="39" y="-93" type="line"/>
      <point x="73" y="-179"/>
      <point x="169" y="-233"/>
    </contour>
    <contour>
      <point x="287" y="93" type="curve" smooth="yes"/>
      <point x="213" y="93"/>
      <point x="166" y="166"/>
      <point x="166" y="281" type="curve" smooth="yes"/>
      <point x="166" y="396"/>
      <point x="214" y="469"/>
      <point x="289" y="469" type="curve" smooth="yes"/>
      <point x="364" y="469"/>
      <point x="411" y="396"/>
      <point x="411" y="281" type="curve" smooth="yes"/>
      <point x="411" y="166"/>
      <point x="363" y="93"/>
    </contour>
  </outline>
</glyph>
<glyph name="h" format="2">
  <advance width="593"/>
  <unicode hex="0068"/>
  <anchor x="297" y="0" name="bottom"/>
  <anchor x="148" y="570" name="center"/>
  <anchor x="297" y="712" name="top"/>
  <outline>
    <contour>
      <point x="60" y="0" type="line"/>
      <point x="190" y="0" type="line"/>
      <point x="190" y="260" type="line" smooth="yes"/>
      <point x="190" y="391"/>
      <point x="237" y="467"/>
      <point x="318" y="467" type="curve" smooth="yes"/>
      <point x="379" y="467"/>
      <point x="415" y="422"/>
      <point x="415" y="348" type="curve" smooth="yes"/>
      <point x="415" y="0" type="line"/>
      <point x="545" y="0" type="line"/>
      <point x="545" y="368" type="line" smooth="yes"/>
      <point x="545" y="486"/>
      <point x="476" y="560"/>
      <point x="368" y="560" type="curve" smooth="yes"/>
      <point x="272" y="560"/>
      <point x="199" y="499"/>
      <point x="182" y="409" type="curve"/>
      <point x="190" y="409" type="line"/>
      <point x="190" y="713" type="line"/>
      <point x="60" y="713" type="line"/>
    </contour>
  </outline>
</glyph>
<glyph name="k" format="2">
  <advance width="553"/>
  <unicode hex="006B"/>
  <anchor x="300" y="0" name="bottom"/>
  <outline>
    <contour>
      <point x="60" y="0" type="line"/>
      <point x="190" y="0" type="line"/>
      <point x="190" y="177" type="line"/>
      <point x="182" y="163" type="line"/>
      <point x="538" y="545" type="line"/>
      <point x="398" y="545" type="line"/>
      <point x="182" y="315" type="line"/>
      <point x="190" y="315" type="line"/>
      <point x="190" y="713" type="line"/>
      <point x="60" y="713" type="line"/>
    </contour>
    <contour>
      <point x="406" y="0" type="line"/>
      <point x="562" y="0" type="line"/>
      <point x="335" y="346" type="line"/>
      <point x="249" y="251" type="line"/>
    </contour>
  </outline>
</glyph>
<glyph name="l" format="2">
  <advance width="250"/>
  <unicode hex="006C"/>
  <anchor x="125" y="0" name="bottom"/>
  <anchor x="127" y="692" name="top"/>
  <anchor x="190" y="545" name="topright"/>
  <outline>
    <contour>
      <point x="60" y="0" type="line"/>
      <point x="190" y="0" type="line"/>
      <point x="190" y="713" type="line"/>
      <point x="60" y="713" type="line"/>
    </contour>
  </outline>
</glyph>
<glyph name="m" format="2">
  <advance width="857"/>
  <unicode hex="006D"/>
  <outline>
    <contour>
      <point x="54" y="0" type="line"/>
      <point x="184" y="0" type="line"/>
      <point x="184" y="305" type="line" smooth="yes"/>
      <point x="184" y="408"/>
      <point x="222" y="469"/>
      <point x="287" y="469" type="curve" smooth="yes"/>
      <point x="337" y="469"/>
      <point x="367" y="432"/>
      <point x="367" y="368" type="curve" smooth="yes"/>
      <point x="367" y="0" type="line"/>
      <point x="497" y="0" type="line"/>
      <point x="497" y="305" type="line" smooth="yes"/>
      <point x="497" y="408"/>
      <point x="535" y="469"/>
      <point x="599" y="469" type="curve" smooth="yes"/>
      <point x="650" y="469"/>
      <point x="680" y="432"/>
      <point x="680" y="368" type="curve" smooth="yes"/>
      <point x="680" y="0" type="line"/>
      <point x="809" y="0" type="line"/>
      <point x="809" y="368" type="line" smooth="yes"/>
      <point x="809" y="486"/>
      <point x="744" y="560"/>
      <point x="642" y="560" type="curve" smooth="yes"/>
      <point x="553" y="560"/>
      <point x="488" y="504"/>
      <point x="477" y="417" type="curve"/>
      <point x="486" y="417" type="line"/>
      <point x="477" y="504"/>
      <point x="418" y="560"/>
      <point x="333" y="560" type="curve" smooth="yes"/>
      <point x="247" y="560"/>
      <point x="186" y="504"/>
      <point x="175" y="417" type="curve"/>
      <point x="182" y="417" type="line"/>
      <point x="182" y="545" type="line"/>
      <point x="54" y="545" type="line"/>
    </contour>
  </outline>
</glyph>
<glyph name="n" format="2">
  <advance width="588"/>
  <unicode hex="006E"/>
  <anchor x="307" y="0" name="bottom"/>
  <anchor x="303" y="545" name="top"/>
  <outline>
    <contour>
      <point x="54" y="0" type="line"/>
      <point x="186" y="0" type="line"/>
      <point x="186" y="260" type="line" smooth="yes"/>
      <point x="186" y="390"/>
      <point x="233" y="467"/>
      <point x="313" y="467" type="curve" smooth="yes"/>
      <point x="373" y="467"/>
      <point x="408" y="423"/>
      <point x="408" y="348" type="curve" smooth="yes"/>
      <point x="408" y="0" type="line"/>
      <point x="540" y="0" type="line"/>
      <point x="540" y="368" type="line" smooth="yes"/>
      <point x="540" y="483"/>
      <point x="470" y="556"/>
      <point x="364" y="556" type="curve" smooth="yes"/>
      <point x="268" y="556"/>
      <point x="194" y="496"/>
      <point x="176" y="408" type="curve"/>
      <point x="184" y="408" type="line"/>
      <point x="184" y="544" type="line"/>
      <point x="54" y="544" type="line"/>
    </contour>
  </outline>
</glyph>
<glyph name="o" format="2">
  <advance width="576"/>
  <unicode hex="006F"/>
  <anchor x="288" y="272" name="center"/>
  <anchor x="288" y="544" name="top"/>
  <outline>
    <contour>
      <point x="288" y="-12" type="curve" smooth="yes"/>
      <point x="444" y="-12"/>
      <point x="550" y="104"/>
      <point x="550" y="273" type="curve" smooth="yes"/>
      <point x="550" y="441"/>
      <point x="444" y="556"/>
      <point x="288" y="556" type="curve" smooth="yes"/>
      <point x="132" y="556"/>
      <point x="26" y="441"/>
      <point x="26" y="273" type="curve" smooth="yes"/>
      <point x="26" y="104"/>
      <point x="132" y="-12"/>
    </contour>
    <contour>
      <point x="288" y="80" type="curve" smooth="yes"/>
      <point x="213" y="80"/>
      <point x="166" y="155"/>
      <point x="166" y="274" type="curve" smooth="yes"/>
      <point x="166" y="391"/>
      <point x="213" y="466"/>
      <point x="288" y="466" type="curve" smooth="yes"/>
      <point x="363" y="466"/>
      <point x="410" y="391"/>
      <point x="410" y="274" type="curve" smooth="yes"/>
      <point x="410" y="155"/>
      <point x="363" y="80"/>
    </contour>
  </outline>
</glyph>
<glyph name="q" format="2">
  <advance width="607"/>
  <unicode hex="0071"/>
  <outline>
    <contour>
      <point x="417" y="-218" type="line"/>
      <point x="547" y="-218" type="line"/>
      <point x="547" y="545" type="line"/>
      <point x="419" y="545" type="line"/>
      <point x="419" y="441" type="line"/>
      <point x="426" y="441" type="line"/>
      <point x="407" y="512"/>
      <point x="335" y="556"/>
      <point x="249" y="556" type="curve" smooth="yes"/>
      <point x="115" y="556"/>
      <point x="26" y="443"/>
      <point x="26" y="272" type="curve" smooth="yes"/>
      <point x="26" y="101"/>
      <point x="116" y="-14"/>
      <point x="247" y="-14" type="curve" smooth="yes"/>
      <point x="336" y="-14"/>
      <point x="407" y="38"/>
      <point x="424" y="115" type="curve"/>
      <point x="417" y="115" type="line"/>
    </contour>
    <contour>
      <point x="289" y="82" type="curve" smooth="yes"/>
      <point x="212" y="82"/>
      <point x="164" y="156"/>
      <point x="164" y="274" type="curve" smooth="yes"/>
      <point x="164" y="393"/>
      <point x="213" y="467"/>
      <point x="291" y="467" type="curve" smooth="yes"/>
      <point x="368" y="467"/>
      <point x="417" y="393"/>
      <point x="417" y="274" type="curve" smooth="yes"/>
      <point x="417" y="156"/>
      <point x="367" y="82"/>
    </contour>
  </outline>
</glyph>
<glyph name="r" format="2">
  <advance width="390"/>
  <unicode hex="0072"/>
  <anchor x="121" y="0" name="bottom"/>
  <anchor x="226" y="545" name="top"/>
  <outline>
    <contour>
      <point x="54" y="0" type="line"/>
      <point x="184" y="0" type="line"/>
      <point x="184" y="287" type="line" smooth="yes"/>
      <point x="184" y="407"/>
      <point x="250" y="448"/>
      <point x="316" y="448" type="curve" smooth="yes"/>
      <point x="332" y="448"/>
      <point x="349" y="446"/>
      <point x="365" y="443" type="curve"/>
      <point x="365" y="550" type="line"/>
      <point x="351" y="553"/>
      <point x="337" y="555"/>
      <point x="323" y="555" type="curve" smooth="yes"/>
      <point x="238" y="555"/>
      <point x="178" y="486"/>
      <point x="174" y="376" type="curve"/>
      <point x="182" y="376" type="line"/>
      <point x="182" y="545" type="line"/>
      <point x="54" y="545" type="line"/>
    </contour>
  </outline>
</glyph>
<glyph name="s" format="2">
  <advance width="506"/>
  <unicode hex="0073"/>
  <note>
Falls to the left
</note>
  <anchor x="257" y="0" name="bottom"/>
  <anchor x="246" y="545" name="top"/>
  <outline>
    <contour>
      <point x="255" y="-15" type="curve" smooth="yes"/>
      <point x="391" y="-15"/>
      <point x="482" y="54"/>
      <point x="482" y="156" type="curve" smooth="yes"/>
      <point x="482" y="353"/>
      <point x="167" y="291"/>
      <point x="165" y="407" type="curve" smooth="yes"/>
      <point x="164" y="446"/>
      <point x="198" y="471"/>
      <point x="249" y="471" type="curve" smooth="yes"/>
      <point x="303" y="471"/>
      <point x="345" y="438"/>
      <point x="354" y="388" type="curve"/>
      <point x="474" y="432" type="line"/>
      <point x="446" y="513"/>
      <point x="363" y="560"/>
      <point x="252" y="560" type="curve" smooth="yes"/>
      <point x="120" y="560"/>
      <point x="33" y="496"/>
      <point x="33" y="391" type="curve" smooth="yes"/>
      <point x="33" y="189"/>
      <point x="347" y="256"/>
      <point x="349" y="143" type="curve" smooth="yes"/>
      <point x="349" y="106"/>
      <point x="314" y="75"/>
      <point x="257" y="75" type="curve" smooth="yes"/>
      <point x="193" y="75"/>
      <point x="144" y="115"/>
      <point x="132" y="169" type="curve"/>
      <point x="12" y="124" type="line"/>
      <point x="44" y="38"/>
      <point x="137" y="-15"/>
    </contour>
  </outline>
</glyph>
<glyph name="t" format="2">
  <advance width="373"/>
  <unicode hex="0074"/>
  <note>
Controlla curva
</note>
  <anchor x="221" y="0" name="bottom"/>
  <anchor x="176" y="331" name="center"/>
  <anchor x="228" y="560" name="topright"/>
  <outline>
    <contour>
      <point x="353" y="4" type="curve"/>
      <point x="342" y="104" type="line"/>
      <point x="268" y="73"/>
      <point x="223" y="92"/>
      <point x="223" y="155" type="curve" smooth="yes"/>
      <point x="223" y="700" type="line"/>
      <point x="95" y="636" type="line"/>
      <point x="95" y="521" type="line"/>
      <point x="93" y="521" type="line"/>
      <point x="93" y="130" type="line" smooth="yes"/>
      <point x="93" y="5"/>
      <point x="193" y="-43"/>
    </contour>
    <contour>
      <point x="5" y="460" type="line"/>
      <point x="349" y="460" type="line"/>
      <point x="349" y="544" type="line"/>
      <point x="5" y="544" type="line"/>
    </contour>
  </outline>
</glyph>
<glyph name="u" format="2">
  <advance width="595"/>
  <unicode hex="0075"/>
  <anchor x="532" y="8" name="ogonek"/>
  <anchor x="288" y="545" name="top"/>
  <outline>
    <contour>
      <point x="234" y="-15" type="curve" smooth="yes"/>
      <point x="337" y="-15"/>
      <point x="405" y="48"/>
      <point x="410" y="149" type="curve"/>
      <point x="403" y="149" type="line"/>
      <point x="403" y="93"/>
      <point x="408" y="41"/>
      <point x="423" y="0" type="curve"/>
      <point x="541" y="0" type="line"/>
      <point x="532" y="37"/>
      <point x="528" y="76"/>
      <point x="528" y="125" type="curve" smooth="yes"/>
      <point x="528" y="545" type="line"/>
      <point x="398" y="545" type="line"/>
      <point x="398" y="255" type="line" smooth="yes"/>
      <point x="398" y="145"/>
      <point x="353" y="80"/>
      <point x="279" y="80" type="curve" smooth="yes"/>
      <point x="216" y="80"/>
      <point x="179" y="126"/>
      <point x="179" y="203" type="curve" smooth="yes"/>
      <point x="179" y="545" type="line"/>
      <point x="48" y="545" type="line"/>
      <point x="48" y="186" type="line" smooth="yes"/>
      <point x="48" y="63"/>
      <point x="121" y="-15"/>
    </contour>
  </outline>
</glyph>
<glyph name="v" format="2">
  <advance width="508"/>
  <unicode hex="0076"/>
  <outline>
    <contour>
      <point x="179" y="0" type="line"/>
      <point x="333" y="0" type="line"/>
      <point x="508" y="545" type="line"/>
      <point x="386" y="545" type="line"/>
      <point x="258" y="130" type="line"/>
      <point x="265" y="130" type="line"/>
      <point x="137" y="545" type="line"/>
      <point x="0" y="545" type="line"/>
    </contour>
  </outline>
</glyph>
<glyph name="w" format="2">
  <advance width="744"/>
  <unicode hex="0077"/>
  <anchor x="372" y="0" name="bottom"/>
  <anchor x="372" y="544" name="top"/>
  <outline>
    <contour>
      <point x="138" y="0" type="line"/>
      <point x="281" y="0" type="line"/>
      <point x="369" y="361" type="line"/>
      <point x="362" y="361" type="line"/>
      <point x="465" y="0" type="line"/>
      <point x="610" y="0" type="line"/>
      <point x="744" y="545" type="line"/>
      <point x="625" y="545" type="line"/>
      <point x="537" y="138" type="line"/>
      <point x="544" y="138" type="line"/>
      <point x="441" y="545" type="line"/>
      <point x="317" y="545" type="line"/>
      <point x="221" y="134" type="line"/>
      <point x="229" y="134" type="line"/>
      <point x="130" y="545" type="line"/>
      <point x="0" y="545" type="line"/>
    </contour>
  </outline>
</glyph>
<glyph name="y" format="2">
  <advance width="522"/>
  <unicode hex="0079"/>
  <anchor x="264" y="545" name="top"/>
  <outline>
    <contour>
      <point x="8" y="-201" type="line"/>
      <point x="50" y="-220"/>
      <point x="91" y="-229"/>
      <point x="129" y="-229" type="curve" smooth="yes"/>
      <point x="214" y="-229"/>
      <point x="283" y="-184"/>
      <point x="309" y="-105" type="curve" smooth="yes"/>
      <point x="522" y="545" type="line"/>
      <point x="397" y="545" type="line"/>
      <point x="270" y="129" type="line"/>
      <point x="282" y="129" type="line"/>
      <point x="143" y="545" type="line"/>
      <point x="5" y="545" type="line"/>
      <point x="209" y="-15" type="line"/>
      <point x="209" y="0" type="line"/>
      <point x="194" y="-46" type="line" smooth="yes"/>
      <point x="181" y="-92"/>
      <point x="149" y="-116"/>
      <point x="101" y="-116" type="curve" smooth="yes"/>
      <point x="77" y="-116"/>
      <point x="50" y="-110"/>
      <point x="19" y="-98" type="curve"/>
    </contour>
  </outline>
</glyph>
<glyph name="z" format="2">
  <advance width="467"/>
  <unicode hex="007A"/>
  <anchor x="234" y="0" name="bottom"/>
  <anchor x="234" y="272" name="center"/>
  <anchor x="235" y="545" name="top"/>
  <outline>
    <contour>
      <point x="20" y="0" type="line"/>
      <point x="447" y="1" type="line"/>
      <point x="447" y="94" type="line"/>
      <point x="174" y="94" type="line"/>
      <point x="178" y="86" type="line"/>
      <point x="441" y="460" type="line"/>
      <point x="441" y="545" type="line"/>
      <point x="22" y="545" type="line"/>
      <point x="22" y="453" type="line"/>
      <point x="290" y="453" type="line"/>
      <point x="286" y="461" type="line"/>
      <point x="20" y="86" type="line"/>
    </contour>
  </outline>
</glyph>
<glyph name="braceleft" format="2">
  <advance width="358"/>
  <unicode hex="007B"/>
  <outline>
    <contour>
      <point x="348" y="-220" type="curve"/>
      <point x="342" y="-131" type="line"/>
      <point x="270" y="-143"/>
      <point x="235" y="-119"/>
      <point x="238" y="-63" type="curve" smooth="yes"/>
      <point x="248" y="144" type="line" smooth="yes"/>
      <point x="241" y="199"/>
      <point x="219" y="233"/>
      <point x="165" y="236" type="curve"/>
      <point x="165" y="228" type="line"/>
      <point x="219" y="232"/>
      <point x="251" y="266"/>
      <point x="248" y="320" type="curve" smooth="yes"/>
      <point x="236" y="529" type="line" smooth="yes"/>
      <point x="233" y="585"/>
      <point x="268" y="607"/>
      <point x="340" y="595" type="curve"/>
      <point x="343" y="684" type="line"/>
      <point x="208" y="716"/>
      <point x="96" y="671"/>
      <point x="106" y="562" type="curve" smooth="yes"/>
      <point x="126" y="336" type="line" smooth="yes"/>
      <point x="129" y="297"/>
      <point x="111" y="277"/>
      <point x="72" y="277" type="curve" smooth="yes"/>
      <point x="30" y="277" type="line"/>
      <point x="30" y="188" type="line"/>
      <point x="72" y="188" type="line" smooth="yes"/>
      <point x="111" y="188"/>
      <point x="129" y="168"/>
      <point x="126" y="130" type="curve" smooth="yes"/>
      <point x="108" y="-96" type="line" smooth="yes"/>
      <point x="99" y="-206"/>
      <point x="211" y="-252"/>
    </contour>
  </outline>
</glyph>
<glyph name="asciitilde" format="2">
  <advance width="590"/>
  <unicode hex="007E"/>
  <outline>
    <contour>
      <point x="393" y="218" type="curve" smooth="yes"/>
      <point x="476" y="218"/>
      <point x="541" y="266"/>
      <point x="555" y="373" type="curve"/>
      <point x="464" y="396" type="line"/>
      <point x="458" y="353"/>
      <point x="429" y="326"/>
      <point x="389" y="326" type="curve" smooth="yes"/>
      <point x="329" y="326"/>
      <point x="285" y="395"/>
      <point x="201" y="395" type="curve" smooth="yes"/>
      <point x="114" y="395"/>
      <point x="50" y="347"/>
      <point x="35" y="241" type="curve"/>
      <point x="133" y="218" type="line"/>
      <point x="139" y="260"/>
      <point x="167" y="286"/>
      <point x="205" y="286" type="curve" smooth="yes"/>
      <point x="265" y="286"/>
      <point x="309" y="218"/>
    </contour>
  </outline>
</glyph>
<glyph name="cent" format="2">
  <advance width="583"/>
  <unicode hex="00A2"/>
  <outline>
    <component base="c" xOffset="22" yOffset="24" identifier="0BA9FCDE"/>
    <contour>
      <point x="247" y="-124" type="line"/>
      <point x="355" y="-124" type="line"/>
      <point x="355" y="692" type="line"/>
      <point x="247" y="692" type="line"/>
    </contour>
  </outline>
</glyph>
<glyph name="sterling" format="2">
  <advance width="576"/>
  <unicode hex="00A3"/>
  <outline>
    <contour>
      <point x="46" y="0" type="line"/>
      <point x="556" y="0" type="line"/>
      <point x="556" y="117" type="line"/>
      <point x="145" y="117" type="line"/>
      <point x="173" y="71" type="line"/>
      <point x="231" y="123"/>
      <point x="269" y="194"/>
      <point x="269" y="272" type="curve" smooth="yes"/>
      <point x="269" y="372"/>
      <point x="209" y="428"/>
      <point x="209" y="500" type="curve" smooth="yes"/>
      <point x="209" y="562"/>
      <point x="257" y="592"/>
      <point x="315" y="592" type="curve" smooth="yes"/>
      <point x="370" y="592"/>
      <point x="426" y="565"/>
      <point x="446" y="509" type="curve"/>
      <point x="553" y="566" type="line"/>
      <point x="529" y="627"/>
      <point x="446" y="705"/>
      <point x="311" y="705" type="curve" smooth="yes"/>
      <point x="177" y="705"/>
      <point x="80" y="625"/>
      <point x="82" y="504" type="curve" smooth="yes"/>
      <point x="84" y="410"/>
      <point x="147" y="382"/>
      <point x="147" y="276" type="curve" smooth="yes"/>
      <point x="147" y="214"/>
      <point x="109" y="146"/>
      <point x="46" y="93" type="curve"/>
    </contour>
    <contour>
      <point x="40" y="278" type="line"/>
      <point x="501" y="278" type="line"/>
      <point x="501" y="388" type="line"/>
      <point x="40" y="388" type="line"/>
    </contour>
  </outline>
</glyph>
<glyph name="currency" format="2">
  <advance width="574"/>
  <unicode hex="00A4"/>
  <outline>
    <contour>
      <point x="287" y="104" type="curve" smooth="yes"/>
      <point x="406" y="104"/>
      <point x="491" y="179"/>
      <point x="491" y="290" type="curve" smooth="yes"/>
      <point x="491" y="401"/>
      <point x="406" y="476"/>
      <point x="287" y="476" type="curve" smooth="yes"/>
      <point x="168" y="476"/>
      <point x="83" y="401"/>
      <point x="83" y="290" type="curve" smooth="yes"/>
      <point x="83" y="179"/>
      <point x="168" y="104"/>
    </contour>
    <contour>
      <point x="104" y="47" type="line"/>
      <point x="216" y="158" type="line"/>
      <point x="138" y="232" type="line"/>
      <point x="27" y="124" type="line"/>
    </contour>
    <contour>
      <point x="138" y="349" type="line"/>
      <point x="216" y="419" type="line"/>
      <point x="104" y="531" type="line"/>
      <point x="26" y="454" type="line"/>
    </contour>
    <contour>
      <point x="287" y="206" type="curve" smooth="yes"/>
      <point x="231" y="206"/>
      <point x="203" y="235"/>
      <point x="203" y="291" type="curve" smooth="yes"/>
      <point x="203" y="347"/>
      <point x="231" y="376"/>
      <point x="287" y="376" type="curve" smooth="yes"/>
      <point x="343" y="376"/>
      <point x="371" y="347"/>
      <point x="371" y="291" type="curve" smooth="yes"/>
      <point x="371" y="235"/>
      <point x="343" y="206"/>
    </contour>
    <contour>
      <point x="470" y="47" type="line"/>
      <point x="547" y="124" type="line"/>
      <point x="436" y="232" type="line"/>
      <point x="358" y="158" type="line"/>
    </contour>
    <contour>
      <point x="436" y="349" type="line"/>
      <point x="548" y="454" type="line"/>
      <point x="470" y="531" type="line"/>
      <point x="358" y="419" type="line"/>
    </contour>
  </outline>
</glyph>
<glyph name="yen" format="2">
  <advance width="661"/>
  <unicode hex="00A5"/>
  <outline>
    <component base="Y" xOffset="26"/>
    <contour>
      <point x="116" y="254" type="line"/>
      <point x="557" y="254" type="line"/>
      <point x="557" y="338" type="line"/>
      <point x="116" y="338" type="line"/>
    </contour>
    <contour>
      <point x="116" y="130" type="line"/>
      <point x="557" y="130" type="line"/>
      <point x="557" y="214" type="line"/>
      <point x="116" y="214" type="line"/>
    </contour>
  </outline>
</glyph>
<glyph name="brokenbar" format="2">
  <advance width="272"/>
  <unicode hex="00A6"/>
  <outline>
    <contour>
      <point x="72" y="336" type="line"/>
      <point x="200" y="336" type="line"/>
      <point x="200" y="706" type="line"/>
      <point x="72" y="706" type="line"/>
    </contour>
    <contour>
      <point x="200" y="150" type="line"/>
      <point x="72" y="150" type="line"/>
      <point x="72" y="-230" type="line"/>
      <point x="200" y="-230" type="line"/>
    </contour>
  </outline>
</glyph>
<glyph name="section" format="2">
  <advance width="588"/>
  <unicode hex="00A7"/>
  <note>
Storto? Controlla attacchi interrotti
</note>
  <outline>
    <contour>
      <point x="302" y="-233" type="curve" smooth="yes"/>
      <point x="460" y="-233"/>
      <point x="556" y="-159"/>
      <point x="556" y="-43" type="curve" smooth="yes"/>
      <point x="556" y="248"/>
      <point x="185" y="112"/>
      <point x="185" y="279" type="curve" smooth="yes"/>
      <point x="185" y="314"/>
      <point x="204" y="340"/>
      <point x="238" y="353" type="curve"/>
      <point x="238" y="431" type="line"/>
      <point x="123" y="413"/>
      <point x="53" y="348"/>
      <point x="53" y="252" type="curve" smooth="yes"/>
      <point x="53" y="-12"/>
      <point x="423" y="121"/>
      <point x="423" y="-47" type="curve" smooth="yes"/>
      <point x="423" y="-105"/>
      <point x="380" y="-139"/>
      <point x="307" y="-139" type="curve" smooth="yes"/>
      <point x="231" y="-139"/>
      <point x="179" y="-97"/>
      <point x="164" y="-21" type="curve"/>
      <point x="38" y="-68" type="line"/>
      <point x="68" y="-172"/>
      <point x="168" y="-233"/>
    </contour>
    <contour>
      <point x="327" y="48" type="line"/>
      <point x="475" y="53"/>
      <point x="564" y="122"/>
      <point x="564" y="228" type="curve" smooth="yes"/>
      <point x="564" y="501"/>
      <point x="193" y="373"/>
      <point x="193" y="530" type="curve" smooth="yes"/>
      <point x="193" y="581"/>
      <point x="233" y="613"/>
      <point x="302" y="613" type="curve" smooth="yes"/>
      <point x="368" y="613"/>
      <point x="417" y="580"/>
      <point x="422" y="521" type="curve"/>
      <point x="552" y="568" type="line"/>
      <point x="520" y="657"/>
      <point x="426" y="707"/>
      <point x="312" y="707" type="curve" smooth="yes"/>
      <point x="158" y="707"/>
      <point x="61" y="636"/>
      <point x="61" y="523" type="curve" smooth="yes"/>
      <point x="61" y="259"/>
      <point x="431" y="392"/>
      <point x="431" y="224" type="curve" smooth="yes"/>
      <point x="431" y="175"/>
      <point x="392" y="145"/>
      <point x="325" y="142" type="curve"/>
    </contour>
  </outline>
</glyph>
<glyph name="copyright" format="2">
  <advance width="832"/>
  <unicode hex="00A9"/>
  <outline>
    <contour>
      <point x="416" y="-44" type="curve" smooth="yes"/>
      <point x="638" y="-44"/>
      <point x="798" y="120"/>
      <point x="798" y="340" type="curve" smooth="yes"/>
      <point x="798" y="560"/>
      <point x="638" y="724"/>
      <point x="416" y="724" type="curve" smooth="yes"/>
      <point x="194" y="724"/>
      <point x="34" y="560"/>
      <point x="34" y="340" type="curve" smooth="yes"/>
      <point x="34" y="120"/>
      <point x="194" y="-44"/>
    </contour>
    <contour>
      <point x="416" y="49" type="curve" smooth="yes"/>
      <point x="249" y="49"/>
      <point x="141" y="161"/>
      <point x="141" y="340" type="curve" smooth="yes"/>
      <point x="141" y="519"/>
      <point x="249" y="631"/>
      <point x="416" y="631" type="curve" smooth="yes"/>
      <point x="583" y="631"/>
      <point x="691" y="519"/>
      <point x="691" y="340" type="curve" smooth="yes"/>
      <point x="691" y="161"/>
      <point x="583" y="49"/>
    </contour>
    <contour>
      <point x="420" y="137" type="curve" smooth="yes"/>
      <point x="517" y="137"/>
      <point x="587" y="200"/>
      <point x="595" y="287" type="curve"/>
      <point x="488" y="298" type="line"/>
      <point x="482" y="249"/>
      <point x="462" y="219"/>
      <point x="418" y="219" type="curve" smooth="yes"/>
      <point x="365" y="219"/>
      <point x="335" y="259"/>
      <point x="335" y="342" type="curve" smooth="yes"/>
      <point x="335" y="424"/>
      <point x="364" y="463"/>
      <point x="416" y="463" type="curve" smooth="yes"/>
      <point x="458" y="463"/>
      <point x="480" y="434"/>
      <point x="484" y="375" type="curve"/>
      <point x="590" y="397" type="line"/>
      <point x="586" y="482"/>
      <point x="511" y="543"/>
      <point x="418" y="543" type="curve" smooth="yes"/>
      <point x="304" y="543"/>
      <point x="229" y="458"/>
      <point x="229" y="340" type="curve" smooth="yes"/>
      <point x="229" y="222"/>
      <point x="304" y="137"/>
    </contour>
  </outline>
</glyph>
<glyph name="ordfeminine" format="2">
  <advance width="492"/>
  <unicode hex="00AA"/>
  <outline>
    <contour>
      <point x="128" y="318" type="curve" smooth="yes"/>
      <point x="199" y="318"/>
      <point x="253" y="370"/>
      <point x="257" y="435" type="curve"/>
      <point x="251" y="435" type="line"/>
      <point x="251" y="383"/>
      <point x="254" y="353"/>
      <point x="262" y="330" type="curve"/>
      <point x="368" y="330" type="line"/>
      <point x="362" y="356"/>
      <point x="360" y="386"/>
      <point x="360" y="418" type="curve" smooth="yes"/>
      <point x="360" y="562" type="line" smooth="yes"/>
      <point x="360" y="681"/>
      <point x="302" y="729"/>
      <point x="196" y="729" type="curve" smooth="yes"/>
      <point x="106" y="729"/>
      <point x="45" y="697"/>
      <point x="15" y="621" type="curve"/>
      <point x="112" y="590" type="line"/>
      <point x="128" y="639"/>
      <point x="155" y="658"/>
      <point x="190" y="658" type="curve" smooth="yes"/>
      <point x="224" y="658"/>
      <point x="249" y="635"/>
      <point x="249" y="599" type="curve" smooth="yes"/>
      <point x="249" y="538" type="line" smooth="yes"/>
      <point x="249" y="462"/>
      <point x="219" y="395"/>
      <point x="171" y="395" type="curve" smooth="yes"/>
      <point x="142" y="395"/>
      <point x="124" y="414"/>
      <point x="124" y="441" type="curve" smooth="yes"/>
      <point x="124" y="479"/>
      <point x="154" y="503"/>
      <point x="213" y="513" type="curve" smooth="yes"/>
      <point x="253" y="520" type="line"/>
      <point x="253" y="581" type="line"/>
      <point x="194" y="573" type="line" smooth="yes"/>
      <point x="64" y="555"/>
      <point x="9" y="501"/>
      <point x="9" y="429" type="curve" smooth="yes"/>
      <point x="9" y="363"/>
      <point x="58" y="318"/>
    </contour>
  </outline>
</glyph>
<glyph name="guillemetleft" format="2">
  <advance width="629"/>
  <unicode hex="00AB"/>
  <outline>
    <contour>
      <point x="305" y="20" type="line"/>
      <point x="305" y="140" type="line"/>
      <point x="107" y="260" type="line"/>
      <point x="107" y="252" type="line"/>
      <point x="301" y="368" type="line"/>
      <point x="301" y="486" type="line"/>
      <point x="20" y="306" type="line"/>
      <point x="20" y="206" type="line"/>
    </contour>
    <contour>
      <point x="592" y="20" type="line"/>
      <point x="592" y="140" type="line"/>
      <point x="394" y="260" type="line"/>
      <point x="394" y="252" type="line"/>
      <point x="588" y="368" type="line"/>
      <point x="588" y="486" type="line"/>
      <point x="307" y="306" type="line"/>
      <point x="307" y="206" type="line"/>
    </contour>
  </outline>
</glyph>
<glyph name="logicalnot" format="2">
  <advance width="562"/>
  <unicode hex="00AC"/>
  <outline>
    <contour>
      <point x="386" y="104" type="line"/>
      <point x="512" y="104" type="line"/>
      <point x="512" y="320" type="line"/>
      <point x="38" y="320" type="line"/>
      <point x="38" y="220" type="line"/>
      <point x="444" y="220" type="line"/>
      <point x="386" y="258" type="line"/>
    </contour>
  </outline>
</glyph>
<glyph name="registered" format="2">
  <advance width="832"/>
  <unicode hex="00AE"/>
  <outline>
    <contour>
      <point x="267" y="155" type="line"/>
      <point x="363" y="155" type="line"/>
      <point x="363" y="489" type="line"/>
      <point x="286" y="472" type="line"/>
      <point x="434" y="472" type="line" smooth="yes"/>
      <point x="458" y="472"/>
      <point x="473" y="459"/>
      <point x="473" y="435" type="curve" smooth="yes"/>
      <point x="473" y="408"/>
      <point x="457" y="393"/>
      <point x="432" y="393" type="curve" smooth="yes"/>
      <point x="321" y="393" type="line"/>
      <point x="321" y="310" type="line"/>
      <point x="398" y="310" type="line" smooth="yes"/>
      <point x="420" y="310"/>
      <point x="437" y="297"/>
      <point x="444" y="277" type="curve" smooth="yes"/>
      <point x="486" y="155" type="line"/>
      <point x="602" y="155" type="line"/>
      <point x="515" y="332" type="line" smooth="yes"/>
      <point x="504" y="355"/>
      <point x="480" y="356"/>
      <point x="448" y="352" type="curve"/>
      <point x="457" y="326" type="line"/>
      <point x="527" y="328"/>
      <point x="572" y="373"/>
      <point x="572" y="436" type="curve" smooth="yes"/>
      <point x="572" y="508"/>
      <point x="524" y="548"/>
      <point x="436" y="548" type="curve" smooth="yes"/>
      <point x="267" y="548" type="line"/>
    </contour>
    <contour>
      <point x="416" y="-44" type="curve" smooth="yes"/>
      <point x="638" y="-44"/>
      <point x="798" y="120"/>
      <point x="798" y="340" type="curve" smooth="yes"/>
      <point x="798" y="560"/>
      <point x="638" y="724"/>
      <point x="416" y="724" type="curve" smooth="yes"/>
      <point x="194" y="724"/>
      <point x="34" y="560"/>
      <point x="34" y="340" type="curve" smooth="yes"/>
      <point x="34" y="120"/>
      <point x="194" y="-44"/>
    </contour>
    <contour>
      <point x="416" y="49" type="curve" smooth="yes"/>
      <point x="249" y="49"/>
      <point x="141" y="161"/>
      <point x="141" y="340" type="curve" smooth="yes"/>
      <point x="141" y="519"/>
      <point x="249" y="631"/>
      <point x="416" y="631" type="curve" smooth="yes"/>
      <point x="583" y="631"/>
      <point x="691" y="519"/>
      <point x="691" y="340" type="curve" smooth="yes"/>
      <point x="691" y="161"/>
      <point x="583" y="49"/>
    </contour>
  </outline>
</glyph>
<glyph name="degree" format="2">
  <advance width="380"/>
  <unicode hex="00B0"/>
  <outline>
    <contour>
      <point x="189" y="394" type="curve" smooth="yes"/>
      <point x="282" y="394"/>
      <point x="352" y="461"/>
      <point x="352" y="551" type="curve" smooth="yes"/>
      <point x="352" y="641"/>
      <point x="282" y="708"/>
      <point x="189" y="708" type="curve" smooth="yes"/>
      <point x="97" y="708"/>
      <point x="28" y="641"/>
      <point x="28" y="551" type="curve" smooth="yes"/>
      <point x="28" y="461"/>
      <point x="97" y="394"/>
    </contour>
    <contour>
      <point x="189" y="477" type="curve" smooth="yes"/>
      <point x="147" y="477"/>
      <point x="119" y="507"/>
      <point x="119" y="551" type="curve" smooth="yes"/>
      <point x="119" y="596"/>
      <point x="147" y="625"/>
      <point x="189" y="625" type="curve" smooth="yes"/>
      <point x="232" y="625"/>
      <point x="261" y="596"/>
      <point x="261" y="551" type="curve" smooth="yes"/>
      <point x="261" y="507"/>
      <point x="232" y="477"/>
    </contour>
  </outline>
</glyph>
<glyph name="plusminus" format="2">
  <advance width="581"/>
  <unicode hex="00B1"/>
  <outline>
    <contour>
      <point x="71" y="-1" type="line"/>
      <point x="529" y="-1" type="line"/>
      <point x="529" y="104" type="line"/>
      <point x="71" y="104" type="line"/>
    </contour>
    <contour>
      <point x="234" y="141" type="line"/>
      <point x="347" y="141" type="line"/>
      <point x="347" y="552" type="line"/>
      <point x="234" y="552" type="line"/>
    </contour>
    <contour>
      <point x="50" y="292" type="line"/>
      <point x="531" y="292" type="line"/>
      <point x="531" y="397" type="line"/>
      <point x="50" y="397" type="line"/>
    </contour>
  </outline>
</glyph>
<glyph name="micro" format="2">
  <advance width="607"/>
  <unicode hex="00B5"/>
  <outline>
    <contour>
      <point x="265" y="-15" type="curve" smooth="yes"/>
      <point x="369" y="-15"/>
      <point x="413" y="49"/>
      <point x="424" y="153" type="curve"/>
      <point x="415" y="152" type="line"/>
      <point x="414" y="95"/>
      <point x="420" y="42"/>
      <point x="435" y="0" type="curve"/>
      <point x="553" y="0" type="line"/>
      <point x="544" y="37"/>
      <point x="540" y="76"/>
      <point x="540" y="125" type="curve" smooth="yes"/>
      <point x="540" y="545" type="line"/>
      <point x="410" y="545" type="line"/>
      <point x="410" y="255" type="line" smooth="yes"/>
      <point x="410" y="145"/>
      <point x="365" y="80"/>
      <point x="291" y="80" type="curve" smooth="yes"/>
      <point x="228" y="80"/>
      <point x="191" y="126"/>
      <point x="191" y="203" type="curve" smooth="yes"/>
      <point x="191" y="545" type="line"/>
      <point x="60" y="545" type="line"/>
      <point x="60" y="-218" type="line"/>
      <point x="191" y="-218" type="line"/>
      <point x="191" y="51" type="line"/>
      <point x="156" y="31" type="line"/>
      <point x="184" y="-5"/>
      <point x="231" y="-15"/>
    </contour>
  </outline>
</glyph>
<glyph name="paragraph" format="2">
  <advance width="726"/>
  <unicode hex="00B6"/>
  <outline>
    <contour>
      <point x="333" y="0" type="curve" smooth="yes"/>
      <point x="397" y="0" type="line"/>
      <point x="397" y="692" type="line"/>
      <point x="333" y="692" type="line" smooth="yes"/>
      <point x="184" y="692"/>
      <point x="46" y="553"/>
      <point x="46" y="346" type="curve" smooth="yes"/>
      <point x="46" y="138"/>
      <point x="179" y="0"/>
    </contour>
    <contour>
      <point x="505" y="22" type="line"/>
      <point x="640" y="22" type="line"/>
      <point x="640" y="692" type="line"/>
      <point x="505" y="692" type="line"/>
    </contour>
    <contour>
      <point x="353" y="692" type="line"/>
      <point x="353" y="583" type="line"/>
      <point x="706" y="583" type="line"/>
      <point x="706" y="692" type="line"/>
    </contour>
    <contour>
      <point x="353" y="109" type="line"/>
      <point x="353" y="0" type="line"/>
      <point x="706" y="0" type="line"/>
      <point x="706" y="109" type="line"/>
    </contour>
  </outline>
</glyph>
<glyph name="ordmasculine" format="2">
  <advance width="412"/>
  <unicode hex="00BA"/>
  <outline>
    <contour>
      <point x="206" y="322" type="curve" smooth="yes"/>
      <point x="319" y="322"/>
      <point x="396" y="404"/>
      <point x="396" y="524" type="curve" smooth="yes"/>
      <point x="396" y="643"/>
      <point x="319" y="725"/>
      <point x="206" y="725" type="curve" smooth="yes"/>
      <point x="93" y="725"/>
      <point x="16" y="643"/>
      <point x="16" y="524" type="curve" smooth="yes"/>
      <point x="16" y="404"/>
      <point x="93" y="322"/>
    </contour>
    <contour>
      <point x="206" y="395" type="curve" smooth="yes"/>
      <point x="164" y="395"/>
      <point x="137" y="445"/>
      <point x="137" y="525" type="curve" smooth="yes"/>
      <point x="137" y="601"/>
      <point x="163" y="653"/>
      <point x="206" y="653" type="curve" smooth="yes"/>
      <point x="248" y="653"/>
      <point x="275" y="602"/>
      <point x="275" y="525" type="curve" smooth="yes"/>
      <point x="275" y="445"/>
      <point x="248" y="395"/>
    </contour>
  </outline>
</glyph>
<glyph name="AE" format="2">
  <advance width="928"/>
  <unicode hex="00C6"/>
  <outline>
    <contour>
      <point x="-11" y="0" type="line"/>
      <point x="135" y="0" type="line"/>
      <point x="395" y="584" type="line"/>
      <point x="434" y="584" type="line"/>
      <point x="434" y="0" type="line"/>
      <point x="890" y="0" type="line"/>
      <point x="890" y="108" type="line"/>
      <point x="570" y="108" type="line"/>
      <point x="578" y="100" type="line"/>
      <point x="578" y="593" type="line"/>
      <point x="570" y="585" type="line"/>
      <point x="884" y="585" type="line"/>
      <point x="884" y="692" type="line"/>
      <point x="321" y="692" type="line"/>
    </contour>
    <contour>
      <point x="192" y="166" type="line"/>
      <point x="442" y="166" type="line"/>
      <point x="442" y="268" type="line"/>
      <point x="192" y="268" type="line"/>
    </contour>
    <contour>
      <point x="570" y="303" type="line"/>
      <point x="854" y="303" type="line"/>
      <point x="854" y="409" type="line"/>
      <point x="570" y="409" type="line"/>
    </contour>
  </outline>
</glyph>
<glyph name="Eth" format="2">
  <advance width="708"/>
  <unicode hex="00D0"/>
  <outline>
    <contour>
      <point x="16" y="310" type="line"/>
      <point x="368" y="310" type="line"/>
      <point x="368" y="414" type="line"/>
      <point x="16" y="414" type="line"/>
    </contour>
    <component base="D" xOffset="16"/>
  </outline>
</glyph>
<glyph name="multiply" format="2">
  <advance width="574"/>
  <unicode hex="00D7"/>
  <outline>
    <contour>
      <point x="119" y="60" type="line"/>
      <point x="515" y="433" type="line"/>
      <point x="441" y="512" type="line"/>
      <point x="44" y="140" type="line"/>
    </contour>
    <contour>
      <point x="441" y="60" type="line"/>
      <point x="516" y="140" type="line"/>
      <point x="119" y="512" type="line"/>
      <point x="45" y="433" type="line"/>
    </contour>
  </outline>
</glyph>
<glyph name="Thorn" format="2">
  <advance width="620"/>
  <unicode hex="00DE"/>
  <outline>
    <contour>
      <point x="208" y="134" type="line"/>
      <point x="342" y="134" type="line" smooth="yes"/>
      <point x="497" y="134"/>
      <point x="596" y="218"/>
      <point x="596" y="350" type="curve" smooth="yes"/>
      <point x="596" y="477"/>
      <point x="499" y="558"/>
      <point x="346" y="558" type="curve" smooth="yes"/>
      <point x="208" y="558" type="line"/>
      <point x="208" y="450" type="line"/>
      <point x="338" y="450" type="line" smooth="yes"/>
      <point x="405" y="450"/>
      <point x="444" y="412"/>
      <point x="444" y="348" type="curve" smooth="yes"/>
      <point x="444" y="281"/>
      <point x="404" y="242"/>
      <point x="336" y="242" type="curve" smooth="yes"/>
      <point x="208" y="242" type="line"/>
    </contour>
    <contour>
      <point x="72" y="0" type="line"/>
      <point x="216" y="0" type="line"/>
      <point x="216" y="692" type="line"/>
      <point x="72" y="692" type="line"/>
    </contour>
  </outline>
</glyph>
<glyph name="germandbls" format="2">
  <advance width="610"/>
  <unicode hex="00DF"/>
  <outline>
    <contour>
      <point x="384" y="-15" type="curve" smooth="yes"/>
      <point x="507" y="-15"/>
      <point x="593" y="50"/>
      <point x="593" y="153" type="curve" smooth="yes"/>
      <point x="593" y="319"/>
      <point x="398" y="288"/>
      <point x="398" y="385" type="curve" smooth="yes"/>
      <point x="398" y="452"/>
      <point x="495" y="456"/>
      <point x="495" y="570" type="curve" smooth="yes"/>
      <point x="495" y="662"/>
      <point x="410" y="724"/>
      <point x="287" y="724" type="curve" smooth="yes"/>
      <point x="153" y="724"/>
      <point x="61" y="643"/>
      <point x="61" y="522" type="curve" smooth="yes"/>
      <point x="61" y="0" type="line"/>
      <point x="192" y="0" type="line"/>
      <point x="192" y="540" type="line" smooth="yes"/>
      <point x="192" y="599"/>
      <point x="241" y="626"/>
      <point x="286" y="626" type="curve" smooth="yes"/>
      <point x="327" y="626"/>
      <point x="365" y="605"/>
      <point x="365" y="555" type="curve" smooth="yes"/>
      <point x="365" y="472"/>
      <point x="272" y="473"/>
      <point x="272" y="370" type="curve" smooth="yes"/>
      <point x="272" y="213"/>
      <point x="461" y="259"/>
      <point x="461" y="148" type="curve" smooth="yes"/>
      <point x="461" y="108"/>
      <point x="430" y="86"/>
      <point x="386" y="86" type="curve" smooth="yes"/>
      <point x="340" y="86"/>
      <point x="298" y="104"/>
      <point x="270" y="118" type="curve"/>
      <point x="240" y="13" type="line"/>
      <point x="274" y="0"/>
      <point x="329" y="-15"/>
    </contour>
  </outline>
</glyph>
<glyph name="ae" format="2">
  <advance width="910"/>
  <unicode hex="00E6"/>
  <outline>
    <contour>
      <point x="218" y="-15" type="curve" smooth="yes"/>
      <point x="344" y="-15"/>
      <point x="434" y="51"/>
      <point x="444" y="149" type="curve"/>
      <point x="507" y="342" type="line"/>
      <point x="507" y="491"/>
      <point x="425" y="560"/>
      <point x="285" y="560" type="curve" smooth="yes"/>
      <point x="164" y="560"/>
      <point x="77" y="508"/>
      <point x="42" y="413" type="curve"/>
      <point x="157" y="372" type="line"/>
      <point x="177" y="435"/>
      <point x="220" y="471"/>
      <point x="280" y="471" type="curve" smooth="yes"/>
      <point x="338" y="471"/>
      <point x="377" y="433"/>
      <point x="377" y="372" type="curve" smooth="yes"/>
      <point x="377" y="288" type="line" smooth="yes"/>
      <point x="377" y="169"/>
      <point x="325" y="80"/>
      <point x="245" y="80" type="curve" smooth="yes"/>
      <point x="198" y="80"/>
      <point x="168" y="109"/>
      <point x="168" y="154" type="curve" smooth="yes"/>
      <point x="168" y="207"/>
      <point x="209" y="241"/>
      <point x="299" y="255" type="curve" smooth="yes"/>
      <point x="384" y="268" type="line"/>
      <point x="384" y="348" type="line"/>
      <point x="265" y="331" type="line" smooth="yes"/>
      <point x="105" y="309"/>
      <point x="34" y="236"/>
      <point x="34" y="141" type="curve" smooth="yes"/>
      <point x="34" y="48"/>
      <point x="119" y="-15"/>
    </contour>
    <contour>
      <point x="642" y="-15" type="curve" smooth="yes"/>
      <point x="759" y="-15"/>
      <point x="856" y="51"/>
      <point x="880" y="149" type="curve"/>
      <point x="763" y="190" type="line"/>
      <point x="750" y="122"/>
      <point x="705" y="78"/>
      <point x="646" y="78" type="curve" smooth="yes"/>
      <point x="566" y="78"/>
      <point x="516" y="155"/>
      <point x="516" y="277" type="curve" smooth="yes"/>
      <point x="516" y="395"/>
      <point x="563" y="471"/>
      <point x="637" y="471" type="curve" smooth="yes"/>
      <point x="701" y="471"/>
      <point x="745" y="413"/>
      <point x="745" y="322" type="curve"/>
      <point x="752" y="329" type="line"/>
      <point x="508" y="329" type="line"/>
      <point x="508" y="247" type="line"/>
      <point x="880" y="247" type="line"/>
      <point x="895" y="445"/>
      <point x="798" y="560"/>
      <point x="635" y="560" type="curve" smooth="yes"/>
      <point x="480" y="560"/>
      <point x="378" y="447"/>
      <point x="378" y="275" type="curve" smooth="yes"/>
      <point x="378" y="101"/>
      <point x="484" y="-15"/>
    </contour>
  </outline>
</glyph>
<glyph name="eth" format="2">
  <advance width="588"/>
  <unicode hex="00F0"/>
  <outline>
    <contour>
      <point x="287" y="-15" type="curve" smooth="yes"/>
      <point x="437" y="-15"/>
      <point x="562" y="91"/>
      <point x="562" y="283" type="curve" smooth="yes"/>
      <point x="562" y="513"/>
      <point x="417" y="700"/>
      <point x="164" y="770" type="curve"/>
      <point x="108" y="700" type="line"/>
      <point x="246" y="670"/>
      <point x="343" y="589"/>
      <point x="388" y="480" type="curve"/>
      <point x="395" y="480" type="line"/>
      <point x="366" y="504"/>
      <point x="320" y="518"/>
      <point x="272" y="518" type="curve" smooth="yes"/>
      <point x="130" y="518"/>
      <point x="26" y="410"/>
      <point x="26" y="253" type="curve" smooth="yes"/>
      <point x="26" y="94"/>
      <point x="132" y="-15"/>
    </contour>
    <contour>
      <point x="296" y="76" type="curve" smooth="yes"/>
      <point x="216" y="76"/>
      <point x="164" y="144"/>
      <point x="164" y="252" type="curve" smooth="yes"/>
      <point x="164" y="360"/>
      <point x="215" y="428"/>
      <point x="294" y="428" type="curve" smooth="yes"/>
      <point x="373" y="428"/>
      <point x="424" y="360"/>
      <point x="424" y="252" type="curve" smooth="yes"/>
      <point x="424" y="144"/>
      <point x="374" y="76"/>
    </contour>
    <contour>
      <point x="192" y="543" type="line"/>
      <point x="500" y="662" type="line"/>
      <point x="467" y="744" type="line"/>
      <point x="158" y="625" type="line"/>
    </contour>
  </outline>
</glyph>
<glyph name="divide" format="2">
  <advance width="542"/>
  <unicode hex="00F7"/>
  <outline>
    <contour>
      <point x="214" y="398" type="line"/>
      <point x="346" y="398" type="line"/>
      <point x="346" y="532" type="line"/>
      <point x="214" y="532" type="line"/>
    </contour>
    <contour>
      <point x="214" y="40" type="line"/>
      <point x="346" y="40" type="line"/>
      <point x="346" y="174" type="line"/>
      <point x="214" y="174" type="line"/>
    </contour>
    <component base="minus" yOffset="3"/>
  </outline>
</glyph>
<glyph name="thorn" format="2">
  <advance width="606"/>
  <unicode hex="00FE"/>
  <outline>
    <contour>
      <point x="60" y="-218" type="line"/>
      <point x="190" y="-218" type="line"/>
      <point x="190" y="104" type="line"/>
      <point x="182" y="104" type="line"/>
      <point x="201" y="33"/>
      <point x="272" y="-15"/>
      <point x="357" y="-15" type="curve" smooth="yes"/>
      <point x="491" y="-15"/>
      <point x="580" y="102"/>
      <point x="580" y="273" type="curve" smooth="yes"/>
      <point x="580" y="444"/>
      <point x="490" y="560"/>
      <point x="359" y="560" type="curve" smooth="yes"/>
      <point x="271" y="560"/>
      <point x="197" y="507"/>
      <point x="180" y="430" type="curve"/>
      <point x="188" y="430" type="line"/>
      <point x="188" y="713" type="line"/>
      <point x="60" y="713" type="line"/>
    </contour>
    <contour>
      <point x="315" y="78" type="curve" smooth="yes"/>
      <point x="238" y="78"/>
      <point x="190" y="153"/>
      <point x="190" y="272" type="curve" smooth="yes"/>
      <point x="190" y="390"/>
      <point x="239" y="465"/>
      <point x="317" y="465" type="curve" smooth="yes"/>
      <point x="394" y="465"/>
      <point x="443" y="390"/>
      <point x="443" y="272" type="curve" smooth="yes"/>
      <point x="443" y="153"/>
      <point x="393" y="78"/>
    </contour>
  </outline>
</glyph>
<glyph name="dcroat" format="2">
  <advance width="608"/>
  <unicode hex="0111"/>
  <outline>
    <component base="d"/>
    <contour>
      <point x="290" y="588" type="line"/>
      <point x="599" y="588" type="line"/>
      <point x="599" y="662" type="line"/>
      <point x="290" y="662" type="line"/>
    </contour>
  </outline>
</glyph>
<glyph name="eogonek" format="2">
  <advance width="558"/>
  <unicode hex="0119"/>
  <outline>
    <contour>
      <point x="430" y="-208" type="curve"/>
      <point x="408" y="-133" type="line"/>
      <point x="349" y="-155"/>
      <point x="312" y="-139"/>
      <point x="312" y="-96" type="curve" smooth="yes"/>
      <point x="312" y="-52"/>
      <point x="358" y="-9"/>
      <point x="410" y="11" type="curve"/>
      <point x="320" y="11" type="line"/>
      <point x="257" y="-22"/>
      <point x="214" y="-84"/>
      <point x="214" y="-136" type="curve" smooth="yes"/>
      <point x="214" y="-225"/>
      <point x="311" y="-257"/>
    </contour>
    <component base="e"/>
  </outline>
</glyph>
<glyph name="Hbar" format="2">
  <advance width="708"/>
  <unicode hex="0126"/>
  <outline>
    <contour>
      <point x="16" y="508" type="line"/>
      <point x="692" y="508" type="line"/>
      <point x="692" y="600" type="line"/>
      <point x="16" y="600" type="line"/>
    </contour>
    <component base="H"/>
  </outline>
</glyph>
<glyph name="hbar" format="2">
  <advance width="595"/>
  <unicode hex="0127"/>
  <outline>
    <component base="h" xOffset="2"/>
    <contour>
      <point x="7" y="588" type="line"/>
      <point x="309" y="588" type="line"/>
      <point x="309" y="662" type="line"/>
      <point x="7" y="662" type="line"/>
    </contour>
  </outline>
</glyph>
<glyph name="idotless" format="2">
  <advance width="240"/>
  <unicode hex="0131"/>
  <anchor x="120" y="0" name="bottom"/>
  <anchor x="178" y="8" name="ogonek"/>
  <anchor x="120" y="544" name="top"/>
  <outline>
    <contour>
      <point x="54" y="0" type="line"/>
      <point x="186" y="0" type="line"/>
      <point x="186" y="544" type="line"/>
      <point x="54" y="544" type="line"/>
    </contour>
  </outline>
</glyph>
<glyph name="kgreenlandic" format="2">
  <advance width="556"/>
  <unicode hex="0138"/>
  <outline>
    <contour>
      <point x="54" y="0" type="line"/>
      <point x="184" y="0" type="line"/>
      <point x="184" y="167" type="line"/>
      <point x="177" y="153" type="line"/>
      <point x="534" y="545" type="line"/>
      <point x="394" y="545" type="line"/>
      <point x="177" y="309" type="line"/>
      <point x="184" y="309" type="line"/>
      <point x="184" y="545" type="line"/>
      <point x="54" y="545" type="line"/>
    </contour>
    <contour>
      <point x="409" y="0" type="line"/>
      <point x="567" y="0" type="line"/>
      <point x="335" y="346" type="line"/>
      <point x="249" y="251" type="line"/>
    </contour>
  </outline>
</glyph>
<glyph name="Ldot" format="2">
  <advance width="539"/>
  <unicode hex="013F"/>
  <outline>
    <contour>
      <point x="324" y="300" type="line"/>
      <point x="476" y="300" type="line"/>
      <point x="476" y="450" type="line"/>
      <point x="324" y="450" type="line"/>
    </contour>
    <component base="L"/>
  </outline>
</glyph>
<glyph name="ldot" format="2">
  <advance width="378"/>
  <unicode hex="0140"/>
  <outline>
    <contour>
      <point x="236" y="300" type="line"/>
      <point x="370" y="300" type="line"/>
      <point x="370" y="430" type="line"/>
      <point x="236" y="430" type="line"/>
    </contour>
    <component base="l" identifier="458312A2"/>
  </outline>
</glyph>
<glyph name="Lslash" format="2">
  <advance width="549"/>
  <unicode hex="0141"/>
  <outline>
    <component base="L" xOffset="10"/>
    <contour>
      <point x="19" y="239" type="line"/>
      <point x="407" y="351" type="line"/>
      <point x="375" y="447" type="line"/>
      <point x="-13" y="333" type="line"/>
    </contour>
  </outline>
</glyph>
<glyph name="lslash" format="2">
  <advance width="311"/>
  <unicode hex="0142"/>
  <outline>
    <contour>
      <point x="152" y="328" type="line"/>
      <point x="152" y="433" type="line"/>
      <point x="-18" y="373" type="line"/>
      <point x="14" y="277" type="line"/>
    </contour>
    <component base="l" xOffset="30"/>
    <contour>
      <point x="162" y="443" type="line"/>
      <point x="162" y="338" type="line"/>
      <point x="339" y="401" type="line"/>
      <point x="310" y="496" type="line"/>
    </contour>
  </outline>
</glyph>
<glyph name="Eng" format="2">
  <advance width="716"/>
  <unicode hex="014A"/>
  <outline>
    <contour>
      <point x="386" y="-214" type="line"/>
      <point x="546" y="-258"/>
      <point x="644" y="-211"/>
      <point x="644" y="-90" type="curve" smooth="yes"/>
      <point x="644" y="692" type="line"/>
      <point x="514" y="692" type="line"/>
      <point x="514" y="200" type="line"/>
      <point x="522" y="200" type="line"/>
      <point x="236" y="692" type="line"/>
      <point x="72" y="692" type="line"/>
      <point x="72" y="0" type="line"/>
      <point x="202" y="0" type="line"/>
      <point x="202" y="508" type="line"/>
      <point x="194" y="508" type="line"/>
      <point x="522" y="-44" type="line"/>
      <point x="514" y="-12" type="line"/>
      <point x="514" y="-68" type="line" smooth="yes"/>
      <point x="514" y="-120"/>
      <point x="474" y="-140"/>
      <point x="400" y="-114" type="curve"/>
    </contour>
  </outline>
</glyph>
<glyph name="eng" format="2">
  <advance width="588"/>
  <unicode hex="014B"/>
  <outline>
    <contour>
      <point x="281" y="-216" type="line"/>
      <point x="441" y="-260"/>
      <point x="540" y="-214"/>
      <point x="540" y="-93" type="curve" smooth="yes"/>
      <point x="540" y="368" type="line" smooth="yes"/>
      <point x="540" y="486"/>
      <point x="471" y="560"/>
      <point x="363" y="560" type="curve" smooth="yes"/>
      <point x="266" y="560"/>
      <point x="192" y="499"/>
      <point x="175" y="409" type="curve"/>
      <point x="182" y="409" type="line"/>
      <point x="182" y="545" type="line"/>
      <point x="54" y="545" type="line"/>
      <point x="54" y="0" type="line"/>
      <point x="184" y="0" type="line"/>
      <point x="184" y="260" type="line" smooth="yes"/>
      <point x="184" y="391"/>
      <point x="232" y="467"/>
      <point x="313" y="467" type="curve" smooth="yes"/>
      <point x="373" y="467"/>
      <point x="409" y="422"/>
      <point x="409" y="348" type="curve" smooth="yes"/>
      <point x="409" y="-71" type="line" smooth="yes"/>
      <point x="409" y="-123"/>
      <point x="368" y="-143"/>
      <point x="294" y="-117" type="curve"/>
    </contour>
  </outline>
</glyph>
<glyph name="OE" format="2">
  <advance width="1002"/>
  <unicode hex="0152"/>
  <outline>
    <contour>
      <point x="340" y="-14" type="curve" smooth="yes"/>
      <point x="523" y="-14"/>
      <point x="648" y="132"/>
      <point x="648" y="346" type="curve" smooth="yes"/>
      <point x="648" y="560"/>
      <point x="523" y="706"/>
      <point x="340" y="706" type="curve" smooth="yes"/>
      <point x="157" y="706"/>
      <point x="32" y="560"/>
      <point x="32" y="346" type="curve" smooth="yes"/>
      <point x="32" y="132"/>
      <point x="157" y="-14"/>
    </contour>
    <contour>
      <point x="346" y="96" type="curve" smooth="yes"/>
      <point x="247" y="96"/>
      <point x="184" y="193"/>
      <point x="184" y="347" type="curve" smooth="yes"/>
      <point x="184" y="500"/>
      <point x="247" y="598"/>
      <point x="346" y="598" type="curve" smooth="yes"/>
      <point x="445" y="598"/>
      <point x="508" y="500"/>
      <point x="508" y="347" type="curve" smooth="yes"/>
      <point x="508" y="193"/>
      <point x="445" y="96"/>
    </contour>
    <contour>
      <point x="508" y="0" type="line"/>
      <point x="964" y="0" type="line"/>
      <point x="964" y="108" type="line"/>
      <point x="644" y="108" type="line"/>
      <point x="652" y="100" type="line"/>
      <point x="652" y="593" type="line"/>
      <point x="644" y="585" type="line"/>
      <point x="958" y="585" type="line"/>
      <point x="958" y="692" type="line"/>
      <point x="508" y="692" type="line"/>
    </contour>
    <contour>
      <point x="644" y="303" type="line"/>
      <point x="928" y="303" type="line"/>
      <point x="928" y="409" type="line"/>
      <point x="644" y="409" type="line"/>
    </contour>
  </outline>
</glyph>
<glyph name="oe" format="2">
  <advance width="931"/>
  <unicode hex="0153"/>
  <outline>
    <contour>
      <point x="281" y="-15" type="curve" smooth="yes"/>
      <point x="367" y="-15"/>
      <point x="439" y="24"/>
      <point x="476" y="93" type="curve"/>
      <point x="469" y="93" type="line"/>
      <point x="506" y="26"/>
      <point x="582" y="-15"/>
      <point x="670" y="-15" type="curve" smooth="yes"/>
      <point x="784" y="-15"/>
      <point x="878" y="51"/>
      <point x="902" y="149" type="curve"/>
      <point x="785" y="190" type="line"/>
      <point x="774" y="121"/>
      <point x="731" y="78"/>
      <point x="673" y="78" type="curve" smooth="yes"/>
      <point x="595" y="78"/>
      <point x="545" y="156"/>
      <point x="545" y="279" type="curve" smooth="yes"/>
      <point x="545" y="396"/>
      <point x="590" y="471"/>
      <point x="660" y="471" type="curve" smooth="yes"/>
      <point x="722" y="471"/>
      <point x="763" y="413"/>
      <point x="767" y="322" type="curve"/>
      <point x="774" y="329" type="line"/>
      <point x="538" y="329" type="line"/>
      <point x="538" y="247" type="line"/>
      <point x="902" y="247" type="line"/>
      <point x="917" y="441"/>
      <point x="813" y="560"/>
      <point x="664" y="560" type="curve" smooth="yes"/>
      <point x="579" y="560"/>
      <point x="512" y="519"/>
      <point x="471" y="452" type="curve"/>
      <point x="478" y="452" type="line"/>
      <point x="441" y="519"/>
      <point x="365" y="560"/>
      <point x="281" y="560" type="curve" smooth="yes"/>
      <point x="130" y="560"/>
      <point x="26" y="444"/>
      <point x="26" y="273" type="curve" smooth="yes"/>
      <point x="26" y="102"/>
      <point x="130" y="-15"/>
    </contour>
    <contour>
      <point x="285" y="78" type="curve" smooth="yes"/>
      <point x="211" y="78"/>
      <point x="164" y="154"/>
      <point x="164" y="273" type="curve" smooth="yes"/>
      <point x="164" y="393"/>
      <point x="211" y="469"/>
      <point x="285" y="469" type="curve" smooth="yes"/>
      <point x="358" y="469"/>
      <point x="406" y="393"/>
      <point x="406" y="273" type="curve" smooth="yes"/>
      <point x="406" y="154"/>
      <point x="358" y="78"/>
    </contour>
  </outline>
</glyph>
<glyph name="longs" format="2">
  <advance width="314"/>
  <unicode hex="017F"/>
  <outline>
    <contour>
      <point x="53" y="0" type="line"/>
      <point x="183" y="0" type="line"/>
      <point x="183" y="577" type="line" smooth="yes"/>
      <point x="183" y="623"/>
      <point x="220" y="644"/>
      <point x="299" y="627" type="curve"/>
      <point x="314" y="716" type="line"/>
      <point x="150" y="753"/>
      <point x="53" y="698"/>
      <point x="53" y="564" type="curve" smooth="yes"/>
    </contour>
  </outline>
</glyph>
<glyph name="Schwa" format="2">
  <advance width="692"/>
  <unicode hex="018F"/>
  <outline>
    <contour>
      <point x="340" y="-14" type="curve" smooth="yes"/>
      <point x="530" y="-14"/>
      <point x="660" y="131"/>
      <point x="660" y="343" type="curve" smooth="yes"/>
      <point x="660" y="559"/>
      <point x="526" y="706"/>
      <point x="330" y="706" type="curve" smooth="yes"/>
      <point x="190" y="706"/>
      <point x="74" y="626"/>
      <point x="42" y="504" type="curve"/>
      <point x="178" y="464" type="line"/>
      <point x="197" y="547"/>
      <point x="258" y="600"/>
      <point x="336" y="600" type="curve" smooth="yes"/>
      <point x="442" y="600"/>
      <point x="510" y="501"/>
      <point x="510" y="344" type="curve" smooth="yes"/>
      <point x="510" y="191"/>
      <point x="447" y="94"/>
      <point x="344" y="94" type="curve" smooth="yes"/>
      <point x="253" y="94"/>
      <point x="192" y="170"/>
      <point x="188" y="286" type="curve"/>
      <point x="180" y="278" type="line"/>
      <point x="518" y="278" type="line"/>
      <point x="518" y="382" type="line"/>
      <point x="36" y="382" type="line"/>
      <point x="16" y="146"/>
      <point x="140" y="-14"/>
    </contour>
  </outline>
</glyph>
<glyph name="florin" format="2">
  <advance width="584"/>
  <unicode hex="0192"/>
  <outline>
    <contour>
      <point x="0" y="-14" type="line"/>
      <point x="181" y="-75"/>
      <point x="306" y="-26"/>
      <point x="329" y="148" type="curve" smooth="yes"/>
      <point x="377" y="522" type="line" smooth="yes"/>
      <point x="388" y="605"/>
      <point x="453" y="617"/>
      <point x="556" y="594" type="curve"/>
      <point x="572" y="695" type="line"/>
      <point x="395" y="746"/>
      <point x="271" y="699"/>
      <point x="247" y="515" type="curve" smooth="yes"/>
      <point x="199" y="150" type="line" smooth="yes"/>
      <point x="188" y="69"/>
      <point x="103" y="70"/>
      <point x="16" y="90" type="curve"/>
    </contour>
    <contour>
      <point x="72" y="323" type="line"/>
      <point x="537" y="323" type="line"/>
      <point x="537" y="418" type="line"/>
      <point x="72" y="418" type="line"/>
    </contour>
  </outline>
</glyph>
<glyph name="jdotless" format="2">
  <advance width="249"/>
  <unicode hex="0237"/>
  <anchor x="130" y="545" name="top"/>
  <outline>
    <contour>
      <point x="-63" y="-214" type="line"/>
      <point x="-26" y="-231"/>
      <point x="10" y="-239"/>
      <point x="42" y="-239" type="curve" smooth="yes"/>
      <point x="132" y="-239"/>
      <point x="195" y="-180"/>
      <point x="195" y="-91" type="curve" smooth="yes"/>
      <point x="195" y="545" type="line"/>
      <point x="65" y="545" type="line"/>
      <point x="65" y="-69" type="line" smooth="yes"/>
      <point x="65" y="-106"/>
      <point x="45" y="-126"/>
      <point x="7" y="-126" type="curve" smooth="yes"/>
      <point x="-9" y="-126"/>
      <point x="-28" y="-123"/>
      <point x="-50" y="-115" type="curve"/>
    </contour>
  </outline>
</glyph>
<glyph name="schwa" format="2">
  <advance width="562"/>
  <unicode hex="0259"/>
  <outline>
    <contour>
      <point x="277" y="-15" type="curve" smooth="yes"/>
      <point x="433" y="-15"/>
      <point x="536" y="99"/>
      <point x="536" y="270" type="curve" smooth="yes"/>
      <point x="536" y="442"/>
      <point x="430" y="560"/>
      <point x="275" y="560" type="curve" smooth="yes"/>
      <point x="162" y="560"/>
      <point x="67" y="496"/>
      <point x="41" y="402" type="curve"/>
      <point x="160" y="357" type="line"/>
      <point x="171" y="425"/>
      <point x="215" y="469"/>
      <point x="273" y="469" type="curve" smooth="yes"/>
      <point x="350" y="469"/>
      <point x="398" y="391"/>
      <point x="398" y="268" type="curve" smooth="yes"/>
      <point x="398" y="152"/>
      <point x="351" y="77"/>
      <point x="275" y="77" type="curve" smooth="yes"/>
      <point x="207" y="77"/>
      <point x="164" y="132"/>
      <point x="164" y="220" type="curve"/>
      <point x="156" y="212" type="line"/>
      <point x="406" y="212" type="line"/>
      <point x="406" y="293" type="line"/>
      <point x="30" y="293" type="line"/>
      <point x="15" y="107"/>
      <point x="113" y="-15"/>
    </contour>
  </outline>
</glyph>
<glyph name="gravecomb" format="2">
  <advance width="387"/>
  <unicode hex="0300"/>
  <anchor x="231" y="545" name="_top"/>
  <outline>
    <contour>
      <point x="212" y="603" type="line"/>
      <point x="313" y="603" type="line"/>
      <point x="227" y="755" type="line"/>
      <point x="74" y="755" type="line"/>
    </contour>
  </outline>
</glyph>
<glyph name="acutecomb" format="2">
  <advance width="436"/>
  <unicode hex="0301"/>
  <anchor x="156" y="545" name="_top"/>
  <outline>
    <contour>
      <point x="98" y="603" type="line"/>
      <point x="199" y="603" type="line"/>
      <point x="338" y="755" type="line"/>
      <point x="186" y="755" type="line"/>
    </contour>
  </outline>
</glyph>
<glyph name="circumflexcomb" format="2">
  <advance width="513"/>
  <unicode hex="0302"/>
  <anchor x="259" y="545" name="_top"/>
  <outline>
    <contour>
      <point x="74" y="603" type="line"/>
      <point x="180" y="603" type="line"/>
      <point x="263" y="706" type="line"/>
      <point x="255" y="706" type="line"/>
      <point x="335" y="603" type="line"/>
      <point x="439" y="603" type="line"/>
      <point x="331" y="755" type="line"/>
      <point x="186" y="755" type="line"/>
    </contour>
  </outline>
</glyph>
<glyph name="tildecomb" format="2">
  <advance width="496"/>
  <unicode hex="0303"/>
  <anchor x="247" y="561" name="_top"/>
  <outline>
    <contour>
      <point x="132" y="615" type="line"/>
      <point x="146" y="645"/>
      <point x="156" y="662"/>
      <point x="184" y="662" type="curve" smooth="yes"/>
      <point x="227" y="662"/>
      <point x="246" y="615"/>
      <point x="309" y="615" type="curve" smooth="yes"/>
      <point x="375" y="615"/>
      <point x="416" y="666"/>
      <point x="430" y="742" type="curve"/>
      <point x="365" y="755" type="line"/>
      <point x="352" y="720"/>
      <point x="340" y="700"/>
      <point x="311" y="700" type="curve" smooth="yes"/>
      <point x="269" y="700"/>
      <point x="249" y="747"/>
      <point x="186" y="747" type="curve" smooth="yes"/>
      <point x="122" y="747"/>
      <point x="79" y="698"/>
      <point x="66" y="628" type="curve"/>
    </contour>
  </outline>
</glyph>
<glyph name="macroncomb" format="2">
  <advance width="427"/>
  <unicode hex="0304"/>
  <anchor x="214" y="545" name="_top"/>
  <outline>
    <contour>
      <point x="74" y="620" type="line"/>
      <point x="353" y="620" type="line"/>
      <point x="353" y="705" type="line"/>
      <point x="74" y="705" type="line"/>
    </contour>
  </outline>
</glyph>
<glyph name="brevecomb" format="2">
  <advance width="450"/>
  <unicode hex="0306"/>
  <anchor x="224" y="545" name="_top"/>
  <outline>
    <contour>
      <point x="225" y="599" type="curve" smooth="yes"/>
      <point x="320" y="599"/>
      <point x="376" y="656"/>
      <point x="376" y="752" type="curve"/>
      <point x="290" y="752" type="line"/>
      <point x="290" y="707"/>
      <point x="266" y="681"/>
      <point x="225" y="681" type="curve" smooth="yes"/>
      <point x="184" y="681"/>
      <point x="160" y="707"/>
      <point x="160" y="752" type="curve"/>
      <point x="74" y="752" type="line"/>
      <point x="74" y="656"/>
      <point x="130" y="599"/>
    </contour>
  </outline>
</glyph>
<glyph name="dotaccentcomb" format="2">
  <advance width="282"/>
  <unicode hex="0307"/>
  <anchor x="141" y="545" name="_top"/>
  <outline>
    <contour>
      <point x="74" y="614" type="line"/>
      <point x="208" y="614" type="line"/>
      <point x="208" y="740" type="line"/>
      <point x="74" y="740" type="line"/>
    </contour>
  </outline>
</glyph>
<glyph name="dieresiscomb" format="2">
  <advance width="446"/>
  <unicode hex="0308"/>
  <anchor x="223" y="545" name="_top"/>
  <outline>
    <contour>
      <point x="251" y="615" type="line"/>
      <point x="372" y="615" type="line"/>
      <point x="372" y="736" type="line"/>
      <point x="251" y="736" type="line"/>
    </contour>
    <contour>
      <point x="74" y="615" type="line"/>
      <point x="195" y="615" type="line"/>
      <point x="195" y="736" type="line"/>
      <point x="74" y="736" type="line"/>
    </contour>
  </outline>
</glyph>
<glyph name="ringcomb" format="2">
  <advance width="368"/>
  <unicode hex="030A"/>
  <anchor x="184" y="545" name="_top"/>
  <outline>
    <contour>
      <point x="184" y="599" type="curve" smooth="yes"/>
      <point x="249" y="599"/>
      <point x="294" y="635"/>
      <point x="294" y="688" type="curve" smooth="yes"/>
      <point x="294" y="741"/>
      <point x="249" y="778"/>
      <point x="184" y="778" type="curve" smooth="yes"/>
      <point x="119" y="778"/>
      <point x="74" y="741"/>
      <point x="74" y="688" type="curve" smooth="yes"/>
      <point x="74" y="635"/>
      <point x="119" y="599"/>
    </contour>
    <contour>
      <point x="185" y="651" type="curve" smooth="yes"/>
      <point x="162" y="651"/>
      <point x="147" y="665"/>
      <point x="147" y="687" type="curve" smooth="yes"/>
      <point x="147" y="710"/>
      <point x="162" y="724"/>
      <point x="185" y="724" type="curve" smooth="yes"/>
      <point x="207" y="724"/>
      <point x="221" y="710"/>
      <point x="221" y="687" type="curve" smooth="yes"/>
      <point x="221" y="665"/>
      <point x="207" y="651"/>
    </contour>
  </outline>
</glyph>
<glyph name="hungarumlautcomb" format="2">
  <advance width="504"/>
  <unicode hex="030B"/>
  <anchor x="223" y="545" name="_top"/>
  <outline>
    <contour>
      <point x="220" y="603" type="line"/>
      <point x="316" y="603" type="line"/>
      <point x="430" y="755" type="line"/>
      <point x="301" y="755" type="line"/>
    </contour>
    <contour>
      <point x="74" y="603" type="line"/>
      <point x="169" y="603" type="line"/>
      <point x="268" y="755" type="line"/>
      <point x="141" y="755" type="line"/>
    </contour>
  </outline>
</glyph>
<glyph name="caroncomb" format="2">
  <advance width="515"/>
  <unicode hex="030C"/>
  <anchor x="259" y="544" name="_top"/>
  <outline>
    <contour>
      <point x="184" y="603" type="line"/>
      <point x="333" y="603" type="line"/>
      <point x="441" y="755" type="line"/>
      <point x="331" y="755" type="line"/>
      <point x="255" y="654" type="line"/>
      <point x="263" y="654" type="line"/>
      <point x="182" y="755" type="line"/>
      <point x="74" y="755" type="line"/>
    </contour>
  </outline>
</glyph>
<glyph name="commaaccentcomb" format="2">
  <advance width="279"/>
  <unicode hex="0326"/>
  <anchor x="141" y="0" name="_bottom"/>
  <outline>
    <contour>
      <point x="86" y="-287" type="line"/>
      <point x="156" y="-273"/>
      <point x="205" y="-220"/>
      <point x="205" y="-156" type="curve" smooth="yes"/>
      <point x="205" y="-41" type="line"/>
      <point x="78" y="-41" type="line"/>
      <point x="78" y="-164" type="line"/>
      <point x="139" y="-164" type="line"/>
      <point x="139" y="-167" type="line" smooth="yes"/>
      <point x="139" y="-202"/>
      <point x="113" y="-226"/>
      <point x="74" y="-231" type="curve"/>
    </contour>
  </outline>
</glyph>
<glyph name="cedillacomb" format="2">
  <advance width="379"/>
  <unicode hex="0327"/>
  <anchor x="205" y="0" name="_bottom"/>
  <outline>
    <contour>
      <point x="74" y="-227" type="line"/>
      <point x="212" y="-272"/>
      <point x="305" y="-231"/>
      <point x="305" y="-156" type="curve" smooth="yes"/>
      <point x="305" y="-109"/>
      <point x="270" y="-73"/>
      <point x="210" y="-58" type="curve"/>
      <point x="218" y="-73" type="line"/>
      <point x="253" y="0" type="line"/>
      <point x="171" y="0" type="line"/>
      <point x="128" y="-86" type="line"/>
      <point x="179" y="-91"/>
      <point x="212" y="-106"/>
      <point x="212" y="-134" type="curve" smooth="yes"/>
      <point x="212" y="-167"/>
      <point x="164" y="-179"/>
      <point x="86" y="-149" type="curve"/>
    </contour>
  </outline>
</glyph>
<glyph name="ogonekcomb" format="2">
  <advance width="356"/>
  <unicode hex="0328"/>
  <anchor x="238" y="0" name="_ogonek"/>
  <outline>
    <contour>
      <point x="284" y="-220" type="curve"/>
      <point x="268" y="-142" type="line"/>
      <point x="212" y="-166"/>
      <point x="172" y="-150"/>
      <point x="172" y="-106" type="curve" smooth="yes"/>
      <point x="172" y="-70"/>
      <point x="200" y="-35"/>
      <point x="246" y="-8" type="curve"/>
      <point x="172" y="0" type="line"/>
      <point x="112" y="-32"/>
      <point x="72" y="-90"/>
      <point x="72" y="-144" type="curve" smooth="yes"/>
      <point x="72" y="-224"/>
      <point x="164" y="-260"/>
    </contour>
  </outline>
</glyph>
<glyph name="strokeshortcomb" format="2">
  <advance width="484"/>
  <unicode hex="0335"/>
  <anchor x="242" y="271" name="_center"/>
  <outline>
    <contour>
      <point x="74" y="228" type="line"/>
      <point x="410" y="228" type="line"/>
      <point x="410" y="316" type="line"/>
      <point x="74" y="316" type="line"/>
    </contour>
  </outline>
</glyph>
<glyph name="slashshortcomb" format="2">
  <advance width="673"/>
  <unicode hex="0337"/>
  <anchor x="337" y="272" name="_center"/>
  <outline>
    <contour>
      <point x="153" y="-37" type="line"/>
      <point x="599" y="517" type="line"/>
      <point x="521" y="580" type="line"/>
      <point x="74" y="26" type="line"/>
    </contour>
  </outline>
</glyph>
<glyph name="slashlongcomb" format="2">
  <advance width="804"/>
  <unicode hex="0338"/>
  <anchor x="402" y="346" name="_center"/>
  <outline>
    <contour>
      <point x="162" y="-12" type="line"/>
      <point x="730" y="622" type="line"/>
      <point x="642" y="704" type="line"/>
      <point x="74" y="70" type="line"/>
    </contour>
  </outline>
</glyph>
<glyph name="Germandbls" format="2">
  <advance width="686"/>
  <unicode hex="1E9E"/>
  <outline>
    <contour>
      <point x="409" y="-14" type="curve" smooth="yes"/>
      <point x="562" y="-14"/>
      <point x="657" y="76"/>
      <point x="657" y="209" type="curve" smooth="yes"/>
      <point x="657" y="318"/>
      <point x="583" y="394"/>
      <point x="464" y="422" type="curve"/>
      <point x="468" y="383" type="line"/>
      <point x="589" y="648" type="line"/>
      <point x="505" y="694"/>
      <point x="406" y="720"/>
      <point x="320" y="720" type="curve" smooth="yes"/>
      <point x="178" y="720"/>
      <point x="64" y="640"/>
      <point x="64" y="495" type="curve" smooth="yes"/>
      <point x="64" y="0" type="line"/>
      <point x="208" y="0" type="line"/>
      <point x="208" y="482" type="line" smooth="yes"/>
      <point x="208" y="570"/>
      <point x="260" y="605"/>
      <point x="325" y="605" type="curve" smooth="yes"/>
      <point x="358" y="605"/>
      <point x="393" y="597"/>
      <point x="428" y="582" type="curve"/>
      <point x="428" y="624" type="line"/>
      <point x="308" y="347" type="line"/>
      <point x="441" y="336"/>
      <point x="517" y="286"/>
      <point x="517" y="202" type="curve" smooth="yes"/>
      <point x="517" y="131"/>
      <point x="462" y="97"/>
      <point x="394" y="97" type="curve" smooth="yes"/>
      <point x="360" y="97"/>
      <point x="321" y="105"/>
      <point x="286" y="118" type="curve"/>
      <point x="261" y="14" type="line"/>
      <point x="296" y="1"/>
      <point x="346" y="-14"/>
    </contour>
  </outline>
</glyph>
<glyph name="endash" format="2">
  <advance width="465"/>
  <unicode hex="2013"/>
  <outline>
    <contour>
      <point x="52" y="223" type="line"/>
      <point x="413" y="223" type="line"/>
      <point x="413" y="327" type="line"/>
      <point x="52" y="327" type="line"/>
    </contour>
  </outline>
</glyph>
<glyph name="emdash" format="2">
  <advance width="930"/>
  <unicode hex="2014"/>
  <outline>
    <contour>
      <point x="0" y="223" type="line"/>
      <point x="930" y="223" type="line"/>
      <point x="930" y="327" type="line"/>
      <point x="0" y="327" type="line"/>
    </contour>
  </outline>
</glyph>
<glyph name="horizontalbar" format="2">
  <advance width="930"/>
  <unicode hex="2015"/>
  <outline>
    <contour>
      <point x="52" y="223" type="line"/>
      <point x="878" y="223" type="line"/>
      <point x="878" y="327" type="line"/>
      <point x="52" y="327" type="line"/>
    </contour>
  </outline>
</glyph>
<glyph name="daggerdbl" format="2">
  <advance width="526"/>
  <unicode hex="2021"/>
  <outline>
    <contour>
      <point x="194" y="-48" type="line"/>
      <point x="332" y="-48" type="line"/>
      <point x="332" y="692" type="line"/>
      <point x="194" y="692" type="line"/>
    </contour>
    <contour>
      <point x="25" y="138" type="line"/>
      <point x="501" y="138" type="line"/>
      <point x="501" y="268" type="line"/>
      <point x="25" y="268" type="line"/>
    </contour>
    <contour>
      <point x="25" y="414" type="line"/>
      <point x="501" y="414" type="line"/>
      <point x="501" y="544" type="line"/>
      <point x="25" y="544" type="line"/>
    </contour>
  </outline>
</glyph>
<glyph name="bullet" format="2">
  <advance width="433"/>
  <unicode hex="2022"/>
  <outline>
    <contour>
      <point x="217" y="194" type="curve" smooth="yes"/>
      <point x="299" y="194"/>
      <point x="359" y="256"/>
      <point x="359" y="339" type="curve" smooth="yes"/>
      <point x="359" y="421"/>
      <point x="299" y="483"/>
      <point x="217" y="483" type="curve" smooth="yes"/>
      <point x="135" y="483"/>
      <point x="74" y="421"/>
      <point x="74" y="339" type="curve" smooth="yes"/>
      <point x="74" y="256"/>
      <point x="135" y="194"/>
    </contour>
  </outline>
</glyph>
<glyph name="minute" format="2">
  <advance width="283"/>
  <unicode hex="2032"/>
  <outline>
    <contour>
      <point x="50" y="418" type="line"/>
      <point x="145" y="418" type="line"/>
      <point x="268" y="692" type="line"/>
      <point x="120" y="692" type="line"/>
    </contour>
  </outline>
</glyph>
<glyph name="second" format="2">
  <advance width="461"/>
  <unicode hex="2033"/>
  <outline>
    <contour>
      <point x="50" y="418" type="line"/>
      <point x="145" y="418" type="line"/>
      <point x="256" y="692" type="line"/>
      <point x="108" y="692" type="line"/>
    </contour>
    <contour>
      <point x="230" y="418" type="line"/>
      <point x="325" y="418" type="line"/>
      <point x="446" y="692" type="line"/>
      <point x="298" y="692" type="line"/>
    </contour>
  </outline>
</glyph>
<glyph name="guilsinglleft" format="2">
  <advance width="372"/>
  <unicode hex="2039"/>
  <outline>
    <contour>
      <point x="335" y="20" type="line"/>
      <point x="335" y="140" type="line"/>
      <point x="122" y="260" type="line"/>
      <point x="122" y="252" type="line"/>
      <point x="331" y="368" type="line"/>
      <point x="331" y="486" type="line"/>
      <point x="20" y="306" type="line"/>
      <point x="20" y="206" type="line"/>
    </contour>
  </outline>
</glyph>
<glyph name="fraction" format="2">
  <advance width="198"/>
  <unicode hex="2044"/>
  <outline>
    <contour>
      <point x="-102" y="-15" type="line"/>
      <point x="408" y="644" type="line"/>
      <point x="328" y="707" type="line"/>
      <point x="-182" y="48" type="line"/>
    </contour>
  </outline>
</glyph>
<glyph name="zeroinferior" format="2">
  <advance width="421"/>
  <unicode hex="2080"/>
  <outline>
    <contour>
      <point x="210" y="-78" type="curve" smooth="yes"/>
      <point x="316" y="-78"/>
      <point x="395" y="15"/>
      <point x="395" y="143" type="curve" smooth="yes"/>
      <point x="395" y="271"/>
      <point x="316" y="364"/>
      <point x="210" y="364" type="curve" smooth="yes"/>
      <point x="104" y="364"/>
      <point x="26" y="271"/>
      <point x="26" y="143" type="curve" smooth="yes"/>
      <point x="26" y="15"/>
      <point x="104" y="-78"/>
    </contour>
    <contour>
      <point x="210" y="6" type="curve" smooth="yes"/>
      <point x="168" y="6"/>
      <point x="141" y="60"/>
      <point x="141" y="143" type="curve" smooth="yes"/>
      <point x="141" y="227"/>
      <point x="168" y="282"/>
      <point x="210" y="282" type="curve" smooth="yes"/>
      <point x="253" y="282"/>
      <point x="281" y="229"/>
      <point x="281" y="143" type="curve" smooth="yes"/>
      <point x="281" y="59"/>
      <point x="253" y="6"/>
    </contour>
  </outline>
</glyph>
<glyph name="oneinferior" format="2">
  <advance width="290"/>
  <unicode hex="2081"/>
  <outline>
    <contour>
      <point x="128" y="-68" type="line"/>
      <point x="237" y="-68" type="line"/>
      <point x="237" y="355" type="line"/>
      <point x="141" y="355" type="line"/>
      <point x="109" y="313"/>
      <point x="65" y="285"/>
      <point x="14" y="270" type="curve"/>
      <point x="26" y="159" type="line"/>
      <point x="75" y="171"/>
      <point x="114" y="208"/>
      <point x="133" y="248" type="curve"/>
      <point x="128" y="248" type="line"/>
    </contour>
  </outline>
</glyph>
<glyph name="twoinferior" format="2">
  <advance width="368"/>
  <unicode hex="2082"/>
  <outline>
    <contour>
      <point x="18" y="-68" type="line"/>
      <point x="335" y="-68" type="line"/>
      <point x="335" y="20" type="line"/>
      <point x="150" y="20" type="line"/>
      <point x="153" y="17" type="line"/>
      <point x="200" y="87"/>
      <point x="336" y="112"/>
      <point x="336" y="227" type="curve" smooth="yes"/>
      <point x="336" y="303"/>
      <point x="276" y="364"/>
      <point x="180" y="364" type="curve" smooth="yes"/>
      <point x="103" y="364"/>
      <point x="35" y="323"/>
      <point x="19" y="231" type="curve"/>
      <point x="118" y="217" type="line"/>
      <point x="119" y="262"/>
      <point x="148" y="282"/>
      <point x="176" y="282" type="curve" smooth="yes"/>
      <point x="206" y="282"/>
      <point x="224" y="260"/>
      <point x="224" y="232" type="curve" smooth="yes"/>
      <point x="224" y="135"/>
      <point x="18" y="108"/>
      <point x="18" y="-52" type="curve" smooth="yes"/>
    </contour>
  </outline>
</glyph>
<glyph name="threeinferior" format="2">
  <advance width="368"/>
  <unicode hex="2083"/>
  <outline>
    <contour>
      <point x="177" y="-78" type="curve" smooth="yes"/>
      <point x="274" y="-78"/>
      <point x="347" y="-27"/>
      <point x="347" y="53" type="curve" smooth="yes"/>
      <point x="347" y="109"/>
      <point x="308" y="150"/>
      <point x="250" y="156" type="curve"/>
      <point x="250" y="152" type="line"/>
      <point x="299" y="165"/>
      <point x="328" y="202"/>
      <point x="328" y="247" type="curve" smooth="yes"/>
      <point x="328" y="315"/>
      <point x="266" y="364"/>
      <point x="178" y="364" type="curve" smooth="yes"/>
      <point x="90" y="364"/>
      <point x="27" y="318"/>
      <point x="21" y="244" type="curve"/>
      <point x="118" y="231" type="line"/>
      <point x="125" y="271"/>
      <point x="148" y="288"/>
      <point x="173" y="288" type="curve" smooth="yes"/>
      <point x="200" y="288"/>
      <point x="217" y="269"/>
      <point x="217" y="237" type="curve" smooth="yes"/>
      <point x="217" y="206"/>
      <point x="198" y="185"/>
      <point x="169" y="185" type="curve" smooth="yes"/>
      <point x="132" y="185" type="line"/>
      <point x="132" y="118" type="line"/>
      <point x="179" y="118" type="line" smooth="yes"/>
      <point x="212" y="118"/>
      <point x="234" y="95"/>
      <point x="234" y="60" type="curve" smooth="yes"/>
      <point x="234" y="23"/>
      <point x="213" y="-1"/>
      <point x="180" y="-1" type="curve" smooth="yes"/>
      <point x="146" y="-1"/>
      <point x="123" y="25"/>
      <point x="119" y="65" type="curve"/>
      <point x="10" y="39" type="line"/>
      <point x="18" y="-30"/>
      <point x="82" y="-78"/>
    </contour>
  </outline>
</glyph>
<glyph name="fourinferior" format="2">
  <advance width="384"/>
  <unicode hex="2084"/>
  <outline>
    <contour>
      <point x="209" y="-68" type="line"/>
      <point x="318" y="-68" type="line"/>
      <point x="318" y="353" type="line"/>
      <point x="225" y="353" type="line"/>
      <point x="12" y="78" type="line"/>
      <point x="12" y="9" type="line"/>
      <point x="374" y="9" type="line"/>
      <point x="374" y="94" type="line"/>
      <point x="102" y="94" type="line"/>
      <point x="104" y="89" type="line"/>
      <point x="213" y="231" type="line"/>
      <point x="209" y="231" type="line"/>
    </contour>
  </outline>
</glyph>
<glyph name="fiveinferior" format="2">
  <advance width="375"/>
  <unicode hex="2085"/>
  <outline>
    <contour>
      <point x="199" y="-78" type="curve" smooth="yes"/>
      <point x="293" y="-78"/>
      <point x="359" y="-28"/>
      <point x="359" y="68" type="curve" smooth="yes"/>
      <point x="359" y="153"/>
      <point x="309" y="207"/>
      <point x="224" y="207" type="curve" smooth="yes"/>
      <point x="160" y="207"/>
      <point x="124" y="183"/>
      <point x="111" y="149" type="curve"/>
      <point x="134" y="149" type="line"/>
      <point x="152" y="273" type="line"/>
      <point x="336" y="273" type="line"/>
      <point x="336" y="355" type="line"/>
      <point x="65" y="355" type="line"/>
      <point x="36" y="117" type="line"/>
      <point x="123" y="101" type="line"/>
      <point x="136" y="120"/>
      <point x="158" y="130"/>
      <point x="179" y="130" type="curve" smooth="yes"/>
      <point x="211" y="130"/>
      <point x="242" y="109"/>
      <point x="242" y="66" type="curve" smooth="yes"/>
      <point x="242" y="25"/>
      <point x="215" y="7"/>
      <point x="189" y="7" type="curve" smooth="yes"/>
      <point x="165" y="7"/>
      <point x="142" y="22"/>
      <point x="142" y="48" type="curve"/>
      <point x="38" y="37" type="line"/>
      <point x="47" y="-32"/>
      <point x="109" y="-78"/>
    </contour>
  </outline>
</glyph>
<glyph name="sixinferior" format="2">
  <advance width="396"/>
  <unicode hex="2086"/>
  <outline>
    <contour>
      <point x="209" y="-78" type="curve" smooth="yes"/>
      <point x="306" y="-78"/>
      <point x="373" y="-19"/>
      <point x="373" y="67" type="curve" smooth="yes"/>
      <point x="373" y="149"/>
      <point x="309" y="203"/>
      <point x="214" y="203" type="curve" smooth="yes"/>
      <point x="156" y="203"/>
      <point x="108" y="174"/>
      <point x="96" y="135" type="curve"/>
      <point x="123" y="135" type="line"/>
      <point x="124" y="224"/>
      <point x="143" y="280"/>
      <point x="207" y="280" type="curve" smooth="yes"/>
      <point x="241" y="280"/>
      <point x="265" y="264"/>
      <point x="274" y="231" type="curve"/>
      <point x="359" y="265" type="line"/>
      <point x="341" y="323"/>
      <point x="277" y="361"/>
      <point x="204" y="361" type="curve" smooth="yes"/>
      <point x="89" y="361"/>
      <point x="26" y="273"/>
      <point x="26" y="134" type="curve" smooth="yes"/>
      <point x="26" y="10"/>
      <point x="90" y="-78"/>
    </contour>
    <contour>
      <point x="203" y="-8" type="curve" smooth="yes"/>
      <point x="169" y="-8"/>
      <point x="143" y="20"/>
      <point x="143" y="61" type="curve" smooth="yes"/>
      <point x="143" y="105"/>
      <point x="168" y="132"/>
      <point x="202" y="132" type="curve" smooth="yes"/>
      <point x="237" y="132"/>
      <point x="263" y="104"/>
      <point x="263" y="64" type="curve" smooth="yes"/>
      <point x="263" y="20"/>
      <point x="238" y="-8"/>
    </contour>
  </outline>
</glyph>
<glyph name="seveninferior" format="2">
  <advance width="349"/>
  <unicode hex="2087"/>
  <outline>
    <contour>
      <point x="83" y="-68" type="curve"/>
      <point x="196" y="-68" type="line"/>
      <point x="214" y="102"/>
      <point x="262" y="227"/>
      <point x="342" y="292" type="curve"/>
      <point x="342" y="355" type="line"/>
      <point x="8" y="355" type="line"/>
      <point x="8" y="271" type="line"/>
      <point x="214" y="271" type="line"/>
      <point x="212" y="275" type="line"/>
      <point x="144" y="192"/>
      <point x="94" y="61"/>
    </contour>
  </outline>
</glyph>
<glyph name="eightinferior" format="2">
  <advance width="402"/>
  <unicode hex="2088"/>
  <outline>
    <contour>
      <point x="201" y="-75" type="curve" smooth="yes"/>
      <point x="308" y="-75"/>
      <point x="382" y="-24"/>
      <point x="382" y="51" type="curve" smooth="yes"/>
      <point x="382" y="97"/>
      <point x="358" y="137"/>
      <point x="311" y="162" type="curve"/>
      <point x="311" y="157" type="line"/>
      <point x="346" y="176"/>
      <point x="365" y="205"/>
      <point x="365" y="244" type="curve" smooth="yes"/>
      <point x="365" y="315"/>
      <point x="299" y="364"/>
      <point x="201" y="364" type="curve" smooth="yes"/>
      <point x="103" y="364"/>
      <point x="37" y="315"/>
      <point x="37" y="244" type="curve" smooth="yes"/>
      <point x="37" y="207"/>
      <point x="55" y="178"/>
      <point x="93" y="157" type="curve"/>
      <point x="93" y="162" type="line"/>
      <point x="46" y="137"/>
      <point x="21" y="97"/>
      <point x="21" y="51" type="curve" smooth="yes"/>
      <point x="21" y="-24"/>
      <point x="94" y="-75"/>
    </contour>
    <contour>
      <point x="201" y="6" type="curve" smooth="yes"/>
      <point x="161" y="6"/>
      <point x="135" y="30"/>
      <point x="135" y="68" type="curve" smooth="yes"/>
      <point x="135" y="105"/>
      <point x="161" y="129"/>
      <point x="201" y="129" type="curve" smooth="yes"/>
      <point x="241" y="129"/>
      <point x="267" y="105"/>
      <point x="267" y="68" type="curve" smooth="yes"/>
      <point x="267" y="30"/>
      <point x="241" y="6"/>
    </contour>
    <contour>
      <point x="201" y="189" type="curve" smooth="yes"/>
      <point x="166" y="189"/>
      <point x="142" y="207"/>
      <point x="142" y="236" type="curve" smooth="yes"/>
      <point x="142" y="265"/>
      <point x="166" y="284"/>
      <point x="201" y="284" type="curve" smooth="yes"/>
      <point x="236" y="284"/>
      <point x="261" y="265"/>
      <point x="261" y="236" type="curve" smooth="yes"/>
      <point x="261" y="207"/>
      <point x="236" y="189"/>
    </contour>
  </outline>
</glyph>
<glyph name="nineinferior" format="2">
  <advance width="400"/>
  <unicode hex="2089"/>
  <outline>
    <contour>
      <point x="168" y="-77" type="curve" smooth="yes"/>
      <point x="290" y="-84"/>
      <point x="372" y="10"/>
      <point x="372" y="153" type="curve" smooth="yes"/>
      <point x="372" y="271"/>
      <point x="306" y="361"/>
      <point x="187" y="361" type="curve" smooth="yes"/>
      <point x="86" y="361"/>
      <point x="20" y="299"/>
      <point x="20" y="210" type="curve" smooth="yes"/>
      <point x="20" y="130"/>
      <point x="88" y="79"/>
      <point x="174" y="79" type="curve" smooth="yes"/>
      <point x="220" y="79"/>
      <point x="250" y="89"/>
      <point x="280" y="113" type="curve"/>
      <point x="274" y="113" type="line"/>
      <point x="263" y="54"/>
      <point x="231" y="2"/>
      <point x="176" y="2" type="curve" smooth="yes"/>
      <point x="141" y="2"/>
      <point x="116" y="16"/>
      <point x="107" y="46" type="curve"/>
      <point x="22" y="13" type="line"/>
      <point x="41" y="-36"/>
      <point x="98" y="-73"/>
    </contour>
    <contour>
      <point x="193" y="151" type="curve" smooth="yes"/>
      <point x="152" y="151"/>
      <point x="125" y="177"/>
      <point x="125" y="216" type="curve" smooth="yes"/>
      <point x="125" y="258"/>
      <point x="154" y="289"/>
      <point x="194" y="289" type="curve" smooth="yes"/>
      <point x="231" y="289"/>
      <point x="256" y="256"/>
      <point x="256" y="216" type="curve" smooth="yes"/>
      <point x="256" y="175"/>
      <point x="229" y="151"/>
    </contour>
  </outline>
</glyph>
<glyph name="plusinferior" format="2">
  <advance width="330"/>
  <unicode hex="208A"/>
  <outline>
    <contour>
      <point x="126" y="-2" type="line"/>
      <point x="206" y="-2" type="line"/>
      <point x="206" y="283" type="line"/>
      <point x="126" y="283" type="line"/>
    </contour>
    <contour>
      <point x="22" y="103" type="line"/>
      <point x="309" y="103" type="line"/>
      <point x="309" y="176" type="line"/>
      <point x="22" y="176" type="line"/>
    </contour>
  </outline>
</glyph>
<glyph name="equalinferior" format="2">
  <advance width="329"/>
  <unicode hex="208C"/>
  <outline>
    <contour>
      <point x="24" y="53" type="line"/>
      <point x="305" y="53" type="line"/>
      <point x="305" y="126" type="line"/>
      <point x="24" y="126" type="line"/>
    </contour>
    <contour>
      <point x="24" y="153" type="line"/>
      <point x="305" y="153" type="line"/>
      <point x="305" y="225" type="line"/>
      <point x="24" y="225" type="line"/>
    </contour>
  </outline>
</glyph>
<glyph name="parenleftinferior" format="2">
  <advance width="197"/>
  <unicode hex="208D"/>
  <outline>
    <contour>
      <point x="124" y="-143" type="curve"/>
      <point x="196" y="-89" type="line"/>
      <point x="157" y="-21"/>
      <point x="140" y="60"/>
      <point x="140" y="143" type="curve" smooth="yes"/>
      <point x="140" y="233"/>
      <point x="158" y="314"/>
      <point x="195" y="375" type="curve"/>
      <point x="123" y="429" type="line"/>
      <point x="65" y="352"/>
      <point x="30" y="247"/>
      <point x="30" y="143" type="curve" smooth="yes"/>
      <point x="30" y="43"/>
      <point x="64" y="-64"/>
    </contour>
  </outline>
</glyph>
<glyph name="euro" format="2">
  <advance width="688"/>
  <unicode hex="20AC"/>
  <anchor x="391.8" y="0" name="bottom"/>
  <anchor x="380.4" y="692" name="top"/>
  <outline>
    <contour>
      <point x="9" y="365" type="line"/>
      <point x="427" y="365" type="line"/>
      <point x="427" y="443" type="line"/>
      <point x="9" y="443" type="line"/>
    </contour>
    <contour>
      <point x="9" y="247" type="line"/>
      <point x="427" y="247" type="line"/>
      <point x="427" y="326" type="line"/>
      <point x="9" y="326" type="line"/>
    </contour>
    <contour>
      <point x="380" y="-14" type="curve" smooth="yes"/>
      <point x="531" y="-14"/>
      <point x="645" y="84"/>
      <point x="667" y="228" type="curve"/>
      <point x="529" y="276" type="line"/>
      <point x="519" y="166"/>
      <point x="462" y="96"/>
      <point x="380" y="96" type="curve" smooth="yes"/>
      <point x="283" y="96"/>
      <point x="221" y="194"/>
      <point x="221" y="348" type="curve" smooth="yes"/>
      <point x="221" y="501"/>
      <point x="283" y="598"/>
      <point x="380" y="598" type="curve" smooth="yes"/>
      <point x="455" y="598"/>
      <point x="510" y="540"/>
      <point x="521" y="448" type="curve"/>
      <point x="656" y="488" type="line"/>
      <point x="627" y="621"/>
      <point x="520" y="706"/>
      <point x="380" y="706" type="curve" smooth="yes"/>
      <point x="200" y="706"/>
      <point x="76" y="562"/>
      <point x="76" y="350" type="curve" smooth="yes"/>
      <point x="76" y="134"/>
      <point x="200" y="-14"/>
    </contour>
  </outline>
</glyph>
<glyph name="published" format="2">
  <advance width="832"/>
  <unicode hex="2117"/>
  <outline>
    <contour>
      <point x="277" y="145" type="line"/>
      <point x="377" y="145" type="line"/>
      <point x="377" y="484" type="line"/>
      <point x="296" y="449" type="line"/>
      <point x="440" y="449" type="line" smooth="yes"/>
      <point x="467" y="449"/>
      <point x="482" y="435"/>
      <point x="482" y="410" type="curve" smooth="yes"/>
      <point x="482" y="384"/>
      <point x="466" y="369"/>
      <point x="438" y="369" type="curve" smooth="yes"/>
      <point x="331" y="369" type="line"/>
      <point x="331" y="283" type="line"/>
      <point x="434" y="283" type="line" smooth="yes"/>
      <point x="524" y="283"/>
      <point x="583" y="332"/>
      <point x="583" y="412" type="curve" smooth="yes"/>
      <point x="583" y="487"/>
      <point x="525" y="535"/>
      <point x="436" y="535" type="curve" smooth="yes"/>
      <point x="277" y="535" type="line"/>
    </contour>
    <contour>
      <point x="416" y="-44" type="curve" smooth="yes"/>
      <point x="638" y="-44"/>
      <point x="798" y="120"/>
      <point x="798" y="340" type="curve" smooth="yes"/>
      <point x="798" y="560"/>
      <point x="638" y="724"/>
      <point x="416" y="724" type="curve" smooth="yes"/>
      <point x="194" y="724"/>
      <point x="34" y="560"/>
      <point x="34" y="340" type="curve" smooth="yes"/>
      <point x="34" y="120"/>
      <point x="194" y="-44"/>
    </contour>
    <contour>
      <point x="416" y="49" type="curve" smooth="yes"/>
      <point x="249" y="49"/>
      <point x="141" y="161"/>
      <point x="141" y="340" type="curve" smooth="yes"/>
      <point x="141" y="519"/>
      <point x="249" y="631"/>
      <point x="416" y="631" type="curve" smooth="yes"/>
      <point x="583" y="631"/>
      <point x="691" y="519"/>
      <point x="691" y="340" type="curve" smooth="yes"/>
      <point x="691" y="161"/>
      <point x="583" y="49"/>
    </contour>
  </outline>
</glyph>
<glyph name="trademark" format="2">
  <advance width="757"/>
  <unicode hex="2122"/>
  <outline>
    <contour>
      <point x="343" y="340" type="line"/>
      <point x="437" y="340" type="line"/>
      <point x="437" y="619" type="line"/>
      <point x="418" y="615" type="line"/>
      <point x="512" y="340" type="line"/>
      <point x="563" y="340" type="line"/>
      <point x="653" y="620" type="line"/>
      <point x="635" y="623" type="line"/>
      <point x="635" y="340" type="line"/>
      <point x="737" y="340" type="line"/>
      <point x="737" y="692" type="line"/>
      <point x="612" y="692" type="line"/>
      <point x="527" y="450" type="line"/>
      <point x="567" y="450" type="line"/>
      <point x="475" y="692" type="line"/>
      <point x="343" y="692" type="line"/>
    </contour>
    <contour>
      <point x="113" y="340" type="line"/>
      <point x="218" y="340" type="line"/>
      <point x="218" y="617" type="line"/>
      <point x="113" y="617" type="line"/>
    </contour>
    <contour>
      <point x="20" y="608" type="line"/>
      <point x="312" y="608" type="line"/>
      <point x="312" y="692" type="line"/>
      <point x="20" y="692" type="line"/>
    </contour>
  </outline>
</glyph>
<glyph name="minus" format="2">
  <advance width="542"/>
  <unicode hex="2212"/>
  <outline>
    <contour>
      <point x="38" y="232" type="line"/>
      <point x="504" y="232" type="line"/>
      <point x="504" y="337" type="line"/>
      <point x="38" y="337" type="line"/>
    </contour>
  </outline>
</glyph>
<glyph name="approxequal" format="2">
  <advance width="596"/>
  <unicode hex="2248"/>
  <outline>
    <contour>
      <point x="393" y="137" type="curve" smooth="yes"/>
      <point x="473" y="137"/>
      <point x="536" y="183"/>
      <point x="549" y="286" type="curve"/>
      <point x="461" y="309" type="line"/>
      <point x="456" y="267"/>
      <point x="428" y="241"/>
      <point x="389" y="241" type="curve" smooth="yes"/>
      <point x="331" y="241"/>
      <point x="288" y="308"/>
      <point x="207" y="308" type="curve" smooth="yes"/>
      <point x="123" y="308"/>
      <point x="61" y="261"/>
      <point x="47" y="159" type="curve"/>
      <point x="141" y="137" type="line"/>
      <point x="147" y="177"/>
      <point x="174" y="202"/>
      <point x="211" y="202" type="curve" smooth="yes"/>
      <point x="269" y="202"/>
      <point x="312" y="137"/>
    </contour>
    <contour>
      <point x="393" y="328" type="curve" smooth="yes"/>
      <point x="473" y="328"/>
      <point x="536" y="374"/>
      <point x="549" y="478" type="curve"/>
      <point x="461" y="500" type="line"/>
      <point x="456" y="458"/>
      <point x="428" y="432"/>
      <point x="389" y="432" type="curve" smooth="yes"/>
      <point x="331" y="432"/>
      <point x="288" y="499"/>
      <point x="207" y="499" type="curve" smooth="yes"/>
      <point x="123" y="499"/>
      <point x="61" y="453"/>
      <point x="47" y="350" type="curve"/>
      <point x="141" y="328" type="line"/>
      <point x="147" y="369"/>
      <point x="174" y="394"/>
      <point x="211" y="394" type="curve" smooth="yes"/>
      <point x="269" y="394"/>
      <point x="312" y="328"/>
    </contour>
  </outline>
</glyph>
<glyph name="notequal" format="2">
  <advance width="566"/>
  <unicode hex="2260"/>
  <outline>
    <contour>
      <point x="163" y="-4" type="line"/>
      <point x="460" y="494" type="line"/>
      <point x="378" y="556" type="line"/>
      <point x="80" y="55" type="line"/>
    </contour>
    <component base="equal"/>
  </outline>
</glyph>
<glyph name="equivalence" format="2">
  <advance width="568"/>
  <unicode hex="2261"/>
  <outline>
    <contour>
      <point x="64" y="253" type="line"/>
      <point x="504" y="253" type="line"/>
      <point x="504" y="335" type="line"/>
      <point x="64" y="335" type="line"/>
    </contour>
    <contour>
      <point x="64" y="398" type="line"/>
      <point x="504" y="398" type="line"/>
      <point x="504" y="480" type="line"/>
      <point x="64" y="480" type="line"/>
    </contour>
    <contour>
      <point x="64" y="108" type="line"/>
      <point x="504" y="108" type="line"/>
      <point x="504" y="190" type="line"/>
      <point x="64" y="190" type="line"/>
    </contour>
  </outline>
</glyph>
<glyph name="lessequal" format="2">
  <advance width="552"/>
  <unicode hex="2264"/>
  <outline>
    <contour>
      <point x="502" y="0" type="line"/>
      <point x="502" y="94" type="line"/>
      <point x="50" y="94" type="line"/>
      <point x="50" y="0" type="line"/>
    </contour>
    <contour>
      <point x="501" y="126" type="line"/>
      <point x="501" y="239" type="line"/>
      <point x="134" y="359" type="line"/>
      <point x="134" y="321" type="line"/>
      <point x="500" y="453" type="line"/>
      <point x="500" y="566" type="line"/>
      <point x="50" y="390" type="line"/>
      <point x="50" y="290" type="line"/>
    </contour>
  </outline>
</glyph>
<glyph name="greaterequal" format="2">
  <advance width="552"/>
  <unicode hex="2265"/>
  <outline>
    <contour>
      <point x="50" y="0" type="line"/>
      <point x="502" y="0" type="line"/>
      <point x="502" y="94" type="line"/>
      <point x="50" y="94" type="line"/>
    </contour>
    <contour>
      <point x="51" y="126" type="line"/>
      <point x="502" y="290" type="line"/>
      <point x="502" y="390" type="line"/>
      <point x="52" y="566" type="line"/>
      <point x="52" y="453" type="line"/>
      <point x="418" y="321" type="line"/>
      <point x="418" y="359" type="line"/>
      <point x="51" y="239" type="line"/>
    </contour>
  </outline>
</glyph>
<glyph name="downBlackTriangle" format="2">
  <advance width="600"/>
  <unicode hex="25BC"/>
  <outline>
    <contour>
      <point x="284" y="-2" type="line" smooth="yes"/>
      <point x="293" y="-20"/>
      <point x="307" y="-20"/>
      <point x="316" y="-2" type="curve" smooth="yes"/>
      <point x="570" y="522" type="line" smooth="yes"/>
      <point x="576" y="534"/>
      <point x="570" y="544"/>
      <point x="556" y="544" type="curve" smooth="yes"/>
      <point x="44" y="544" type="line" smooth="yes"/>
      <point x="30" y="544"/>
      <point x="24" y="534"/>
      <point x="30" y="522" type="curve" smooth="yes"/>
    </contour>
  </outline>
</glyph>
<glyph name="I_J.dlig" format="2">
  <advance width="604"/>
  <outline>
    <contour>
      <point x="72" y="383" type="line"/>
      <point x="212" y="383" type="line"/>
      <point x="212" y="692" type="line"/>
      <point x="72" y="692" type="line"/>
    </contour>
    <component base="J" xOffset="56"/>
  </outline>
</glyph>
<glyph name="a.sc" format="2">
  <advance width="593"/>
  <anchor x="574" y="7" name="ogonek"/>
  <anchor x="295" y="598" name="top"/>
  <outline>
    <contour>
      <point x="11" y="0" type="line"/>
      <point x="143" y="0" type="line"/>
      <point x="295" y="463" type="line"/>
      <point x="288" y="463" type="line"/>
      <point x="436" y="0" type="line"/>
      <point x="581" y="0" type="line"/>
      <point x="369" y="598" type="line"/>
      <point x="223" y="598" type="line"/>
    </contour>
    <contour>
      <point x="177" y="137" type="line"/>
      <point x="398" y="137" type="line"/>
      <point x="398" y="232" type="line"/>
      <point x="177" y="232" type="line"/>
    </contour>
  </outline>
</glyph>
<glyph name="a.ss01" format="2">
  <advance width="606"/>
  <anchor x="299" y="0" name="bottom"/>
  <anchor x="539" y="8" name="ogonek"/>
  <anchor x="299" y="544" name="top"/>
  <outline>
    <contour>
      <point x="249" y="-12" type="curve" smooth="yes"/>
      <point x="338" y="-12"/>
      <point x="409" y="38"/>
      <point x="426" y="115" type="curve"/>
      <point x="419" y="115" type="line"/>
      <point x="419" y="0" type="line"/>
      <point x="547" y="0" type="line"/>
      <point x="547" y="544" type="line"/>
      <point x="417" y="544" type="line"/>
      <point x="417" y="443" type="line"/>
      <point x="424" y="443" type="line"/>
      <point x="406" y="513"/>
      <point x="336" y="556"/>
      <point x="251" y="556" type="curve" smooth="yes"/>
      <point x="117" y="556"/>
      <point x="26" y="444"/>
      <point x="26" y="273" type="curve" smooth="yes"/>
      <point x="26" y="102"/>
      <point x="116" y="-12"/>
    </contour>
    <contour>
      <point x="289" y="82" type="curve" smooth="yes"/>
      <point x="212" y="82"/>
      <point x="164" y="156"/>
      <point x="164" y="274" type="curve" smooth="yes"/>
      <point x="164" y="393"/>
      <point x="213" y="467"/>
      <point x="291" y="467" type="curve" smooth="yes"/>
      <point x="368" y="467"/>
      <point x="417" y="393"/>
      <point x="417" y="274" type="curve" smooth="yes"/>
      <point x="417" y="156"/>
      <point x="367" y="82"/>
    </contour>
  </outline>
</glyph>
<glyph name="acutecomb.case" format="2">
  <advance width="400"/>
  <anchor x="156" y="545" name="_top"/>
  <outline>
    <contour>
      <point x="74" y="597" type="line"/>
      <point x="179" y="597" type="line"/>
      <point x="326" y="727" type="line"/>
      <point x="153" y="727" type="line"/>
    </contour>
  </outline>
</glyph>
<glyph name="acutecomb.sc" format="2">
  <advance width="333"/>
  <anchor x="140" y="444" name="_top"/>
  <outline>
    <contour>
      <point x="59" y="488" type="line"/>
      <point x="159" y="488" type="line"/>
      <point x="274" y="610" type="line"/>
      <point x="121" y="610" type="line"/>
    </contour>
  </outline>
</glyph>
<glyph name="asterisk.ss04" format="2">
  <advance width="402"/>
  <outline>
    <contour>
      <point x="32" y="315" type="line"/>
      <point x="103" y="293" type="line"/>
      <point x="175" y="282" type="line"/>
      <point x="175" y="321" type="line"/>
      <point x="110" y="260" type="line"/>
      <point x="67" y="197" type="line"/>
      <point x="139" y="144" type="line"/>
      <point x="184" y="205" type="line"/>
      <point x="219" y="272" type="line"/>
      <point x="183" y="272" type="line"/>
      <point x="218" y="205" type="line"/>
      <point x="263" y="144" type="line"/>
      <point x="335" y="197" type="line"/>
      <point x="292" y="260" type="line"/>
      <point x="227" y="321" type="line"/>
      <point x="227" y="282" type="line"/>
      <point x="299" y="293" type="line"/>
      <point x="370" y="315" type="line"/>
      <point x="345" y="403" type="line"/>
      <point x="271" y="381" type="line"/>
      <point x="208" y="346" type="line"/>
      <point x="235" y="319" type="line"/>
      <point x="247" y="399" type="line"/>
      <point x="247" y="475" type="line"/>
      <point x="155" y="475" type="line"/>
      <point x="155" y="399" type="line"/>
      <point x="167" y="319" type="line"/>
      <point x="195" y="346" type="line"/>
      <point x="130" y="381" type="line"/>
      <point x="56" y="404" type="line"/>
    </contour>
  </outline>
</glyph>
<glyph name="b.sc" format="2">
  <advance width="570"/>
  <outline>
    <contour>
      <point x="67" y="0" type="line"/>
      <point x="352" y="0" type="line" smooth="yes"/>
      <point x="461" y="0"/>
      <point x="537" y="67"/>
      <point x="537" y="165" type="curve" smooth="yes"/>
      <point x="537" y="257"/>
      <point x="470" y="319"/>
      <point x="369" y="318" type="curve"/>
      <point x="369" y="312" type="line"/>
      <point x="456" y="317"/>
      <point x="513" y="373"/>
      <point x="513" y="452" type="curve" smooth="yes"/>
      <point x="513" y="541"/>
      <point x="442" y="598"/>
      <point x="342" y="598" type="curve" smooth="yes"/>
      <point x="67" y="598" type="line"/>
    </contour>
    <contour>
      <point x="201" y="94" type="line"/>
      <point x="201" y="506" type="line"/>
      <point x="194" y="499" type="line"/>
      <point x="309" y="499" type="line" smooth="yes"/>
      <point x="350" y="499"/>
      <point x="375" y="471"/>
      <point x="375" y="428" type="curve" smooth="yes"/>
      <point x="375" y="385"/>
      <point x="350" y="356"/>
      <point x="310" y="356" type="curve" smooth="yes"/>
      <point x="194" y="356" type="line"/>
      <point x="194" y="259" type="line"/>
      <point x="320" y="259" type="line" smooth="yes"/>
      <point x="364" y="259"/>
      <point x="394" y="228"/>
      <point x="394" y="180" type="curve" smooth="yes"/>
      <point x="394" y="132"/>
      <point x="364" y="101"/>
      <point x="319" y="101" type="curve" smooth="yes"/>
      <point x="194" y="101" type="line"/>
    </contour>
  </outline>
</glyph>
<glyph name="braceleft.case" format="2">
  <advance width="385"/>
  <outline>
    <contour>
      <point x="368" y="-21" type="curve"/>
      <point x="362" y="68" type="line"/>
      <point x="290" y="56"/>
      <point x="258" y="80"/>
      <point x="258" y="136" type="curve" smooth="yes"/>
      <point x="258" y="264" type="line" smooth="yes"/>
      <point x="258" y="319"/>
      <point x="229" y="353"/>
      <point x="175" y="356" type="curve"/>
      <point x="175" y="348" type="line"/>
      <point x="229" y="352"/>
      <point x="256" y="386"/>
      <point x="258" y="440" type="curve" smooth="yes"/>
      <point x="263" y="559" type="line" smooth="yes"/>
      <point x="265" y="616"/>
      <point x="295" y="637"/>
      <point x="367" y="625" type="curve"/>
      <point x="370" y="714" type="line"/>
      <point x="235" y="746"/>
      <point x="131" y="703"/>
      <point x="133" y="592" type="curve" smooth="yes"/>
      <point x="136" y="456" type="line" smooth="yes"/>
      <point x="137" y="417"/>
      <point x="121" y="397"/>
      <point x="82" y="397" type="curve" smooth="yes"/>
      <point x="40" y="397" type="line"/>
      <point x="40" y="308" type="line"/>
      <point x="82" y="308" type="line" smooth="yes"/>
      <point x="121" y="308"/>
      <point x="138" y="288"/>
      <point x="136" y="250" type="curve" smooth="yes"/>
      <point x="128" y="103" type="line" smooth="yes"/>
      <point x="122" y="-8"/>
      <point x="231" y="-53"/>
    </contour>
  </outline>
</glyph>
<glyph name="bracketleft.case" format="2">
  <advance width="305"/>
  <outline>
    <contour>
      <point x="72" y="-44" type="line"/>
      <point x="290" y="-44" type="line"/>
      <point x="290" y="46" type="line"/>
      <point x="209" y="46" type="line"/>
      <point x="216" y="39" type="line"/>
      <point x="216" y="639" type="line"/>
      <point x="209" y="634" type="line"/>
      <point x="289" y="634" type="line"/>
      <point x="289" y="724" type="line"/>
      <point x="72" y="724" type="line"/>
    </contour>
  </outline>
</glyph>
<glyph name="brevebelowcomb.sc" format="2">
  <advance width="385"/>
  <anchor x="193" y="0" name="_bottom"/>
  <anchor x="193" y="-154" name="bottom"/>
  <outline>
    <contour>
      <point x="193" y="-154" type="curve" smooth="yes"/>
      <point x="276" y="-154"/>
      <point x="326" y="-105"/>
      <point x="326" y="-22" type="curve"/>
      <point x="243" y="-22" type="line"/>
      <point x="243" y="-57"/>
      <point x="224" y="-78"/>
      <point x="193" y="-78" type="curve" smooth="yes"/>
      <point x="162" y="-78"/>
      <point x="142" y="-58"/>
      <point x="142" y="-22" type="curve"/>
      <point x="59" y="-22" type="line"/>
      <point x="59" y="-104"/>
      <point x="109" y="-154"/>
    </contour>
  </outline>
</glyph>
<glyph name="brevecomb.case" format="2">
  <advance width="448"/>
  <anchor x="223" y="545" name="_top"/>
  <outline>
    <contour>
      <point x="225" y="592" type="curve" smooth="yes"/>
      <point x="316" y="592"/>
      <point x="374" y="648"/>
      <point x="374" y="737" type="curve"/>
      <point x="285" y="737" type="line"/>
      <point x="285" y="697"/>
      <point x="262" y="673"/>
      <point x="225" y="673" type="curve" smooth="yes"/>
      <point x="187" y="673"/>
      <point x="164" y="697"/>
      <point x="164" y="737" type="curve"/>
      <point x="74" y="737" type="line"/>
      <point x="74" y="648"/>
      <point x="133" y="592"/>
    </contour>
  </outline>
</glyph>
<glyph name="brevecomb.sc" format="2">
  <advance width="385"/>
  <anchor x="191" y="444" name="_top"/>
  <outline>
    <contour>
      <point x="193" y="486" type="curve" smooth="yes"/>
      <point x="276" y="486"/>
      <point x="326" y="535"/>
      <point x="326" y="618" type="curve"/>
      <point x="243" y="618" type="line"/>
      <point x="243" y="583"/>
      <point x="224" y="562"/>
      <point x="193" y="562" type="curve" smooth="yes"/>
      <point x="162" y="562"/>
      <point x="142" y="582"/>
      <point x="142" y="618" type="curve"/>
      <point x="59" y="618" type="line"/>
      <point x="59" y="536"/>
      <point x="109" y="486"/>
    </contour>
  </outline>
</glyph>
<glyph name="c.sc" format="2">
  <advance width="599"/>
  <anchor x="322" y="0" name="bottom"/>
  <anchor x="311" y="598" name="top"/>
  <outline>
    <contour>
      <point x="311" y="-12" type="curve" smooth="yes"/>
      <point x="448" y="-12"/>
      <point x="554" y="73"/>
      <point x="573" y="198" type="curve"/>
      <point x="436" y="245" type="line"/>
      <point x="428" y="148"/>
      <point x="379" y="91"/>
      <point x="310" y="91" type="curve" smooth="yes"/>
      <point x="228" y="91"/>
      <point x="176" y="173"/>
      <point x="176" y="300" type="curve" smooth="yes"/>
      <point x="176" y="427"/>
      <point x="228" y="509"/>
      <point x="311" y="509" type="curve" smooth="yes"/>
      <point x="376" y="509"/>
      <point x="421" y="459"/>
      <point x="430" y="383" type="curve"/>
      <point x="564" y="422" type="line"/>
      <point x="538" y="538"/>
      <point x="439" y="610"/>
      <point x="312" y="610" type="curve" smooth="yes"/>
      <point x="147" y="610"/>
      <point x="33" y="486"/>
      <point x="33" y="303" type="curve" smooth="yes"/>
      <point x="33" y="116"/>
      <point x="146" y="-12"/>
    </contour>
  </outline>
</glyph>
<glyph name="caroncomb.alt" format="2">
  <advance width="258"/>
  <anchor x="26" y="545" name="_topright"/>
  <outline>
    <contour>
      <point x="74" y="564" type="line"/>
      <point x="154" y="564" type="line"/>
      <point x="184" y="763" type="line"/>
      <point x="76" y="763" type="line"/>
    </contour>
  </outline>
</glyph>
<glyph name="caroncomb.alt.sc" format="2">
  <advance width="222"/>
  <anchor x="19" y="444" name="_topright"/>
  <outline>
    <contour>
      <point x="59" y="457" type="line"/>
      <point x="135" y="457" type="line"/>
      <point x="163" y="633" type="line"/>
      <point x="61" y="633" type="line"/>
    </contour>
  </outline>
</glyph>
<glyph name="caroncomb.case" format="2">
  <advance width="524"/>
  <anchor x="264" y="545" name="_top"/>
  <outline>
    <contour>
      <point x="186" y="597" type="line"/>
      <point x="342" y="597" type="line"/>
      <point x="450" y="727" type="line"/>
      <point x="334" y="727" type="line"/>
      <point x="260" y="642" type="line"/>
      <point x="268" y="642" type="line"/>
      <point x="188" y="727" type="line"/>
      <point x="74" y="727" type="line"/>
    </contour>
  </outline>
</glyph>
<glyph name="caroncomb.sc" format="2">
  <advance width="448"/>
  <anchor x="226" y="442" name="_top"/>
  <outline>
    <contour>
      <point x="149" y="488" type="line"/>
      <point x="301" y="488" type="line"/>
      <point x="389" y="610" type="line"/>
      <point x="283" y="610" type="line"/>
      <point x="222" y="534" type="line"/>
      <point x="228" y="534" type="line"/>
      <point x="163" y="610" type="line"/>
      <point x="59" y="610" type="line"/>
    </contour>
  </outline>
</glyph>
<glyph name="cedillacomb.sc" format="2">
  <advance width="315"/>
  <anchor x="171" y="0" name="_bottom"/>
  <outline>
    <contour>
      <point x="59" y="-190" type="line"/>
      <point x="182" y="-229"/>
      <point x="256" y="-191"/>
      <point x="256" y="-129" type="curve" smooth="yes"/>
      <point x="256" y="-92"/>
      <point x="230" y="-61"/>
      <point x="179" y="-45" type="curve"/>
      <point x="188" y="-61" type="line"/>
      <point x="219" y="0" type="line"/>
      <point x="137" y="0" type="line"/>
      <point x="102" y="-69" type="line"/>
      <point x="144" y="-72"/>
      <point x="167" y="-84"/>
      <point x="167" y="-106" type="curve" smooth="yes"/>
      <point x="167" y="-134"/>
      <point x="125" y="-140"/>
      <point x="67" y="-116" type="curve"/>
    </contour>
  </outline>
</glyph>
<glyph name="circumflexcomb.case" format="2">
  <advance width="522"/>
  <anchor x="263" y="545" name="_top"/>
  <outline>
    <contour>
      <point x="74" y="597" type="line"/>
      <point x="189" y="597" type="line"/>
      <point x="266" y="679" type="line"/>
      <point x="258" y="679" type="line"/>
      <point x="336" y="597" type="line"/>
      <point x="448" y="597" type="line"/>
      <point x="339" y="727" type="line"/>
      <point x="186" y="727" type="line"/>
    </contour>
  </outline>
</glyph>
<glyph name="circumflexcomb.sc" format="2">
  <advance width="447"/>
  <anchor x="227" y="444" name="_top"/>
  <outline>
    <contour>
      <point x="59" y="488" type="line"/>
      <point x="161" y="488" type="line"/>
      <point x="229" y="567" type="line"/>
      <point x="223" y="567" type="line"/>
      <point x="288" y="488" type="line"/>
      <point x="388" y="488" type="line"/>
      <point x="298" y="610" type="line"/>
      <point x="152" y="610" type="line"/>
    </contour>
  </outline>
</glyph>
<glyph name="commaaccentcomb.sc" format="2">
  <advance width="241"/>
  <anchor x="121" y="0" name="_bottom"/>
  <outline>
    <contour>
      <point x="70" y="-256" type="line"/>
      <point x="133" y="-242"/>
      <point x="182" y="-191"/>
      <point x="182" y="-135" type="curve" smooth="yes"/>
      <point x="182" y="-29" type="line"/>
      <point x="62" y="-29" type="line"/>
      <point x="62" y="-144" type="line"/>
      <point x="114" y="-144" type="line"/>
      <point x="114" y="-146" type="line" smooth="yes"/>
      <point x="114" y="-174"/>
      <point x="91" y="-196"/>
      <point x="59" y="-201" type="curve"/>
    </contour>
  </outline>
</glyph>
<glyph name="commaturnedabovecomb.sc" format="2">
  <advance width="241"/>
  <anchor x="108" y="444" name="_top"/>
  <outline>
    <contour>
      <point x="171" y="706" type="line"/>
      <point x="106" y="692"/>
      <point x="59" y="640"/>
      <point x="59" y="586" type="curve" smooth="yes"/>
      <point x="59" y="479" type="line"/>
      <point x="179" y="479" type="line"/>
      <point x="179" y="595" type="line"/>
      <point x="127" y="595" type="line"/>
      <point x="127" y="596" type="line" smooth="yes"/>
      <point x="127" y="626"/>
      <point x="151" y="647"/>
      <point x="182" y="651" type="curve"/>
    </contour>
  </outline>
</glyph>
<glyph name="d.sc" format="2">
  <advance width="611"/>
  <anchor x="305" y="0" name="bottom"/>
  <anchor x="156" y="299" name="center"/>
  <anchor x="288" y="598" name="top"/>
  <outline>
    <contour>
      <point x="67" y="0" type="line"/>
      <point x="295" y="0" type="line" smooth="yes"/>
      <point x="461" y="0"/>
      <point x="578" y="123"/>
      <point x="578" y="300" type="curve" smooth="yes"/>
      <point x="578" y="475"/>
      <point x="463" y="598"/>
      <point x="298" y="598" type="curve" smooth="yes"/>
      <point x="67" y="598" type="line"/>
    </contour>
    <contour>
      <point x="201" y="96" type="line"/>
      <point x="201" y="504" type="line"/>
      <point x="194" y="497" type="line"/>
      <point x="290" y="497" type="line" smooth="yes"/>
      <point x="377" y="497"/>
      <point x="434" y="419"/>
      <point x="434" y="301" type="curve" smooth="yes"/>
      <point x="434" y="181"/>
      <point x="377" y="103"/>
      <point x="288" y="103" type="curve" smooth="yes"/>
      <point x="194" y="103" type="line"/>
    </contour>
  </outline>
</glyph>
<glyph name="dagger.sups" format="2">
  <advance width="320"/>
  <outline>
    <contour>
      <point x="109" y="364" type="line"/>
      <point x="211" y="364" type="line"/>
      <point x="211" y="752" type="line"/>
      <point x="109" y="752" type="line"/>
    </contour>
    <contour>
      <point x="20" y="581" type="line"/>
      <point x="300" y="581" type="line"/>
      <point x="300" y="667" type="line"/>
      <point x="20" y="667" type="line"/>
    </contour>
  </outline>
</glyph>
<glyph name="daggerdbl.sups" format="2">
  <advance width="300"/>
  <outline>
    <contour>
      <point x="99" y="364" type="line"/>
      <point x="201" y="364" type="line"/>
      <point x="201" y="752" type="line"/>
      <point x="99" y="752" type="line"/>
    </contour>
    <contour>
      <point x="10" y="581" type="line"/>
      <point x="290" y="581" type="line"/>
      <point x="290" y="667" type="line"/>
      <point x="10" y="667" type="line"/>
    </contour>
    <contour>
      <point x="10" y="451" type="line"/>
      <point x="290" y="451" type="line"/>
      <point x="290" y="537" type="line"/>
      <point x="10" y="537" type="line"/>
    </contour>
  </outline>
</glyph>
<glyph name="dieresiscomb.case" format="2">
  <advance width="465"/>
  <anchor x="233" y="545" name="_top"/>
  <outline>
    <contour>
      <point x="260" y="595" type="line"/>
      <point x="391" y="595" type="line"/>
      <point x="391" y="722" type="line"/>
      <point x="260" y="722" type="line"/>
    </contour>
    <contour>
      <point x="74" y="595" type="line"/>
      <point x="205" y="595" type="line"/>
      <point x="205" y="722" type="line"/>
      <point x="74" y="722" type="line"/>
    </contour>
  </outline>
</glyph>
<glyph name="dieresiscomb.sc" format="2">
  <advance width="389"/>
  <anchor x="195" y="444" name="_top"/>
  <outline>
    <contour>
      <point x="213" y="491" type="line"/>
      <point x="330" y="491" type="line"/>
      <point x="330" y="609" type="line"/>
      <point x="213" y="609" type="line"/>
    </contour>
    <contour>
      <point x="59" y="491" type="line"/>
      <point x="176" y="491" type="line"/>
      <point x="176" y="609" type="line"/>
      <point x="59" y="609" type="line"/>
    </contour>
  </outline>
</glyph>
<glyph name="dotaccentcomb.case" format="2">
  <advance width="290"/>
  <anchor x="145" y="545" name="_top"/>
  <outline>
    <contour>
      <point x="74" y="595" type="line"/>
      <point x="216" y="595" type="line"/>
      <point x="216" y="726" type="line"/>
      <point x="74" y="726" type="line"/>
    </contour>
  </outline>
</glyph>
<glyph name="dotaccentcomb.sc" format="2">
  <advance width="251"/>
  <anchor x="125" y="444" name="_top"/>
  <outline>
    <contour>
      <point x="60" y="490" type="line"/>
      <point x="191" y="490" type="line"/>
      <point x="191" y="608" type="line"/>
      <point x="60" y="608" type="line"/>
    </contour>
  </outline>
</glyph>
<glyph name="dotbelowcomb.sc" format="2">
  <advance width="251"/>
  <anchor x="125" y="0" name="_bottom"/>
  <anchor x="125" y="-144" name="bottom"/>
  <outline>
    <contour>
      <point x="60" y="-144" type="line"/>
      <point x="191" y="-144" type="line"/>
      <point x="191" y="-26" type="line"/>
      <point x="60" y="-26" type="line"/>
    </contour>
  </outline>
</glyph>
<glyph name="e.sc" format="2">
  <advance width="528"/>
  <anchor x="480" y="7" name="ogonek"/>
  <anchor x="275" y="598" name="top"/>
  <outline>
    <contour>
      <point x="67" y="0" type="line"/>
      <point x="487" y="0" type="line"/>
      <point x="487" y="101" type="line"/>
      <point x="196" y="101" type="line"/>
      <point x="203" y="94" type="line"/>
      <point x="203" y="505" type="line"/>
      <point x="196" y="498" type="line"/>
      <point x="482" y="498" type="line"/>
      <point x="482" y="598" type="line"/>
      <point x="67" y="598" type="line"/>
    </contour>
    <contour>
      <point x="196" y="258" type="line"/>
      <point x="457" y="258" type="line"/>
      <point x="457" y="357" type="line"/>
      <point x="196" y="357" type="line"/>
    </contour>
  </outline>
</glyph>
<glyph name="eight.dnom" format="2">
  <advance width="392"/>
  <outline>
    <contour>
      <point x="196" y="-8" type="curve" smooth="yes"/>
      <point x="291" y="-8"/>
      <point x="357" y="36"/>
      <point x="357" y="103" type="curve" smooth="yes"/>
      <point x="357" y="142"/>
      <point x="337" y="176"/>
      <point x="298" y="199" type="curve"/>
      <point x="298" y="194" type="line"/>
      <point x="326" y="211"/>
      <point x="342" y="234"/>
      <point x="342" y="269" type="curve" smooth="yes"/>
      <point x="342" y="333"/>
      <point x="282" y="375"/>
      <point x="196" y="375" type="curve" smooth="yes"/>
      <point x="108" y="375"/>
      <point x="49" y="333"/>
      <point x="49" y="269" type="curve" smooth="yes"/>
      <point x="49" y="237"/>
      <point x="64" y="213"/>
      <point x="94" y="194" type="curve"/>
      <point x="94" y="199" type="line"/>
      <point x="55" y="176"/>
      <point x="34" y="142"/>
      <point x="34" y="103" type="curve" smooth="yes"/>
      <point x="34" y="36"/>
      <point x="100" y="-8"/>
    </contour>
    <contour>
      <point x="196" y="69" type="curve" smooth="yes"/>
      <point x="165" y="69"/>
      <point x="145" y="89"/>
      <point x="145" y="119" type="curve" smooth="yes"/>
      <point x="145" y="149"/>
      <point x="165" y="169"/>
      <point x="196" y="169" type="curve" smooth="yes"/>
      <point x="227" y="169"/>
      <point x="247" y="149"/>
      <point x="247" y="119" type="curve" smooth="yes"/>
      <point x="247" y="89"/>
      <point x="227" y="69"/>
    </contour>
    <contour>
      <point x="196" y="224" type="curve" smooth="yes"/>
      <point x="168" y="224"/>
      <point x="149" y="239"/>
      <point x="149" y="261" type="curve" smooth="yes"/>
      <point x="149" y="284"/>
      <point x="168" y="299"/>
      <point x="196" y="299" type="curve" smooth="yes"/>
      <point x="224" y="299"/>
      <point x="242" y="284"/>
      <point x="242" y="261" type="curve" smooth="yes"/>
      <point x="242" y="239"/>
      <point x="224" y="224"/>
    </contour>
  </outline>
</glyph>
<glyph name="f.sc" format="2">
  <advance width="497"/>
  <outline>
    <contour>
      <point x="67" y="0" type="line"/>
      <point x="203" y="0" type="line"/>
      <point x="203" y="504" type="line"/>
      <point x="196" y="497" type="line"/>
      <point x="478" y="497" type="line"/>
      <point x="478" y="598" type="line"/>
      <point x="67" y="598" type="line"/>
    </contour>
    <contour>
      <point x="196" y="251" type="line"/>
      <point x="434" y="251" type="line"/>
      <point x="434" y="352" type="line"/>
      <point x="196" y="352" type="line"/>
    </contour>
  </outline>
</glyph>
<glyph name="five.dnom" format="2">
  <advance width="335"/>
  <outline>
    <contour>
      <point x="170" y="-11" type="curve" smooth="yes"/>
      <point x="252" y="-11"/>
      <point x="310" y="31"/>
      <point x="310" y="116" type="curve" smooth="yes"/>
      <point x="310" y="191"/>
      <point x="266" y="232"/>
      <point x="191" y="232" type="curve" smooth="yes"/>
      <point x="146" y="232"/>
      <point x="124" y="216"/>
      <point x="113" y="186" type="curve"/>
      <point x="129" y="186" type="line"/>
      <point x="144" y="290" type="line"/>
      <point x="290" y="290" type="line"/>
      <point x="290" y="367" type="line"/>
      <point x="59" y="367" type="line"/>
      <point x="32" y="154" type="line"/>
      <point x="115" y="140" type="line"/>
      <point x="129" y="152"/>
      <point x="145" y="157"/>
      <point x="159" y="157" type="curve" smooth="yes"/>
      <point x="185" y="157"/>
      <point x="206" y="139"/>
      <point x="206" y="112" type="curve" smooth="yes"/>
      <point x="206" y="85"/>
      <point x="185" y="74"/>
      <point x="164" y="74" type="curve" smooth="yes"/>
      <point x="145" y="74"/>
      <point x="127" y="84"/>
      <point x="126" y="99" type="curve"/>
      <point x="27" y="88" type="line"/>
      <point x="34" y="29"/>
      <point x="90" y="-11"/>
    </contour>
  </outline>
</glyph>
<glyph name="five.osf" format="2">
  <advance width="565"/>
  <outline>
    <contour>
      <point x="301" y="-164" type="curve" smooth="yes"/>
      <point x="453" y="-164"/>
      <point x="559" y="-73"/>
      <point x="559" y="78" type="curve" smooth="yes"/>
      <point x="559" y="217"/>
      <point x="461" y="309"/>
      <point x="324" y="309" type="curve" smooth="yes"/>
      <point x="231" y="309"/>
      <point x="159" y="271"/>
      <point x="136" y="212" type="curve"/>
      <point x="177" y="212" type="line"/>
      <point x="210" y="437" type="line"/>
      <point x="519" y="437" type="line"/>
      <point x="519" y="544" type="line"/>
      <point x="104" y="544" type="line"/>
      <point x="56" y="164" type="line"/>
      <point x="170" y="138" type="line"/>
      <point x="191" y="176"/>
      <point x="235" y="201"/>
      <point x="296" y="201" type="curve" smooth="yes"/>
      <point x="370" y="201"/>
      <point x="419" y="151"/>
      <point x="419" y="74" type="curve" smooth="yes"/>
      <point x="419" y="1"/>
      <point x="379" y="-52"/>
      <point x="296" y="-52" type="curve" smooth="yes"/>
      <point x="231" y="-52"/>
      <point x="184" y="-13"/>
      <point x="177" y="46" type="curve"/>
      <point x="43" y="28" type="line"/>
      <point x="58" y="-86"/>
      <point x="159" y="-164"/>
    </contour>
  </outline>
</glyph>
<glyph name="four.dnom" format="2">
  <advance width="351"/>
  <outline>
    <contour>
      <point x="184" y="-2" type="line"/>
      <point x="290" y="-2" type="line"/>
      <point x="290" y="367" type="line"/>
      <point x="201" y="367" type="line"/>
      <point x="14" y="125" type="line"/>
      <point x="14" y="60" type="line"/>
      <point x="339" y="60" type="line"/>
      <point x="339" y="141" type="line"/>
      <point x="101" y="141" type="line"/>
      <point x="103" y="138" type="line"/>
      <point x="187" y="247" type="line"/>
      <point x="184" y="247" type="line"/>
    </contour>
  </outline>
</glyph>
<glyph name="four.osf" format="2">
  <advance width="579"/>
  <outline>
    <contour>
      <point x="344" y="-148" type="line"/>
      <point x="480" y="-148" type="line"/>
      <point x="480" y="545" type="line"/>
      <point x="359" y="545" type="line"/>
      <point x="13" y="107" type="line"/>
      <point x="13" y="10" type="line"/>
      <point x="569" y="10" type="line"/>
      <point x="569" y="118" type="line"/>
      <point x="127" y="118" type="line"/>
      <point x="134" y="106" type="line"/>
      <point x="356" y="389" type="line"/>
      <point x="344" y="393" type="line"/>
    </contour>
  </outline>
</glyph>
<glyph name="four.tf" format="2">
  <advance width="620"/>
  <outline>
    <contour>
      <point x="341" y="0" type="line"/>
      <point x="477" y="0" type="line"/>
      <point x="477" y="692" type="line"/>
      <point x="356" y="692" type="line"/>
      <point x="10" y="246" type="line"/>
      <point x="10" y="149" type="line"/>
      <point x="566" y="149" type="line"/>
      <point x="566" y="257" type="line"/>
      <point x="124" y="257" type="line"/>
      <point x="131" y="246" type="line"/>
      <point x="353" y="537" type="line"/>
      <point x="341" y="540" type="line"/>
    </contour>
  </outline>
</glyph>
<glyph name="g.sc" format="2">
  <advance width="616"/>
  <note>
Versione senza gamba?
</note>
  <anchor x="317" y="0" name="bottom"/>
  <anchor x="315" y="598" name="top"/>
  <outline>
    <contour>
      <point x="327" y="-12" type="curve" smooth="yes"/>
      <point x="412" y="-12"/>
      <point x="513" y="16"/>
      <point x="565" y="61" type="curve"/>
      <point x="565" y="335" type="line"/>
      <point x="300" y="335" type="line"/>
      <point x="300" y="242" type="line"/>
      <point x="448" y="242" type="line"/>
      <point x="448" y="133" type="line"/>
      <point x="407" y="103"/>
      <point x="372" y="91"/>
      <point x="327" y="91" type="curve" smooth="yes"/>
      <point x="262" y="91"/>
      <point x="174" y="134"/>
      <point x="174" y="316" type="curve" smooth="yes"/>
      <point x="174" y="435"/>
      <point x="227" y="511"/>
      <point x="308" y="511" type="curve" smooth="yes"/>
      <point x="368" y="511"/>
      <point x="418" y="470"/>
      <point x="430" y="393" type="curve"/>
      <point x="566" y="429" type="line"/>
      <point x="541" y="537"/>
      <point x="437" y="610"/>
      <point x="312" y="610" type="curve" smooth="yes"/>
      <point x="146" y="610"/>
      <point x="33" y="486"/>
      <point x="33" y="302" type="curve" smooth="yes"/>
      <point x="33" y="114"/>
      <point x="144" y="-12"/>
    </contour>
  </outline>
</glyph>
<glyph name="g.ss02" format="2">
  <advance width="594"/>
  <anchor x="297" y="-218" name="bottom"/>
  <anchor x="297" y="544" name="top"/>
  <outline>
    <contour>
      <point x="260" y="-240" type="curve" smooth="yes"/>
      <point x="437" y="-240"/>
      <point x="542" y="-181"/>
      <point x="542" y="-62" type="curve" smooth="yes"/>
      <point x="542" y="183"/>
      <point x="164" y="32"/>
      <point x="164" y="140" type="curve" smooth="yes"/>
      <point x="164" y="165"/>
      <point x="187" y="184"/>
      <point x="227" y="196" type="curve"/>
      <point x="154" y="230" type="line"/>
      <point x="73" y="206"/>
      <point x="42" y="159"/>
      <point x="42" y="112" type="curve" smooth="yes"/>
      <point x="42" y="-91"/>
      <point x="412" y="49"/>
      <point x="412" y="-68" type="curve" smooth="yes"/>
      <point x="412" y="-111"/>
      <point x="357" y="-140"/>
      <point x="266" y="-140" type="curve" smooth="yes"/>
      <point x="189" y="-140"/>
      <point x="142" y="-109"/>
      <point x="142" y="-64" type="curve" smooth="yes"/>
      <point x="142" y="-24"/>
      <point x="174" y="2"/>
      <point x="206" y="16" type="curve"/>
      <point x="118" y="38" type="line"/>
      <point x="58" y="8"/>
      <point x="16" y="-31"/>
      <point x="16" y="-91" type="curve" smooth="yes"/>
      <point x="16" y="-173"/>
      <point x="102" y="-240"/>
    </contour>
    <contour>
      <point x="277" y="174" type="curve" smooth="yes"/>
      <point x="401" y="174"/>
      <point x="486" y="251"/>
      <point x="486" y="364" type="curve" smooth="yes"/>
      <point x="486" y="478"/>
      <point x="401" y="556"/>
      <point x="277" y="556" type="curve" smooth="yes"/>
      <point x="153" y="556"/>
      <point x="68" y="478"/>
      <point x="68" y="364" type="curve" smooth="yes"/>
      <point x="68" y="251"/>
      <point x="153" y="174"/>
    </contour>
    <contour>
      <point x="277" y="266" type="curve" smooth="yes"/>
      <point x="224" y="266"/>
      <point x="190" y="305"/>
      <point x="190" y="365" type="curve" smooth="yes"/>
      <point x="190" y="425"/>
      <point x="224" y="464"/>
      <point x="277" y="464" type="curve" smooth="yes"/>
      <point x="330" y="464"/>
      <point x="364" y="425"/>
      <point x="364" y="364" type="curve" smooth="yes"/>
      <point x="364" y="304"/>
      <point x="330" y="266"/>
    </contour>
    <contour>
      <point x="452" y="415" type="line"/>
      <point x="459" y="459"/>
      <point x="524" y="482"/>
      <point x="588" y="451" type="curve"/>
      <point x="596" y="559" type="line"/>
      <point x="507" y="590"/>
      <point x="423" y="540"/>
      <point x="424" y="455" type="curve"/>
    </contour>
  </outline>
</glyph>
<glyph name="gravecomb.case" format="2">
  <advance width="398"/>
  <anchor x="242" y="545" name="_top"/>
  <outline>
    <contour>
      <point x="220" y="597" type="line"/>
      <point x="324" y="597" type="line"/>
      <point x="246" y="727" type="line"/>
      <point x="74" y="727" type="line"/>
    </contour>
  </outline>
</glyph>
<glyph name="gravecomb.sc" format="2">
  <advance width="333"/>
  <anchor x="193" y="444" name="_top"/>
  <outline>
    <contour>
      <point x="174" y="488" type="line"/>
      <point x="274" y="488" type="line"/>
      <point x="212" y="610" type="line"/>
      <point x="59" y="610" type="line"/>
    </contour>
  </outline>
</glyph>
